M48
METRIC,LZ,000.000
;FILE_FORMAT=3:3
;TYPE=PLATED
;Layer: PTH_Through
;EasyEDA v6.5.40, 2024-02-13 21:11:00
;0db29987ae6842e5b8bd60c629fb3438,0aba9cac1add4106ad3baa3c3c759302,10
;Gerber Generator version 0.2
;Holesize 1 = 0.800 mm
T01C0.800
;Holesize 2 = 0.900 mm
T02C0.900
;Holesize 3 = 0.901 mm
T03C0.901
;Holesize 4 = 0.915 mm
T04C0.915
;Holesize 5 = 1.000 mm
T05C1.000
;Holesize 6 = 1.101 mm
T06C1.101
;Holesize 7 = 1.200 mm
T07C1.200
%
G05
G90
T01
X020844Y068580
X022844Y068580
X008493Y035687
X006493Y035687
X016780Y029972
X018780Y029972
T02
X069596Y052959
X079756Y052959
X013081Y062992
X002921Y062992
X002921Y048641
X013081Y048641
X066040Y037973
X076200Y037973
X019050Y083312
X019050Y093472
X044577Y083439
X044577Y093599
X067437Y083312
X067437Y093472
X090297Y083058
X090297Y093218
X067564Y022479
X067564Y032639
T03
X037054Y053086G85X037114Y053086
X037084Y050546
X037084Y048006
X037084Y042926
X037084Y040386
X037084Y037846
X037084Y032766
X037084Y030226
X037084Y025146
X037084Y022606
X037084Y020066
X037084Y017526
X062484Y017526
X062484Y020066
X062484Y022606
X062484Y025146
X062484Y027686
X062484Y030226
X062484Y032766
X062484Y035306
X062484Y037846
X062484Y040386
X062484Y042926
X062484Y045466
X062484Y048006
X062484Y050546
X062484Y053086
T04
X085725Y053213
X088265Y053213
X018542Y052959
X021082Y052959
X081026Y072898
X083566Y072898
X086106Y072898
X088646Y072898
X078105Y025019
X078105Y022479
X078105Y019939
X078105Y017399
X037084Y045466
X037084Y035306
X037084Y027686
T05
X097822Y040767
X089122Y040767
X084074Y035687
X084074Y038227
X084074Y040767
T06
X016154Y010922
X010871Y010922
T07
X094361Y025654
X086741Y025654
X015061Y069632
X008561Y069632
X008561Y074132
X015061Y074132
X014934Y083348
X008434Y083348
X008434Y087848
X014934Y087848
X036651Y083602
X030151Y083602
X030151Y088102
X036651Y088102
X061035Y083602
X054535Y083602
X054535Y088102
X061035Y088102
X083768Y083602
X077268Y083602
X077268Y088102
X083768Y088102
X013462Y021087
X016002Y021077
X010922Y021087
M30
