G04 Layer: TopLayer*
G04 EasyEDA v6.5.40, 2024-02-13 21:11:00*
G04 0db29987ae6842e5b8bd60c629fb3438,0aba9cac1add4106ad3baa3c3c759302,10*
G04 Gerber Generator version 0.2*
G04 Scale: 100 percent, Rotated: No, Reflected: No *
G04 Dimensions in millimeters *
G04 leading zeros omitted , absolute positions ,4 integer and 5 decimal *
%FSLAX45Y45*%
%MOMM*%

%ADD10C,1.3000*%
%ADD11C,1.9000*%
%ADD12C,1.8000*%
%ADD13R,1.7000X1.7000*%
%ADD14C,1.7000*%
%ADD15C,1.7780*%
%ADD16R,1.8000X1.8000*%
%ADD17C,1.8796*%
%ADD18C,2.0000*%
%ADD19R,1.5240X1.5240*%
%ADD20C,1.5240*%
%ADD21O,1.7999964X2.5999948*%
%ADD22R,1.8000X2.6000*%
%ADD23R,0.0177X2.6000*%

%LPD*%
G36*
X36068Y25908D02*
G01*
X32156Y26670D01*
X28905Y28905D01*
X26670Y32156D01*
X25908Y36068D01*
X25908Y9963912D01*
X26670Y9967823D01*
X28905Y9971074D01*
X32156Y9973310D01*
X36068Y9974072D01*
X9963912Y9974072D01*
X9967823Y9973310D01*
X9971125Y9971074D01*
X9973310Y9967823D01*
X9974072Y9963912D01*
X9974072Y36068D01*
X9973310Y32156D01*
X9971125Y28905D01*
X9967823Y26670D01*
X9963912Y25908D01*
G37*

%LPC*%
G36*
X1531010Y981303D02*
G01*
X1699869Y981303D01*
X1706168Y982014D01*
X1711655Y983894D01*
X1716532Y986993D01*
X1720646Y991108D01*
X1723745Y995984D01*
X1725625Y1001471D01*
X1726336Y1007770D01*
X1726336Y1176629D01*
X1725625Y1182928D01*
X1723745Y1188415D01*
X1720646Y1193292D01*
X1716532Y1197406D01*
X1711655Y1200505D01*
X1709013Y1201420D01*
X1705457Y1203502D01*
X1703070Y1206855D01*
X1702206Y1210868D01*
X1692554Y1994306D01*
X1692910Y1997202D01*
X1694129Y1999843D01*
X1701749Y2011883D01*
X1707946Y2025040D01*
X1712417Y2038857D01*
X1715160Y2053183D01*
X1716074Y2068017D01*
X1716074Y2090826D01*
X1716887Y2094687D01*
X1719072Y2097989D01*
X1742084Y2121001D01*
X1748637Y2128266D01*
X1755749Y2138426D01*
X1757172Y2140762D01*
X1762506Y2151989D01*
X1765604Y2161133D01*
X1768093Y2173274D01*
X1768906Y2185771D01*
X1768906Y2996844D01*
X1768043Y3009595D01*
X1765503Y3021736D01*
X1761337Y3033420D01*
X1755648Y3044393D01*
X1747621Y3055620D01*
X1738833Y3064764D01*
X1728825Y3072536D01*
X1717802Y3078937D01*
X1708251Y3082950D01*
X1696313Y3086252D01*
X1693976Y3086709D01*
X1684020Y3087928D01*
X1671624Y3087878D01*
X1668678Y3087624D01*
X1659331Y3086150D01*
X1656130Y3085439D01*
X1647443Y3082798D01*
X1644091Y3081528D01*
X1636064Y3077870D01*
X1632661Y3075990D01*
X1625498Y3071418D01*
X1622094Y3068878D01*
X1615897Y3063595D01*
X1612646Y3060395D01*
X1607413Y3054502D01*
X1604518Y3050692D01*
X1600301Y3044393D01*
X1597761Y3039922D01*
X1594612Y3033369D01*
X1592580Y3028340D01*
X1590446Y3021685D01*
X1589074Y3016097D01*
X1587957Y3009544D01*
X1587296Y3003550D01*
X1587093Y2997047D01*
X1587093Y2271572D01*
X1586128Y2267254D01*
X1583385Y2263749D01*
X1579422Y2261717D01*
X1564386Y2257907D01*
X1550822Y2252573D01*
X1538071Y2245563D01*
X1526336Y2236978D01*
X1515719Y2227021D01*
X1506423Y2215794D01*
X1498650Y2203500D01*
X1492453Y2190343D01*
X1487932Y2176526D01*
X1485188Y2162200D01*
X1484274Y2147366D01*
X1484274Y2068017D01*
X1485188Y2053183D01*
X1487932Y2038857D01*
X1492453Y2025040D01*
X1498650Y2011883D01*
X1506423Y1999589D01*
X1508404Y1997151D01*
X1510131Y1994204D01*
X1510741Y1990801D01*
X1520393Y1206957D01*
X1519885Y1203553D01*
X1518208Y1200556D01*
X1514348Y1197406D01*
X1510233Y1193292D01*
X1507134Y1188415D01*
X1505254Y1182928D01*
X1504543Y1176629D01*
X1504543Y1007770D01*
X1505254Y1001471D01*
X1507134Y995984D01*
X1510233Y991108D01*
X1514348Y986993D01*
X1519224Y983894D01*
X1524711Y982014D01*
G37*
G36*
X1038250Y992784D02*
G01*
X1038250Y1043330D01*
X987653Y1043330D01*
X994206Y1031697D01*
X1002690Y1020318D01*
X1012545Y1010107D01*
X1023670Y1001268D01*
X1035812Y993902D01*
G37*
G36*
X1135989Y992886D02*
G01*
X1144625Y997356D01*
X1156258Y1005484D01*
X1166774Y1015034D01*
X1175969Y1025855D01*
X1183741Y1037793D01*
X1186434Y1043330D01*
X1135989Y1043330D01*
G37*
G36*
X1135989Y1141069D02*
G01*
X1186434Y1141069D01*
X1183741Y1146606D01*
X1175969Y1158544D01*
X1166774Y1169365D01*
X1156258Y1178915D01*
X1144625Y1187043D01*
X1135989Y1191514D01*
G37*
G36*
X987653Y1141069D02*
G01*
X1038250Y1141069D01*
X1038250Y1191615D01*
X1035812Y1190498D01*
X1023670Y1183132D01*
X1012545Y1174292D01*
X1002690Y1164082D01*
X994206Y1152702D01*
G37*
G36*
X6478066Y1433118D02*
G01*
X7988909Y1445818D01*
X7995259Y1446072D01*
X8001457Y1446733D01*
X8007502Y1447850D01*
X8013547Y1449374D01*
X8019440Y1451305D01*
X8025231Y1453642D01*
X8030768Y1456334D01*
X8036204Y1459433D01*
X8041335Y1462887D01*
X8046262Y1466646D01*
X8050885Y1470761D01*
X8055254Y1475232D01*
X8059420Y1480058D01*
X8262264Y1733651D01*
X8269122Y1743456D01*
X8274862Y1754479D01*
X8279028Y1766163D01*
X8281517Y1778304D01*
X8282431Y1791055D01*
X8282431Y2336444D01*
X8281517Y2349195D01*
X8279028Y2361336D01*
X8274862Y2373020D01*
X8269173Y2383993D01*
X8262010Y2394153D01*
X8253526Y2403195D01*
X8243925Y2411069D01*
X8233003Y2417673D01*
X7914894Y2582519D01*
X7909102Y2585262D01*
X7903362Y2587548D01*
X7897418Y2589428D01*
X7891525Y2590850D01*
X7883448Y2592120D01*
X7880858Y2592882D01*
X7865821Y2602484D01*
X7852765Y2608630D01*
X7839049Y2613101D01*
X7828330Y2615133D01*
X7825486Y2616149D01*
X7823047Y2617927D01*
X7142378Y3298596D01*
X7140194Y3301898D01*
X7139431Y3305759D01*
X7139431Y4580280D01*
X7140194Y4584192D01*
X7142378Y4587494D01*
X7839862Y5284978D01*
X7843672Y5287365D01*
X7848142Y5287873D01*
X7852409Y5286400D01*
X7855610Y5283250D01*
X7857134Y5279034D01*
X7857794Y5273852D01*
X7861350Y5259578D01*
X7866684Y5245811D01*
X7873695Y5232806D01*
X7882229Y5220766D01*
X7892135Y5209844D01*
X7903362Y5200243D01*
X7915656Y5192115D01*
X7928864Y5185511D01*
X7942783Y5180584D01*
X7957210Y5177434D01*
X7971891Y5176062D01*
X7986674Y5176520D01*
X8001253Y5178806D01*
X8015427Y5182870D01*
X8029041Y5188610D01*
X8041792Y5195976D01*
X8051038Y5202936D01*
X8053933Y5204460D01*
X8057134Y5204968D01*
X8538464Y5204968D01*
X8540648Y5204764D01*
X8553958Y5201818D01*
X8568791Y5200446D01*
X8583676Y5200904D01*
X8598357Y5203190D01*
X8612682Y5207304D01*
X8626398Y5213096D01*
X8639251Y5220512D01*
X8651138Y5229504D01*
X8661857Y5239867D01*
X8671153Y5251450D01*
X8679027Y5264099D01*
X8685225Y5277612D01*
X8689746Y5291886D01*
X8692489Y5306466D01*
X8693404Y5321300D01*
X8692489Y5336133D01*
X8689746Y5350764D01*
X8685225Y5364988D01*
X8679027Y5378500D01*
X8671153Y5391150D01*
X8661857Y5402732D01*
X8651138Y5413095D01*
X8639251Y5422087D01*
X8626398Y5429504D01*
X8612682Y5435295D01*
X8598357Y5439410D01*
X8583676Y5441696D01*
X8568791Y5442153D01*
X8553958Y5440781D01*
X8539429Y5437581D01*
X8525357Y5432602D01*
X8512048Y5425998D01*
X8499652Y5417769D01*
X8488324Y5408066D01*
X8478316Y5397093D01*
X8474100Y5391099D01*
X8471814Y5388813D01*
X8468969Y5387340D01*
X8465769Y5386832D01*
X8057134Y5386832D01*
X8053933Y5387340D01*
X8051038Y5388864D01*
X8041792Y5395823D01*
X8029041Y5403189D01*
X8015427Y5408930D01*
X8001253Y5412994D01*
X7992160Y5414416D01*
X7988046Y5416042D01*
X7984998Y5419242D01*
X7983575Y5423458D01*
X7984134Y5427878D01*
X7986522Y5431637D01*
X8674709Y6119774D01*
X8681212Y6127038D01*
X8682939Y6129223D01*
X8688374Y6137198D01*
X8689746Y6139535D01*
X8694064Y6148222D01*
X8698179Y6159906D01*
X8698890Y6162598D01*
X8701024Y6174790D01*
X8701532Y6184544D01*
X8701532Y7216292D01*
X8701887Y7219137D01*
X8703106Y7221728D01*
X8711184Y7234478D01*
X8717330Y7247534D01*
X8721801Y7261250D01*
X8724493Y7275423D01*
X8725408Y7289800D01*
X8724493Y7304176D01*
X8721801Y7318349D01*
X8717330Y7332065D01*
X8711184Y7345121D01*
X8703106Y7357821D01*
X8701938Y7360412D01*
X8701532Y7363256D01*
X8701532Y7400340D01*
X8702294Y7404201D01*
X8704478Y7407503D01*
X8746896Y7449921D01*
X8750198Y7452106D01*
X8754059Y7452868D01*
X8924340Y7452868D01*
X8928201Y7452106D01*
X8931503Y7449921D01*
X9688322Y6693103D01*
X9690506Y6689801D01*
X9691268Y6685940D01*
X9691268Y4151934D01*
X9690709Y4148480D01*
X9680651Y4132529D01*
X9674453Y4119372D01*
X9669983Y4105503D01*
X9667240Y4091228D01*
X9666325Y4076700D01*
X9667240Y4062171D01*
X9669983Y4047896D01*
X9674453Y4034028D01*
X9680651Y4020870D01*
X9690709Y4004919D01*
X9691268Y4001465D01*
X9691268Y2953359D01*
X9690506Y2949498D01*
X9688322Y2946196D01*
X9424924Y2682798D01*
X9422536Y2681020D01*
X9419640Y2680004D01*
X9407296Y2677668D01*
X9393428Y2673146D01*
X9380270Y2666949D01*
X9367977Y2659176D01*
X9356750Y2649880D01*
X9346793Y2639263D01*
X9338259Y2627477D01*
X9331248Y2614726D01*
X9325864Y2601214D01*
X9322257Y2587091D01*
X9320428Y2572664D01*
X9320428Y2558135D01*
X9322257Y2543708D01*
X9325864Y2529586D01*
X9331248Y2516073D01*
X9338259Y2503322D01*
X9346793Y2491536D01*
X9356750Y2480919D01*
X9367977Y2471623D01*
X9380270Y2463850D01*
X9393428Y2457653D01*
X9407296Y2453132D01*
X9421571Y2450439D01*
X9436100Y2449525D01*
X9450628Y2450439D01*
X9464903Y2453132D01*
X9478772Y2457653D01*
X9491929Y2463850D01*
X9504222Y2471623D01*
X9515449Y2480919D01*
X9525406Y2491536D01*
X9533940Y2503322D01*
X9540951Y2516073D01*
X9546336Y2529586D01*
X9549942Y2543708D01*
X9550501Y2548229D01*
X9551466Y2551430D01*
X9553397Y2554122D01*
X9846310Y2847035D01*
X9852812Y2854248D01*
X9854539Y2856433D01*
X9859975Y2864408D01*
X9865664Y2875432D01*
X9869779Y2887167D01*
X9870490Y2889808D01*
X9872624Y2902051D01*
X9873132Y2911754D01*
X9873132Y4001465D01*
X9873691Y4004919D01*
X9883749Y4020870D01*
X9889947Y4034028D01*
X9894468Y4047896D01*
X9897160Y4062171D01*
X9898075Y4076700D01*
X9897160Y4091228D01*
X9894468Y4105503D01*
X9889947Y4119372D01*
X9883749Y4132529D01*
X9873691Y4148480D01*
X9873132Y4151934D01*
X9873132Y6727545D01*
X9872624Y6737248D01*
X9870490Y6749491D01*
X9869779Y6752132D01*
X9865664Y6763867D01*
X9859975Y6774891D01*
X9854539Y6782866D01*
X9852812Y6785051D01*
X9846310Y6792264D01*
X9030665Y7607909D01*
X9023451Y7614412D01*
X9021267Y7616139D01*
X9013342Y7621524D01*
X9011513Y7622540D01*
X9008719Y7624825D01*
X9006941Y7627924D01*
X9006332Y7631430D01*
X9006332Y7646314D01*
X9006789Y7649362D01*
X9008160Y7652156D01*
X9010294Y7654391D01*
X9567316Y8081009D01*
X9576866Y8089442D01*
X9584994Y8098840D01*
X9591751Y8109254D01*
X9596983Y8120481D01*
X9600692Y8132318D01*
X9602774Y8144611D01*
X9603181Y8154924D01*
X9590481Y9094063D01*
X9589465Y9106814D01*
X9586772Y9118904D01*
X9582454Y9130538D01*
X9576612Y9141460D01*
X9569348Y9151467D01*
X9560153Y9161018D01*
X9303054Y9392259D01*
X9296552Y9397085D01*
X9292894Y9399422D01*
X9285833Y9403334D01*
X9281922Y9405162D01*
X9274352Y9408007D01*
X9270238Y9409328D01*
X9262364Y9411157D01*
X9258046Y9411817D01*
X9250019Y9412579D01*
X9245498Y9412732D01*
X9111132Y9412732D01*
X9107779Y9413290D01*
X9104782Y9414967D01*
X9098940Y9419640D01*
X9086392Y9427413D01*
X9072981Y9433560D01*
X9058960Y9438030D01*
X9044432Y9440773D01*
X9029700Y9441688D01*
X9014968Y9440773D01*
X9000439Y9438030D01*
X8986418Y9433560D01*
X8973007Y9427413D01*
X8960459Y9419640D01*
X8954617Y9414967D01*
X8951620Y9413290D01*
X8948267Y9412732D01*
X6849211Y9412732D01*
X6846112Y9413189D01*
X6843318Y9414560D01*
X6841083Y9416745D01*
X6834733Y9425178D01*
X6824472Y9435795D01*
X6812940Y9445040D01*
X6800392Y9452813D01*
X6786981Y9458960D01*
X6772960Y9463430D01*
X6758431Y9466173D01*
X6743700Y9467088D01*
X6728968Y9466173D01*
X6714439Y9463430D01*
X6700418Y9458960D01*
X6687007Y9452813D01*
X6674459Y9445040D01*
X6668617Y9440367D01*
X6665620Y9438690D01*
X6662267Y9438132D01*
X4552797Y9438132D01*
X4548835Y9438894D01*
X4545533Y9441180D01*
X4538472Y9448495D01*
X4526940Y9457740D01*
X4514392Y9465513D01*
X4500981Y9471660D01*
X4486960Y9476130D01*
X4472432Y9478873D01*
X4457700Y9479788D01*
X4442968Y9478873D01*
X4428439Y9476130D01*
X4414418Y9471660D01*
X4401007Y9465513D01*
X4388459Y9457740D01*
X4372711Y9445244D01*
X4368749Y9444482D01*
X1978101Y9444482D01*
X1975307Y9444837D01*
X1972716Y9445955D01*
X1961692Y9452813D01*
X1948281Y9458960D01*
X1934260Y9463430D01*
X1919732Y9466173D01*
X1905000Y9467088D01*
X1890268Y9466173D01*
X1875739Y9463430D01*
X1861718Y9458960D01*
X1848307Y9452813D01*
X1835759Y9445040D01*
X1829917Y9440367D01*
X1826920Y9438690D01*
X1823567Y9438132D01*
X1133957Y9438132D01*
X1124204Y9437624D01*
X1112012Y9435490D01*
X1109319Y9434779D01*
X1097635Y9430664D01*
X1086612Y9424974D01*
X1078636Y9419539D01*
X1076452Y9417812D01*
X1069187Y9411309D01*
X227990Y8570112D01*
X221488Y8562848D01*
X219760Y8560663D01*
X214325Y8552688D01*
X208635Y8541664D01*
X204520Y8529980D01*
X203809Y8527288D01*
X201676Y8515096D01*
X201168Y8505342D01*
X201168Y6380632D01*
X200609Y6377279D01*
X198932Y6374282D01*
X194259Y6368440D01*
X186486Y6355892D01*
X180340Y6342481D01*
X175869Y6328460D01*
X173126Y6313932D01*
X172212Y6299200D01*
X173126Y6284468D01*
X175869Y6269939D01*
X180340Y6255918D01*
X186486Y6242507D01*
X194259Y6229959D01*
X198932Y6224117D01*
X200609Y6221120D01*
X201168Y6217767D01*
X201168Y4945888D01*
X200710Y4942789D01*
X199288Y4939995D01*
X190195Y4927193D01*
X183184Y4914188D01*
X177850Y4900422D01*
X174294Y4886147D01*
X172466Y4871466D01*
X172466Y4856734D01*
X174294Y4842052D01*
X177850Y4827778D01*
X183184Y4814011D01*
X190195Y4801006D01*
X198729Y4788966D01*
X208635Y4778044D01*
X219862Y4768443D01*
X232156Y4760315D01*
X245364Y4753711D01*
X259283Y4748784D01*
X273710Y4745634D01*
X279196Y4745126D01*
X282549Y4744212D01*
X285445Y4742230D01*
X755396Y4272229D01*
X757631Y4268927D01*
X758393Y4265015D01*
X758393Y3568954D01*
X759206Y3556457D01*
X761034Y3547008D01*
X764794Y3535172D01*
X765860Y3532632D01*
X770128Y3523996D01*
X771550Y3521608D01*
X778662Y3511448D01*
X785215Y3504234D01*
X1252321Y3037128D01*
X1254506Y3033826D01*
X1255268Y3029915D01*
X1255268Y2223922D01*
X1254709Y2220468D01*
X1244650Y2204516D01*
X1238453Y2191359D01*
X1233932Y2177491D01*
X1231188Y2163216D01*
X1230274Y2148382D01*
X1230274Y2069033D01*
X1231188Y2054148D01*
X1233932Y2039874D01*
X1238453Y2026056D01*
X1244650Y2012848D01*
X1252423Y2000554D01*
X1261719Y1989378D01*
X1272336Y1979422D01*
X1284071Y1970836D01*
X1296822Y1963826D01*
X1310386Y1958492D01*
X1324457Y1954885D01*
X1338935Y1953056D01*
X1353464Y1953056D01*
X1367891Y1954885D01*
X1382014Y1958492D01*
X1395526Y1963826D01*
X1408277Y1970836D01*
X1420063Y1979422D01*
X1430680Y1989378D01*
X1439926Y2000554D01*
X1447749Y2012848D01*
X1453946Y2026056D01*
X1458417Y2039874D01*
X1461160Y2054148D01*
X1462074Y2069033D01*
X1462074Y2148382D01*
X1461160Y2163216D01*
X1458417Y2177491D01*
X1453946Y2191359D01*
X1447749Y2204516D01*
X1437690Y2220468D01*
X1437132Y2223871D01*
X1437132Y3071520D01*
X1436624Y3081274D01*
X1434490Y3093466D01*
X1433779Y3096158D01*
X1429664Y3107842D01*
X1423974Y3118866D01*
X1418539Y3126841D01*
X1416812Y3129026D01*
X1410309Y3136290D01*
X943203Y3603396D01*
X940968Y3606698D01*
X940206Y3610559D01*
X940206Y4306620D01*
X939393Y4319117D01*
X936904Y4331258D01*
X933805Y4340402D01*
X932738Y4342942D01*
X928471Y4351578D01*
X927049Y4353966D01*
X919937Y4364126D01*
X913384Y4371390D01*
X414121Y4870653D01*
X412038Y4873650D01*
X408330Y4893360D01*
X403860Y4907381D01*
X397713Y4920792D01*
X389940Y4933340D01*
X385267Y4939182D01*
X383590Y4942179D01*
X383032Y4945532D01*
X383032Y6217412D01*
X383489Y6220510D01*
X384911Y6223304D01*
X394004Y6236106D01*
X401015Y6249111D01*
X406349Y6262878D01*
X409905Y6277152D01*
X411734Y6291834D01*
X411734Y6306566D01*
X409905Y6321247D01*
X406349Y6335522D01*
X401015Y6349288D01*
X394004Y6362293D01*
X384911Y6375095D01*
X383489Y6377889D01*
X383032Y6380988D01*
X383032Y8463737D01*
X383794Y8467648D01*
X385978Y8470950D01*
X753211Y8838184D01*
X756513Y8840368D01*
X760374Y8841130D01*
X787044Y8841130D01*
X787044Y8867800D01*
X787806Y8871712D01*
X790041Y8875014D01*
X1168349Y9253321D01*
X1171651Y9255506D01*
X1175562Y9256268D01*
X1823212Y9256268D01*
X1826310Y9255810D01*
X1829104Y9254388D01*
X1841906Y9245295D01*
X1854911Y9238284D01*
X1868678Y9232950D01*
X1882952Y9229394D01*
X1897634Y9227566D01*
X1912366Y9227566D01*
X1927047Y9229394D01*
X1941322Y9232950D01*
X1955088Y9238284D01*
X1968093Y9245295D01*
X1980133Y9253829D01*
X1986940Y9259976D01*
X1990089Y9261957D01*
X1993747Y9262618D01*
X4384802Y9262618D01*
X4387850Y9262160D01*
X4390644Y9260789D01*
X4394606Y9257995D01*
X4407611Y9250984D01*
X4421378Y9245650D01*
X4435652Y9242094D01*
X4450334Y9240266D01*
X4465066Y9240266D01*
X4479747Y9242094D01*
X4494022Y9245650D01*
X4507788Y9250984D01*
X4515408Y9255099D01*
X4517745Y9255963D01*
X4520184Y9256268D01*
X6661912Y9256268D01*
X6665010Y9255810D01*
X6667804Y9254388D01*
X6680606Y9245295D01*
X6693611Y9238284D01*
X6707378Y9232950D01*
X6721652Y9229394D01*
X6736334Y9227566D01*
X6751066Y9227566D01*
X6765747Y9229394D01*
X6770573Y9230563D01*
X6773011Y9230868D01*
X8947912Y9230868D01*
X8951010Y9230410D01*
X8953804Y9228988D01*
X8966606Y9219895D01*
X8979611Y9212884D01*
X8993378Y9207550D01*
X9007652Y9203994D01*
X9022334Y9202166D01*
X9037066Y9202166D01*
X9051747Y9203994D01*
X9066022Y9207550D01*
X9079788Y9212884D01*
X9092793Y9219895D01*
X9105595Y9228988D01*
X9108389Y9230410D01*
X9111488Y9230868D01*
X9206839Y9230868D01*
X9210446Y9230207D01*
X9213596Y9228277D01*
X9405924Y9055201D01*
X9408414Y9051848D01*
X9409277Y9047784D01*
X9420707Y8202930D01*
X9420250Y8199831D01*
X9418878Y8196986D01*
X9416745Y8194700D01*
X8860332Y7768539D01*
X8853220Y7762544D01*
X8844788Y7753451D01*
X8842806Y7750911D01*
X8835999Y7740497D01*
X8831986Y7732268D01*
X8830716Y7729270D01*
X8827820Y7720584D01*
X8827008Y7717434D01*
X8825331Y7708442D01*
X8824925Y7705191D01*
X8824468Y7695946D01*
X8824468Y7644892D01*
X8823706Y7640980D01*
X8821521Y7637678D01*
X8818219Y7635494D01*
X8814308Y7634731D01*
X8712454Y7634731D01*
X8702751Y7634224D01*
X8690508Y7632090D01*
X8687866Y7631379D01*
X8676132Y7627264D01*
X8665108Y7621574D01*
X8657132Y7616139D01*
X8654948Y7614412D01*
X8647734Y7607909D01*
X8546490Y7506665D01*
X8539988Y7499451D01*
X8538260Y7497267D01*
X8532825Y7489291D01*
X8527135Y7478268D01*
X8523020Y7466533D01*
X8522309Y7463891D01*
X8520176Y7451648D01*
X8519668Y7441946D01*
X8519668Y7363307D01*
X8519312Y7360462D01*
X8518093Y7357872D01*
X8510016Y7345121D01*
X8503869Y7332065D01*
X8499398Y7318349D01*
X8496706Y7304176D01*
X8495792Y7289800D01*
X8496706Y7275423D01*
X8499398Y7261250D01*
X8503869Y7247534D01*
X8510016Y7234478D01*
X8518093Y7221728D01*
X8519312Y7219137D01*
X8519668Y7216292D01*
X8519668Y6226149D01*
X8518906Y6222238D01*
X8516721Y6218936D01*
X6984390Y4686655D01*
X6977888Y4679391D01*
X6976160Y4677206D01*
X6970725Y4669231D01*
X6965035Y4658207D01*
X6960920Y4646523D01*
X6960209Y4643831D01*
X6958075Y4631639D01*
X6957568Y4621885D01*
X6957568Y3364992D01*
X6956806Y3361080D01*
X6954621Y3357778D01*
X6951319Y3355594D01*
X6947408Y3354832D01*
X6837832Y3354832D01*
X6834479Y3355390D01*
X6831482Y3357067D01*
X6825640Y3361740D01*
X6813092Y3369513D01*
X6799681Y3375660D01*
X6785660Y3380130D01*
X6771131Y3382873D01*
X6756400Y3383787D01*
X6741668Y3382873D01*
X6727139Y3380130D01*
X6713118Y3375660D01*
X6699707Y3369513D01*
X6687159Y3361740D01*
X6675628Y3352495D01*
X6665366Y3341878D01*
X6656476Y3330092D01*
X6649110Y3317341D01*
X6643370Y3303727D01*
X6639306Y3289554D01*
X6637020Y3274974D01*
X6636613Y3260191D01*
X6637934Y3245510D01*
X6641084Y3231083D01*
X6646011Y3217164D01*
X6652615Y3203956D01*
X6660743Y3191662D01*
X6670344Y3180435D01*
X6681266Y3170529D01*
X6693306Y3161995D01*
X6706311Y3154984D01*
X6720078Y3149650D01*
X6734352Y3146094D01*
X6749034Y3144266D01*
X6763766Y3144266D01*
X6778447Y3146094D01*
X6792722Y3149650D01*
X6806488Y3154984D01*
X6819493Y3161995D01*
X6832295Y3171088D01*
X6835089Y3172510D01*
X6838188Y3172968D01*
X7006640Y3172968D01*
X7010501Y3172206D01*
X7013803Y3170021D01*
X7694472Y2489352D01*
X7696403Y2486660D01*
X7697368Y2483459D01*
X7697724Y2480411D01*
X7701330Y2466441D01*
X7706614Y2453030D01*
X7713573Y2440381D01*
X7722057Y2428748D01*
X7731912Y2418232D01*
X7743037Y2409037D01*
X7755178Y2401316D01*
X7768234Y2395169D01*
X7781950Y2390698D01*
X7796123Y2388006D01*
X7810500Y2387092D01*
X7824876Y2388006D01*
X7839049Y2390698D01*
X7852765Y2395169D01*
X7863179Y2400046D01*
X7866125Y2400960D01*
X7869224Y2400909D01*
X7872171Y2399893D01*
X8095081Y2284374D01*
X8098028Y2282088D01*
X8099907Y2278938D01*
X8100568Y2275332D01*
X8100568Y1826158D01*
X8100009Y1822805D01*
X8098383Y1819808D01*
X7947355Y1631035D01*
X7943850Y1628241D01*
X7939481Y1627225D01*
X7881010Y1626717D01*
X7876743Y1627581D01*
X7873238Y1630172D01*
X7871155Y1633982D01*
X7870850Y1638300D01*
X7872374Y1642414D01*
X7875473Y1645462D01*
X7877962Y1647037D01*
X7889087Y1656232D01*
X7898942Y1666748D01*
X7907426Y1678381D01*
X7913319Y1689100D01*
X7861300Y1689100D01*
X7861300Y1636623D01*
X7860538Y1632762D01*
X7858353Y1629460D01*
X7855102Y1627276D01*
X7851241Y1626463D01*
X7769961Y1625752D01*
X7766050Y1626514D01*
X7762697Y1628698D01*
X7760462Y1632051D01*
X7759700Y1635912D01*
X7759700Y1689100D01*
X7707680Y1689100D01*
X7713573Y1678381D01*
X7722057Y1666748D01*
X7731912Y1656232D01*
X7743037Y1647037D01*
X7747355Y1644294D01*
X7750454Y1641246D01*
X7751978Y1637233D01*
X7751673Y1632915D01*
X7749641Y1629105D01*
X7746238Y1626514D01*
X7742021Y1625549D01*
X6518605Y1615236D01*
X6514642Y1615998D01*
X6511340Y1618234D01*
X6346799Y1782775D01*
X6344412Y1786636D01*
X6342380Y1792478D01*
X6336233Y1804670D01*
X6328511Y1815896D01*
X6319367Y1826006D01*
X6308953Y1834794D01*
X6297472Y1842160D01*
X6285077Y1847900D01*
X6272072Y1851914D01*
X6258610Y1854200D01*
X6244996Y1854657D01*
X6231432Y1853285D01*
X6218123Y1850136D01*
X6205423Y1845208D01*
X6193434Y1838655D01*
X6182461Y1830578D01*
X6172657Y1821078D01*
X6164224Y1810410D01*
X6157264Y1798675D01*
X6151930Y1786128D01*
X6148324Y1772970D01*
X6146546Y1759457D01*
X6146546Y1745792D01*
X6148324Y1732280D01*
X6151930Y1719122D01*
X6157264Y1706575D01*
X6164224Y1694840D01*
X6172657Y1684172D01*
X6182461Y1674672D01*
X6193434Y1666595D01*
X6205423Y1660042D01*
X6214821Y1656384D01*
X6218377Y1654098D01*
X6412484Y1459992D01*
X6422085Y1451610D01*
X6432448Y1444802D01*
X6443675Y1439468D01*
X6455460Y1435709D01*
X6467754Y1433576D01*
G37*
G36*
X3704996Y1650593D02*
G01*
X3718610Y1651050D01*
X3732072Y1653336D01*
X3745077Y1657350D01*
X3757472Y1663090D01*
X3768953Y1670456D01*
X3779367Y1679244D01*
X3788511Y1689354D01*
X3796233Y1700580D01*
X3802379Y1712772D01*
X3806850Y1725675D01*
X3809542Y1739036D01*
X3810457Y1752600D01*
X3809542Y1766214D01*
X3806850Y1779574D01*
X3802379Y1792478D01*
X3796233Y1804670D01*
X3788511Y1815896D01*
X3779367Y1826006D01*
X3768953Y1834794D01*
X3757472Y1842160D01*
X3745077Y1847900D01*
X3732072Y1851914D01*
X3718610Y1854200D01*
X3704996Y1854657D01*
X3691432Y1853285D01*
X3678123Y1850136D01*
X3665423Y1845208D01*
X3653434Y1838655D01*
X3642461Y1830578D01*
X3632657Y1821078D01*
X3624224Y1810410D01*
X3617264Y1798675D01*
X3611930Y1786128D01*
X3608324Y1772970D01*
X3606546Y1759457D01*
X3606546Y1745792D01*
X3608324Y1732280D01*
X3611930Y1719122D01*
X3617264Y1706575D01*
X3624224Y1694840D01*
X3632657Y1684172D01*
X3642461Y1674672D01*
X3653434Y1666595D01*
X3665423Y1660042D01*
X3678123Y1655114D01*
X3691432Y1651965D01*
G37*
G36*
X7861300Y1790700D02*
G01*
X7913319Y1790700D01*
X7907426Y1801418D01*
X7898942Y1813052D01*
X7889087Y1823567D01*
X7877962Y1832762D01*
X7865821Y1840484D01*
X7861300Y1842617D01*
G37*
G36*
X7707680Y1790700D02*
G01*
X7759700Y1790700D01*
X7759700Y1842617D01*
X7755178Y1840484D01*
X7743037Y1832762D01*
X7731912Y1823567D01*
X7722057Y1813052D01*
X7713573Y1801418D01*
G37*
G36*
X7810500Y1879092D02*
G01*
X7824876Y1880006D01*
X7839049Y1882698D01*
X7852765Y1887169D01*
X7865821Y1893316D01*
X7877962Y1901037D01*
X7889087Y1910232D01*
X7898942Y1920748D01*
X7907426Y1932381D01*
X7914386Y1945030D01*
X7919669Y1958441D01*
X7923275Y1972411D01*
X7925053Y1986686D01*
X7925053Y2001113D01*
X7923275Y2015388D01*
X7919669Y2029358D01*
X7914386Y2042769D01*
X7907426Y2055418D01*
X7898942Y2067052D01*
X7889087Y2077567D01*
X7877962Y2086762D01*
X7865821Y2094484D01*
X7852765Y2100630D01*
X7839049Y2105101D01*
X7824876Y2107793D01*
X7810500Y2108708D01*
X7796123Y2107793D01*
X7781950Y2105101D01*
X7768234Y2100630D01*
X7755178Y2094484D01*
X7743037Y2086762D01*
X7731912Y2077567D01*
X7722057Y2067052D01*
X7713573Y2055418D01*
X7706614Y2042769D01*
X7701330Y2029358D01*
X7697724Y2015388D01*
X7695946Y2001113D01*
X7695946Y1986686D01*
X7697724Y1972411D01*
X7701330Y1958441D01*
X7706614Y1945030D01*
X7713573Y1932381D01*
X7722057Y1920748D01*
X7731912Y1910232D01*
X7743037Y1901037D01*
X7755178Y1893316D01*
X7768234Y1887169D01*
X7781950Y1882698D01*
X7796123Y1880006D01*
G37*
G36*
X3704996Y1904593D02*
G01*
X3718610Y1905050D01*
X3732072Y1907336D01*
X3745077Y1911350D01*
X3757472Y1917090D01*
X3768953Y1924456D01*
X3779367Y1933244D01*
X3788511Y1943354D01*
X3796233Y1954580D01*
X3802379Y1966772D01*
X3806850Y1979675D01*
X3809542Y1993036D01*
X3810457Y2006600D01*
X3809542Y2020214D01*
X3806850Y2033574D01*
X3802379Y2046478D01*
X3796233Y2058670D01*
X3788511Y2069896D01*
X3779367Y2080006D01*
X3768953Y2088794D01*
X3757472Y2096160D01*
X3745077Y2101900D01*
X3732072Y2105914D01*
X3718610Y2108200D01*
X3704996Y2108657D01*
X3691432Y2107285D01*
X3678123Y2104136D01*
X3665423Y2099208D01*
X3653434Y2092655D01*
X3642461Y2084578D01*
X3632657Y2075078D01*
X3624224Y2064410D01*
X3617264Y2052675D01*
X3611930Y2040128D01*
X3608324Y2026970D01*
X3606546Y2013457D01*
X3606546Y1999792D01*
X3608324Y1986280D01*
X3611930Y1973122D01*
X3617264Y1960575D01*
X3624224Y1948840D01*
X3632657Y1938172D01*
X3642461Y1928672D01*
X3653434Y1920595D01*
X3665423Y1914042D01*
X3678123Y1909114D01*
X3691432Y1905965D01*
G37*
G36*
X6203950Y1914855D02*
G01*
X6203950Y1962150D01*
X6156604Y1962150D01*
X6157264Y1960575D01*
X6164224Y1948840D01*
X6172657Y1938172D01*
X6182461Y1928672D01*
X6193434Y1920595D01*
G37*
G36*
X6292850Y1914956D02*
G01*
X6297472Y1917090D01*
X6308953Y1924456D01*
X6319367Y1933244D01*
X6328511Y1943354D01*
X6336233Y1954580D01*
X6340043Y1962150D01*
X6292850Y1962150D01*
G37*
G36*
X1143558Y1952802D02*
G01*
X1181608Y1952802D01*
X1187958Y1953514D01*
X1193393Y1955393D01*
X1198321Y1958492D01*
X1202385Y1962607D01*
X1205484Y1967484D01*
X1207363Y1972919D01*
X1208074Y1979269D01*
X1208074Y2037334D01*
X1143558Y2037334D01*
G37*
G36*
X1002741Y1952802D02*
G01*
X1040841Y1952802D01*
X1040841Y2037334D01*
X976274Y2037334D01*
X976274Y1979269D01*
X976985Y1972919D01*
X978916Y1967484D01*
X981964Y1962607D01*
X986078Y1958492D01*
X990955Y1955393D01*
X996442Y1953514D01*
G37*
G36*
X6292850Y2051050D02*
G01*
X6340043Y2051050D01*
X6336233Y2058670D01*
X6328511Y2069896D01*
X6319367Y2080006D01*
X6308953Y2088794D01*
X6297472Y2096160D01*
X6292850Y2098294D01*
G37*
G36*
X6156604Y2051050D02*
G01*
X6203950Y2051050D01*
X6203950Y2098395D01*
X6193434Y2092655D01*
X6182461Y2084578D01*
X6172657Y2075078D01*
X6164224Y2064410D01*
X6157264Y2052675D01*
G37*
G36*
X6749034Y2128266D02*
G01*
X6763766Y2128266D01*
X6778447Y2130094D01*
X6792722Y2133650D01*
X6806488Y2138984D01*
X6819493Y2145995D01*
X6832295Y2155088D01*
X6835089Y2156510D01*
X6838188Y2156968D01*
X7736992Y2156968D01*
X7739837Y2156612D01*
X7742428Y2155393D01*
X7755178Y2147316D01*
X7768234Y2141169D01*
X7781950Y2136698D01*
X7796123Y2134006D01*
X7810500Y2133092D01*
X7824876Y2134006D01*
X7839049Y2136698D01*
X7852765Y2141169D01*
X7865821Y2147316D01*
X7877962Y2155037D01*
X7889087Y2164232D01*
X7898942Y2174748D01*
X7907426Y2186381D01*
X7914386Y2199030D01*
X7919669Y2212441D01*
X7923275Y2226411D01*
X7925053Y2240686D01*
X7925053Y2255113D01*
X7923275Y2269388D01*
X7919669Y2283358D01*
X7914386Y2296769D01*
X7907426Y2309418D01*
X7898942Y2321052D01*
X7889087Y2331567D01*
X7877962Y2340762D01*
X7865821Y2348484D01*
X7852765Y2354630D01*
X7839049Y2359101D01*
X7824876Y2361793D01*
X7810500Y2362708D01*
X7796123Y2361793D01*
X7781950Y2359101D01*
X7768234Y2354630D01*
X7755178Y2348484D01*
X7742428Y2340406D01*
X7739837Y2339187D01*
X7736992Y2338832D01*
X6837832Y2338832D01*
X6834479Y2339390D01*
X6831482Y2341067D01*
X6825640Y2345740D01*
X6813092Y2353513D01*
X6799681Y2359660D01*
X6785660Y2364130D01*
X6771131Y2366873D01*
X6756400Y2367788D01*
X6741668Y2366873D01*
X6727139Y2364130D01*
X6713118Y2359660D01*
X6696354Y2351887D01*
X6693560Y2351532D01*
X6296761Y2351532D01*
X6292494Y2352446D01*
X6285077Y2355900D01*
X6272072Y2359914D01*
X6258610Y2362200D01*
X6244996Y2362657D01*
X6231432Y2361285D01*
X6218123Y2358136D01*
X6205423Y2353208D01*
X6193434Y2346655D01*
X6182461Y2338578D01*
X6172657Y2329078D01*
X6164224Y2318410D01*
X6157264Y2306675D01*
X6151930Y2294128D01*
X6148324Y2280970D01*
X6146546Y2267458D01*
X6146546Y2253792D01*
X6148324Y2240280D01*
X6151930Y2227122D01*
X6157264Y2214575D01*
X6164224Y2202840D01*
X6172657Y2192172D01*
X6182461Y2182672D01*
X6193434Y2174595D01*
X6205423Y2168042D01*
X6218123Y2163114D01*
X6231432Y2159965D01*
X6244996Y2158593D01*
X6258610Y2159050D01*
X6272072Y2161336D01*
X6285077Y2165350D01*
X6292392Y2168753D01*
X6296660Y2169668D01*
X6661200Y2169668D01*
X6665417Y2168753D01*
X6668922Y2166162D01*
X6670344Y2164435D01*
X6681266Y2154529D01*
X6693306Y2145995D01*
X6706311Y2138984D01*
X6720078Y2133650D01*
X6734352Y2130094D01*
G37*
G36*
X3704996Y2158593D02*
G01*
X3718610Y2159050D01*
X3732072Y2161336D01*
X3745077Y2165350D01*
X3757472Y2171090D01*
X3768953Y2178456D01*
X3779367Y2187244D01*
X3788511Y2197354D01*
X3796233Y2208580D01*
X3802379Y2220772D01*
X3806850Y2233676D01*
X3809542Y2247036D01*
X3810457Y2260600D01*
X3809542Y2274214D01*
X3806850Y2287574D01*
X3802379Y2300478D01*
X3796233Y2312670D01*
X3788511Y2323896D01*
X3779367Y2334006D01*
X3768953Y2342794D01*
X3757472Y2350160D01*
X3745077Y2355900D01*
X3732072Y2359914D01*
X3718610Y2362200D01*
X3704996Y2362657D01*
X3691432Y2361285D01*
X3678123Y2358136D01*
X3665423Y2353208D01*
X3653434Y2346655D01*
X3642461Y2338578D01*
X3632657Y2329078D01*
X3624224Y2318410D01*
X3617264Y2306675D01*
X3611930Y2294128D01*
X3608324Y2280970D01*
X3606546Y2267458D01*
X3606546Y2253792D01*
X3608324Y2240280D01*
X3611930Y2227122D01*
X3617264Y2214575D01*
X3624224Y2202840D01*
X3632657Y2192172D01*
X3642461Y2182672D01*
X3653434Y2174595D01*
X3665423Y2168042D01*
X3678123Y2163114D01*
X3691432Y2159965D01*
G37*
G36*
X976274Y2180031D02*
G01*
X1040841Y2180031D01*
X1040841Y2264613D01*
X1002741Y2264613D01*
X996442Y2263902D01*
X990955Y2261971D01*
X986078Y2258923D01*
X981964Y2254808D01*
X978916Y2249932D01*
X976985Y2244445D01*
X976274Y2238146D01*
G37*
G36*
X1143558Y2180031D02*
G01*
X1208074Y2180031D01*
X1208074Y2238146D01*
X1207363Y2244445D01*
X1205484Y2249932D01*
X1202385Y2254808D01*
X1198321Y2258923D01*
X1193393Y2261971D01*
X1187958Y2263902D01*
X1181608Y2264613D01*
X1143558Y2264613D01*
G37*
G36*
X3704996Y2412593D02*
G01*
X3718610Y2413050D01*
X3732072Y2415336D01*
X3745077Y2419350D01*
X3757472Y2425090D01*
X3768953Y2432456D01*
X3779367Y2441244D01*
X3788511Y2451354D01*
X3796233Y2462580D01*
X3802379Y2474772D01*
X3806850Y2487676D01*
X3809542Y2501036D01*
X3810457Y2514600D01*
X3809542Y2528214D01*
X3806850Y2541574D01*
X3802379Y2554478D01*
X3796233Y2566670D01*
X3788511Y2577896D01*
X3779367Y2588006D01*
X3768953Y2596794D01*
X3757472Y2604160D01*
X3745077Y2609900D01*
X3732072Y2613914D01*
X3718610Y2616200D01*
X3704996Y2616657D01*
X3691432Y2615285D01*
X3678123Y2612136D01*
X3665423Y2607208D01*
X3653434Y2600655D01*
X3642461Y2592578D01*
X3632657Y2583078D01*
X3624224Y2572410D01*
X3617264Y2560675D01*
X3611930Y2548128D01*
X3608324Y2534970D01*
X3606546Y2521458D01*
X3606546Y2507792D01*
X3608324Y2494280D01*
X3611930Y2481122D01*
X3617264Y2468575D01*
X3624224Y2456840D01*
X3632657Y2446172D01*
X3642461Y2436672D01*
X3653434Y2428595D01*
X3665423Y2422042D01*
X3678123Y2417114D01*
X3691432Y2413965D01*
G37*
G36*
X6244996Y2412593D02*
G01*
X6258610Y2413050D01*
X6272072Y2415336D01*
X6285077Y2419350D01*
X6297472Y2425090D01*
X6308953Y2432456D01*
X6319367Y2441244D01*
X6328511Y2451354D01*
X6336233Y2462580D01*
X6342380Y2474772D01*
X6346850Y2487676D01*
X6349542Y2501036D01*
X6350457Y2514600D01*
X6349542Y2528214D01*
X6346850Y2541574D01*
X6342380Y2554478D01*
X6336233Y2566670D01*
X6328511Y2577896D01*
X6319367Y2588006D01*
X6308953Y2596794D01*
X6297472Y2604160D01*
X6285077Y2609900D01*
X6272072Y2613914D01*
X6258610Y2616200D01*
X6244996Y2616657D01*
X6231432Y2615285D01*
X6218123Y2612136D01*
X6205423Y2607208D01*
X6193434Y2600655D01*
X6182461Y2592578D01*
X6172657Y2583078D01*
X6164224Y2572410D01*
X6157264Y2560675D01*
X6151930Y2548128D01*
X6148324Y2534970D01*
X6146546Y2521458D01*
X6146546Y2507792D01*
X6148324Y2494280D01*
X6151930Y2481122D01*
X6157264Y2468575D01*
X6164224Y2456840D01*
X6172657Y2446172D01*
X6182461Y2436672D01*
X6193434Y2428595D01*
X6205423Y2422042D01*
X6218123Y2417114D01*
X6231432Y2413965D01*
G37*
G36*
X8674100Y2449525D02*
G01*
X8688628Y2450439D01*
X8702903Y2453132D01*
X8716772Y2457653D01*
X8729929Y2463850D01*
X8742222Y2471623D01*
X8753449Y2480919D01*
X8763406Y2491536D01*
X8771940Y2503322D01*
X8778951Y2516073D01*
X8784336Y2529586D01*
X8787942Y2543708D01*
X8789771Y2558135D01*
X8789771Y2572664D01*
X8787942Y2587091D01*
X8784336Y2601214D01*
X8778951Y2614726D01*
X8771940Y2627477D01*
X8763406Y2639263D01*
X8753449Y2649880D01*
X8742222Y2659176D01*
X8729929Y2666949D01*
X8716772Y2673146D01*
X8702903Y2677668D01*
X8693607Y2679446D01*
X8690356Y2680665D01*
X8687663Y2682951D01*
X8685936Y2685948D01*
X8685377Y2689402D01*
X8685377Y3494227D01*
X8686241Y3498443D01*
X8688832Y3501898D01*
X8691981Y3504641D01*
X8976309Y3788968D01*
X8982811Y3796182D01*
X8984538Y3798366D01*
X8989974Y3806342D01*
X8995664Y3817365D01*
X8999778Y3829050D01*
X9000490Y3831742D01*
X9002623Y3843985D01*
X9003131Y3853687D01*
X9003131Y4001465D01*
X9003690Y4004919D01*
X9013748Y4020870D01*
X9019946Y4034028D01*
X9024416Y4047896D01*
X9027160Y4062171D01*
X9028074Y4076700D01*
X9027160Y4091228D01*
X9024416Y4105503D01*
X9019946Y4119372D01*
X9013748Y4132529D01*
X9005925Y4144822D01*
X8996680Y4156049D01*
X8986062Y4166006D01*
X8974277Y4174540D01*
X8961526Y4181551D01*
X8948013Y4186936D01*
X8933891Y4190542D01*
X8919464Y4192371D01*
X8904935Y4192371D01*
X8890457Y4190542D01*
X8876385Y4186936D01*
X8862872Y4181551D01*
X8850122Y4174540D01*
X8838336Y4166006D01*
X8827719Y4156049D01*
X8818422Y4144822D01*
X8810650Y4132529D01*
X8804452Y4119372D01*
X8799931Y4105503D01*
X8797239Y4091228D01*
X8796324Y4076700D01*
X8797239Y4062171D01*
X8799931Y4047896D01*
X8804452Y4034028D01*
X8810650Y4020870D01*
X8820708Y4004919D01*
X8821267Y4001465D01*
X8821267Y3895293D01*
X8820505Y3891381D01*
X8818321Y3888130D01*
X8592769Y3662578D01*
X8589518Y3660394D01*
X8585606Y3659632D01*
X8531504Y3659632D01*
X8527440Y3660444D01*
X8524036Y3662832D01*
X8521903Y3666388D01*
X8520684Y3669893D01*
X8517585Y3674821D01*
X8513521Y3678885D01*
X8508593Y3681984D01*
X8503158Y3683914D01*
X8496808Y3684625D01*
X8317992Y3684625D01*
X8311642Y3683914D01*
X8306206Y3681984D01*
X8301278Y3678885D01*
X8297214Y3674821D01*
X8294116Y3669893D01*
X8292185Y3664458D01*
X8291474Y3658108D01*
X8291474Y3479292D01*
X8292185Y3472942D01*
X8294116Y3467506D01*
X8297214Y3462578D01*
X8301278Y3458514D01*
X8306206Y3455415D01*
X8311642Y3453485D01*
X8317992Y3452774D01*
X8493353Y3452774D01*
X8497265Y3452012D01*
X8500567Y3449828D01*
X8502751Y3446526D01*
X8503513Y3442614D01*
X8503513Y2645308D01*
X8504021Y2635605D01*
X8506155Y2623362D01*
X8506866Y2620721D01*
X8510981Y2608986D01*
X8516670Y2597962D01*
X8522106Y2589987D01*
X8523833Y2587802D01*
X8530336Y2580589D01*
X8556802Y2554122D01*
X8558733Y2551430D01*
X8559698Y2548229D01*
X8560257Y2543708D01*
X8563864Y2529586D01*
X8569248Y2516073D01*
X8576259Y2503322D01*
X8584793Y2491536D01*
X8594750Y2480919D01*
X8605977Y2471623D01*
X8618270Y2463850D01*
X8631428Y2457653D01*
X8645296Y2453132D01*
X8659571Y2450439D01*
G37*
G36*
X6244996Y2666593D02*
G01*
X6258610Y2667050D01*
X6272072Y2669336D01*
X6285077Y2673350D01*
X6297472Y2679090D01*
X6308953Y2686456D01*
X6319367Y2695244D01*
X6328511Y2705354D01*
X6336233Y2716580D01*
X6342380Y2728772D01*
X6346850Y2741676D01*
X6349542Y2755036D01*
X6350457Y2768600D01*
X6349542Y2782214D01*
X6346850Y2795574D01*
X6342380Y2808478D01*
X6336233Y2820670D01*
X6328511Y2831896D01*
X6319367Y2842006D01*
X6308953Y2850794D01*
X6297472Y2858160D01*
X6285077Y2863900D01*
X6272072Y2867914D01*
X6258610Y2870200D01*
X6244996Y2870657D01*
X6231432Y2869285D01*
X6218123Y2866136D01*
X6205423Y2861208D01*
X6193434Y2854655D01*
X6182461Y2846578D01*
X6172657Y2837078D01*
X6164224Y2826410D01*
X6157264Y2814675D01*
X6151930Y2802128D01*
X6148324Y2788970D01*
X6146546Y2775458D01*
X6146546Y2761792D01*
X6148324Y2748280D01*
X6151930Y2735122D01*
X6157264Y2722575D01*
X6164224Y2710840D01*
X6172657Y2700172D01*
X6182461Y2690672D01*
X6193434Y2682595D01*
X6205423Y2676042D01*
X6218123Y2671114D01*
X6231432Y2667965D01*
G37*
G36*
X3704996Y2666593D02*
G01*
X3718610Y2667050D01*
X3732072Y2669336D01*
X3745077Y2673350D01*
X3757472Y2679090D01*
X3768953Y2686456D01*
X3779367Y2695244D01*
X3788511Y2705354D01*
X3796233Y2716580D01*
X3802379Y2728772D01*
X3806850Y2741676D01*
X3809542Y2755036D01*
X3810457Y2768600D01*
X3809542Y2782214D01*
X3806850Y2795574D01*
X3802379Y2808478D01*
X3796233Y2820670D01*
X3788511Y2831896D01*
X3779367Y2842006D01*
X3768953Y2850794D01*
X3757472Y2858160D01*
X3745077Y2863900D01*
X3732072Y2867914D01*
X3718610Y2870200D01*
X3704996Y2870657D01*
X3691432Y2869285D01*
X3678123Y2866136D01*
X3665423Y2861208D01*
X3653434Y2854655D01*
X3642461Y2846578D01*
X3632657Y2837078D01*
X3624224Y2826410D01*
X3617264Y2814675D01*
X3611930Y2802128D01*
X3608324Y2788970D01*
X3606546Y2775458D01*
X3606546Y2761792D01*
X3608324Y2748280D01*
X3611930Y2735122D01*
X3617264Y2722575D01*
X3624224Y2710840D01*
X3632657Y2700172D01*
X3642461Y2690672D01*
X3653434Y2682595D01*
X3665423Y2676042D01*
X3678123Y2671114D01*
X3691432Y2667965D01*
G37*
G36*
X1916836Y2915107D02*
G01*
X1917852Y2915513D01*
X1928825Y2921863D01*
X1938832Y2929636D01*
X1947621Y2938780D01*
X1955088Y2949041D01*
X1960016Y2958338D01*
X1916836Y2958338D01*
G37*
G36*
X1839163Y2915259D02*
G01*
X1839163Y2958338D01*
X1796034Y2958338D01*
X1797761Y2954528D01*
X1804466Y2943758D01*
X1812645Y2934055D01*
X1822043Y2925572D01*
X1832559Y2918510D01*
G37*
G36*
X6244996Y2920593D02*
G01*
X6258610Y2921050D01*
X6272072Y2923336D01*
X6285077Y2927350D01*
X6297472Y2933090D01*
X6308953Y2940456D01*
X6319367Y2949244D01*
X6328511Y2959354D01*
X6336233Y2970580D01*
X6342380Y2982772D01*
X6346850Y2995676D01*
X6349542Y3009036D01*
X6350457Y3022600D01*
X6349542Y3036214D01*
X6346850Y3049574D01*
X6342380Y3062478D01*
X6336233Y3074670D01*
X6328511Y3085896D01*
X6319367Y3096006D01*
X6308953Y3104794D01*
X6297472Y3112160D01*
X6285077Y3117900D01*
X6272072Y3121914D01*
X6258610Y3124200D01*
X6244996Y3124657D01*
X6231432Y3123285D01*
X6218123Y3120136D01*
X6205423Y3115208D01*
X6193434Y3108655D01*
X6182461Y3100578D01*
X6172657Y3091078D01*
X6164224Y3080410D01*
X6157264Y3068675D01*
X6151930Y3056128D01*
X6148324Y3042970D01*
X6146546Y3029458D01*
X6146546Y3015792D01*
X6148324Y3002280D01*
X6151930Y2989122D01*
X6157264Y2976575D01*
X6164224Y2964840D01*
X6172657Y2954172D01*
X6182461Y2944672D01*
X6193434Y2936595D01*
X6205423Y2930042D01*
X6218123Y2925114D01*
X6231432Y2921965D01*
G37*
G36*
X3704996Y2920593D02*
G01*
X3718610Y2921050D01*
X3732072Y2923336D01*
X3745077Y2927350D01*
X3757472Y2933090D01*
X3768953Y2940456D01*
X3779367Y2949244D01*
X3788511Y2959354D01*
X3796233Y2970580D01*
X3802379Y2982772D01*
X3806850Y2995676D01*
X3809542Y3009036D01*
X3810457Y3022600D01*
X3809542Y3036214D01*
X3806850Y3049574D01*
X3802379Y3062478D01*
X3796233Y3074670D01*
X3788511Y3085896D01*
X3779367Y3096006D01*
X3768953Y3104794D01*
X3757472Y3112160D01*
X3745077Y3117900D01*
X3732072Y3121914D01*
X3718610Y3124200D01*
X3704996Y3124657D01*
X3691432Y3123285D01*
X3678123Y3120136D01*
X3665423Y3115208D01*
X3653434Y3108655D01*
X3642461Y3100578D01*
X3632657Y3091078D01*
X3624224Y3080410D01*
X3617264Y3068675D01*
X3611930Y3056128D01*
X3608324Y3042970D01*
X3606546Y3029458D01*
X3606546Y3015792D01*
X3608324Y3002280D01*
X3611930Y2989122D01*
X3617264Y2976575D01*
X3624224Y2964840D01*
X3632657Y2954172D01*
X3642461Y2944672D01*
X3653434Y2936595D01*
X3665423Y2930042D01*
X3678123Y2925114D01*
X3691432Y2921965D01*
G37*
G36*
X1796034Y3036062D02*
G01*
X1839163Y3036062D01*
X1839163Y3079140D01*
X1832559Y3075889D01*
X1822043Y3068828D01*
X1812645Y3060344D01*
X1804466Y3050641D01*
X1797761Y3039872D01*
G37*
G36*
X1916836Y3036062D02*
G01*
X1960016Y3036062D01*
X1955088Y3045358D01*
X1947621Y3055620D01*
X1938832Y3064764D01*
X1928825Y3072536D01*
X1917852Y3078886D01*
X1916836Y3079292D01*
G37*
G36*
X6244996Y3174593D02*
G01*
X6258610Y3175050D01*
X6272072Y3177336D01*
X6285077Y3181350D01*
X6297472Y3187090D01*
X6308953Y3194456D01*
X6319367Y3203244D01*
X6328511Y3213354D01*
X6336233Y3224580D01*
X6342380Y3236772D01*
X6346850Y3249676D01*
X6349542Y3263036D01*
X6350457Y3276600D01*
X6349542Y3290214D01*
X6346850Y3303574D01*
X6342380Y3316478D01*
X6336233Y3328670D01*
X6328511Y3339896D01*
X6319367Y3350006D01*
X6308953Y3358794D01*
X6297472Y3366160D01*
X6285077Y3371900D01*
X6272072Y3375914D01*
X6258610Y3378200D01*
X6244996Y3378657D01*
X6231432Y3377285D01*
X6218123Y3374136D01*
X6205423Y3369208D01*
X6193434Y3362655D01*
X6182461Y3354578D01*
X6172657Y3345078D01*
X6164224Y3334410D01*
X6157264Y3322675D01*
X6151930Y3310128D01*
X6148324Y3296970D01*
X6146546Y3283458D01*
X6146546Y3269792D01*
X6148324Y3256279D01*
X6151930Y3243122D01*
X6157264Y3230575D01*
X6164224Y3218840D01*
X6172657Y3208172D01*
X6182461Y3198672D01*
X6193434Y3190595D01*
X6205423Y3184042D01*
X6218123Y3179114D01*
X6231432Y3175965D01*
G37*
G36*
X3704996Y3174593D02*
G01*
X3718610Y3175050D01*
X3732072Y3177336D01*
X3745077Y3181350D01*
X3757472Y3187090D01*
X3768953Y3194456D01*
X3779367Y3203244D01*
X3788511Y3213354D01*
X3796233Y3224580D01*
X3802379Y3236772D01*
X3806850Y3249676D01*
X3809542Y3263036D01*
X3810457Y3276600D01*
X3809542Y3290214D01*
X3806850Y3303574D01*
X3802379Y3316478D01*
X3796233Y3328670D01*
X3788511Y3339896D01*
X3779367Y3350006D01*
X3768953Y3358794D01*
X3757472Y3366160D01*
X3745077Y3371900D01*
X3732072Y3375914D01*
X3718610Y3378200D01*
X3704996Y3378657D01*
X3691432Y3377285D01*
X3678123Y3374136D01*
X3665423Y3369208D01*
X3653434Y3362655D01*
X3642461Y3354578D01*
X3632657Y3345078D01*
X3624224Y3334410D01*
X3617264Y3322675D01*
X3611930Y3310128D01*
X3608324Y3296970D01*
X3606546Y3283458D01*
X3606546Y3269792D01*
X3608324Y3256279D01*
X3611930Y3243122D01*
X3617264Y3230575D01*
X3624224Y3218840D01*
X3632657Y3208172D01*
X3642461Y3198672D01*
X3653434Y3190595D01*
X3665423Y3184042D01*
X3678123Y3179114D01*
X3691432Y3175965D01*
G37*
G36*
X6244996Y3428593D02*
G01*
X6258610Y3429050D01*
X6272072Y3431336D01*
X6285077Y3435350D01*
X6297472Y3441090D01*
X6308953Y3448456D01*
X6319367Y3457244D01*
X6328511Y3467354D01*
X6336233Y3478580D01*
X6342380Y3490772D01*
X6346850Y3503676D01*
X6349542Y3517036D01*
X6350457Y3530600D01*
X6349542Y3544214D01*
X6346850Y3557574D01*
X6342380Y3570478D01*
X6336233Y3582670D01*
X6328511Y3593896D01*
X6319367Y3604006D01*
X6308953Y3612794D01*
X6297472Y3620160D01*
X6285077Y3625900D01*
X6272072Y3629914D01*
X6258610Y3632200D01*
X6244996Y3632657D01*
X6231432Y3631285D01*
X6218123Y3628136D01*
X6205423Y3623208D01*
X6193434Y3616655D01*
X6182461Y3608578D01*
X6172657Y3599078D01*
X6164224Y3588410D01*
X6157264Y3576675D01*
X6151930Y3564128D01*
X6148324Y3550970D01*
X6146546Y3537458D01*
X6146546Y3523792D01*
X6148324Y3510279D01*
X6151930Y3497122D01*
X6157264Y3484575D01*
X6164224Y3472840D01*
X6172657Y3462172D01*
X6182461Y3452672D01*
X6193434Y3444595D01*
X6205423Y3438042D01*
X6218123Y3433114D01*
X6231432Y3429965D01*
G37*
G36*
X3704996Y3428593D02*
G01*
X3718610Y3429050D01*
X3732072Y3431336D01*
X3745077Y3435350D01*
X3757472Y3441090D01*
X3768953Y3448456D01*
X3779367Y3457244D01*
X3788511Y3467354D01*
X3796233Y3478580D01*
X3802379Y3490772D01*
X3806850Y3503676D01*
X3809542Y3517036D01*
X3810457Y3530600D01*
X3809542Y3544214D01*
X3806850Y3557574D01*
X3802379Y3570478D01*
X3796233Y3582670D01*
X3788511Y3593896D01*
X3779367Y3604006D01*
X3768953Y3612794D01*
X3757472Y3620160D01*
X3745077Y3625900D01*
X3732072Y3629914D01*
X3718610Y3632200D01*
X3704996Y3632657D01*
X3691432Y3631285D01*
X3678123Y3628136D01*
X3665423Y3623208D01*
X3653434Y3616655D01*
X3642461Y3608578D01*
X3632657Y3599078D01*
X3624224Y3588410D01*
X3617264Y3576675D01*
X3611930Y3564128D01*
X3608324Y3550970D01*
X3606546Y3537458D01*
X3606546Y3523792D01*
X3608324Y3510279D01*
X3611930Y3497122D01*
X3617264Y3484575D01*
X3624224Y3472840D01*
X3632657Y3462172D01*
X3642461Y3452672D01*
X3653434Y3444595D01*
X3665423Y3438042D01*
X3678123Y3433114D01*
X3691432Y3429965D01*
G37*
G36*
X610463Y3486607D02*
G01*
X610463Y3529837D01*
X567283Y3529837D01*
X572211Y3520541D01*
X579678Y3510279D01*
X588467Y3501136D01*
X598474Y3493363D01*
X609447Y3487013D01*
G37*
G36*
X688136Y3486759D02*
G01*
X694740Y3490010D01*
X705256Y3497072D01*
X714654Y3505555D01*
X722833Y3515258D01*
X729538Y3526028D01*
X731266Y3529837D01*
X688136Y3529837D01*
G37*
G36*
X688136Y3607562D02*
G01*
X731266Y3607562D01*
X729538Y3611372D01*
X722833Y3622141D01*
X714654Y3631844D01*
X705256Y3640328D01*
X694740Y3647389D01*
X688136Y3650640D01*
G37*
G36*
X567283Y3607562D02*
G01*
X610463Y3607562D01*
X610463Y3650792D01*
X609447Y3650386D01*
X598474Y3644036D01*
X588467Y3636264D01*
X579678Y3627120D01*
X572211Y3616858D01*
G37*
G36*
X6600291Y3677462D02*
G01*
X6615074Y3677920D01*
X6629653Y3680206D01*
X6643827Y3684270D01*
X6657441Y3690010D01*
X6670192Y3697376D01*
X6681978Y3706266D01*
X6692595Y3716528D01*
X6701840Y3728059D01*
X6709613Y3740607D01*
X6715759Y3754018D01*
X6720230Y3768039D01*
X6722973Y3782568D01*
X6723888Y3797300D01*
X6722973Y3812032D01*
X6720230Y3826560D01*
X6715759Y3840581D01*
X6709613Y3853992D01*
X6701840Y3866540D01*
X6692595Y3878072D01*
X6681978Y3888333D01*
X6670192Y3897223D01*
X6657441Y3904589D01*
X6643827Y3910329D01*
X6629653Y3914394D01*
X6615074Y3916679D01*
X6600291Y3917086D01*
X6585610Y3915765D01*
X6571183Y3912615D01*
X6557264Y3907688D01*
X6544056Y3901084D01*
X6531762Y3892956D01*
X6520535Y3883355D01*
X6516420Y3878834D01*
X6513017Y3876395D01*
X6508902Y3875532D01*
X6296761Y3875532D01*
X6292494Y3876446D01*
X6285077Y3879900D01*
X6272072Y3883914D01*
X6258610Y3886200D01*
X6244996Y3886657D01*
X6231432Y3885285D01*
X6218123Y3882136D01*
X6205423Y3877208D01*
X6193434Y3870655D01*
X6182461Y3862578D01*
X6172657Y3853078D01*
X6164224Y3842410D01*
X6157264Y3830675D01*
X6151930Y3818128D01*
X6148324Y3804970D01*
X6146546Y3791458D01*
X6146546Y3777792D01*
X6148324Y3764279D01*
X6151930Y3751122D01*
X6157264Y3738575D01*
X6164224Y3726840D01*
X6172657Y3716172D01*
X6182461Y3706672D01*
X6193434Y3698595D01*
X6205423Y3692042D01*
X6218123Y3687114D01*
X6231432Y3683965D01*
X6244996Y3682593D01*
X6258610Y3683050D01*
X6272072Y3685336D01*
X6285077Y3689350D01*
X6292392Y3692753D01*
X6296660Y3693668D01*
X6541262Y3693668D01*
X6545783Y3692651D01*
X6557264Y3686911D01*
X6571183Y3681984D01*
X6585610Y3678834D01*
G37*
G36*
X7616291Y3677462D02*
G01*
X7631074Y3677920D01*
X7645653Y3680206D01*
X7659827Y3684270D01*
X7673441Y3690010D01*
X7686192Y3697376D01*
X7695438Y3704336D01*
X7698333Y3705860D01*
X7701534Y3706368D01*
X8381644Y3706368D01*
X8394344Y3707231D01*
X8399627Y3707028D01*
X8414664Y3707028D01*
X8429091Y3708857D01*
X8443214Y3712464D01*
X8456726Y3717848D01*
X8469477Y3724859D01*
X8481263Y3733393D01*
X8491880Y3743350D01*
X8501176Y3754577D01*
X8508949Y3766870D01*
X8515146Y3780028D01*
X8519668Y3793896D01*
X8522360Y3808171D01*
X8523274Y3822700D01*
X8522360Y3837228D01*
X8519668Y3851503D01*
X8515146Y3865372D01*
X8508949Y3878529D01*
X8501176Y3890822D01*
X8491880Y3902049D01*
X8481263Y3912006D01*
X8469477Y3920540D01*
X8456726Y3927551D01*
X8443214Y3932936D01*
X8429091Y3936542D01*
X8414664Y3938371D01*
X8400135Y3938371D01*
X8385708Y3936542D01*
X8371586Y3932936D01*
X8358073Y3927551D01*
X8345322Y3920540D01*
X8333536Y3912006D01*
X8322919Y3902049D01*
X8314537Y3891889D01*
X8311032Y3889197D01*
X8306714Y3888232D01*
X7701534Y3888232D01*
X7698333Y3888740D01*
X7695438Y3890264D01*
X7686192Y3897223D01*
X7673441Y3904589D01*
X7659827Y3910329D01*
X7645653Y3914394D01*
X7631074Y3916679D01*
X7616291Y3917086D01*
X7601610Y3915765D01*
X7587183Y3912615D01*
X7573264Y3907688D01*
X7560056Y3901084D01*
X7547762Y3892956D01*
X7536535Y3883355D01*
X7526629Y3872433D01*
X7518095Y3860393D01*
X7511084Y3847388D01*
X7505750Y3833622D01*
X7502194Y3819347D01*
X7500366Y3804665D01*
X7500366Y3789934D01*
X7502194Y3775252D01*
X7505750Y3760978D01*
X7511084Y3747211D01*
X7518095Y3734206D01*
X7526629Y3722166D01*
X7536535Y3711244D01*
X7547762Y3701643D01*
X7560056Y3693515D01*
X7573264Y3686911D01*
X7587183Y3681984D01*
X7601610Y3678834D01*
G37*
G36*
X3704996Y3682593D02*
G01*
X3718610Y3683050D01*
X3732072Y3685336D01*
X3745077Y3689350D01*
X3757472Y3695090D01*
X3768953Y3702456D01*
X3779367Y3711244D01*
X3788511Y3721354D01*
X3796233Y3732580D01*
X3802379Y3744772D01*
X3806850Y3757676D01*
X3809542Y3771036D01*
X3810457Y3784600D01*
X3809542Y3798214D01*
X3806850Y3811574D01*
X3802379Y3824478D01*
X3796233Y3836670D01*
X3788511Y3847896D01*
X3779367Y3858006D01*
X3768953Y3866794D01*
X3757472Y3874160D01*
X3745077Y3879900D01*
X3732072Y3883914D01*
X3718610Y3886200D01*
X3704996Y3886657D01*
X3691432Y3885285D01*
X3678123Y3882136D01*
X3665423Y3877208D01*
X3653434Y3870655D01*
X3642461Y3862578D01*
X3632657Y3853078D01*
X3624224Y3842410D01*
X3617264Y3830675D01*
X3611930Y3818128D01*
X3608324Y3804970D01*
X3606546Y3791458D01*
X3606546Y3777792D01*
X3608324Y3764279D01*
X3611930Y3751122D01*
X3617264Y3738575D01*
X3624224Y3726840D01*
X3632657Y3716172D01*
X3642461Y3706672D01*
X3653434Y3698595D01*
X3665423Y3692042D01*
X3678123Y3687114D01*
X3691432Y3683965D01*
G37*
G36*
X6244996Y3936593D02*
G01*
X6258610Y3937050D01*
X6272072Y3939336D01*
X6285077Y3943350D01*
X6297472Y3949090D01*
X6308953Y3956456D01*
X6319367Y3965244D01*
X6328511Y3975354D01*
X6336233Y3986580D01*
X6342380Y3998772D01*
X6346850Y4011676D01*
X6349542Y4025036D01*
X6350457Y4038600D01*
X6349542Y4052214D01*
X6346850Y4065574D01*
X6342380Y4078478D01*
X6336233Y4090670D01*
X6328511Y4101896D01*
X6319367Y4112006D01*
X6308953Y4120794D01*
X6297472Y4128160D01*
X6285077Y4133900D01*
X6272072Y4137914D01*
X6258610Y4140200D01*
X6244996Y4140657D01*
X6231432Y4139285D01*
X6218123Y4136136D01*
X6205423Y4131208D01*
X6193434Y4124655D01*
X6182461Y4116578D01*
X6172657Y4107078D01*
X6164224Y4096410D01*
X6157264Y4084675D01*
X6151930Y4072128D01*
X6148324Y4058970D01*
X6146546Y4045458D01*
X6146546Y4031792D01*
X6148324Y4018279D01*
X6151930Y4005122D01*
X6157264Y3992575D01*
X6164224Y3980840D01*
X6172657Y3970172D01*
X6182461Y3960672D01*
X6193434Y3952595D01*
X6205423Y3946042D01*
X6218123Y3941114D01*
X6231432Y3937965D01*
G37*
G36*
X3704996Y3936593D02*
G01*
X3718610Y3937050D01*
X3732072Y3939336D01*
X3745077Y3943350D01*
X3757472Y3949090D01*
X3768953Y3956456D01*
X3779367Y3965244D01*
X3788511Y3975354D01*
X3796233Y3986580D01*
X3802379Y3998772D01*
X3806850Y4011676D01*
X3809542Y4025036D01*
X3810457Y4038600D01*
X3809542Y4052214D01*
X3806850Y4065574D01*
X3802379Y4078478D01*
X3796233Y4090670D01*
X3788511Y4101896D01*
X3779367Y4112006D01*
X3768953Y4120794D01*
X3757472Y4128160D01*
X3745077Y4133900D01*
X3732072Y4137914D01*
X3718610Y4140200D01*
X3704996Y4140657D01*
X3691432Y4139285D01*
X3678123Y4136136D01*
X3665423Y4131208D01*
X3653434Y4124655D01*
X3642461Y4116578D01*
X3632657Y4107078D01*
X3624224Y4096410D01*
X3617264Y4084675D01*
X3611930Y4072128D01*
X3608324Y4058970D01*
X3606546Y4045458D01*
X3606546Y4031792D01*
X3608324Y4018279D01*
X3611930Y4005122D01*
X3617264Y3992575D01*
X3624224Y3980840D01*
X3632657Y3970172D01*
X3642461Y3960672D01*
X3653434Y3952595D01*
X3665423Y3946042D01*
X3678123Y3941114D01*
X3691432Y3937965D01*
G37*
G36*
X8458758Y3972966D02*
G01*
X8469477Y3978859D01*
X8481263Y3987393D01*
X8491880Y3997350D01*
X8501176Y4008577D01*
X8508949Y4020870D01*
X8511082Y4025341D01*
X8458758Y4025341D01*
G37*
G36*
X8356041Y3972966D02*
G01*
X8356041Y4025341D01*
X8303717Y4025341D01*
X8305850Y4020870D01*
X8313623Y4008577D01*
X8322919Y3997350D01*
X8333536Y3987393D01*
X8345322Y3978859D01*
G37*
G36*
X8458758Y4128058D02*
G01*
X8511082Y4128058D01*
X8508949Y4132529D01*
X8501176Y4144822D01*
X8491880Y4156049D01*
X8481263Y4166006D01*
X8469477Y4174540D01*
X8458758Y4180433D01*
G37*
G36*
X8303717Y4128058D02*
G01*
X8356041Y4128058D01*
X8356041Y4180433D01*
X8345322Y4174540D01*
X8333536Y4166006D01*
X8322919Y4156049D01*
X8313623Y4144822D01*
X8305850Y4132529D01*
G37*
G36*
X6244996Y4190593D02*
G01*
X6258610Y4191050D01*
X6272072Y4193336D01*
X6285077Y4197350D01*
X6297472Y4203090D01*
X6308953Y4210456D01*
X6319367Y4219244D01*
X6328511Y4229354D01*
X6336233Y4240580D01*
X6342380Y4252772D01*
X6346850Y4265676D01*
X6349542Y4279036D01*
X6350457Y4292600D01*
X6349542Y4306214D01*
X6346850Y4319574D01*
X6342380Y4332478D01*
X6336233Y4344670D01*
X6328511Y4355896D01*
X6319367Y4366006D01*
X6308953Y4374794D01*
X6297472Y4382160D01*
X6285077Y4387900D01*
X6279946Y4389475D01*
X6275984Y4391812D01*
X6238849Y4427118D01*
X6236563Y4430318D01*
X6235700Y4434179D01*
X6236360Y4438091D01*
X6238443Y4441444D01*
X6241643Y4443730D01*
X6245504Y4444593D01*
X6258610Y4445050D01*
X6272072Y4447336D01*
X6285077Y4451350D01*
X6297472Y4457090D01*
X6308953Y4464456D01*
X6319367Y4473244D01*
X6328511Y4483354D01*
X6336233Y4494580D01*
X6342380Y4506772D01*
X6346850Y4519676D01*
X6349542Y4533036D01*
X6350457Y4546600D01*
X6349542Y4560214D01*
X6346850Y4573574D01*
X6342380Y4586478D01*
X6336233Y4598670D01*
X6328511Y4609896D01*
X6319367Y4620006D01*
X6308953Y4628794D01*
X6297472Y4636160D01*
X6285077Y4641900D01*
X6272072Y4645914D01*
X6258610Y4648200D01*
X6244996Y4648657D01*
X6231432Y4647285D01*
X6218123Y4644136D01*
X6205423Y4639208D01*
X6193434Y4632655D01*
X6182461Y4624578D01*
X6172657Y4615078D01*
X6164224Y4604410D01*
X6157264Y4592675D01*
X6151930Y4580128D01*
X6148324Y4566970D01*
X6146546Y4553458D01*
X6146546Y4539691D01*
X6146241Y4535576D01*
X6144310Y4531868D01*
X6141110Y4529277D01*
X6137097Y4528210D01*
X6132982Y4528769D01*
X6129477Y4530953D01*
X6088481Y4569917D01*
X6086144Y4573270D01*
X6085332Y4577283D01*
X6085332Y5403900D01*
X6086144Y5408015D01*
X6088583Y5411419D01*
X8026857Y7193127D01*
X8029752Y7195007D01*
X8033156Y7195820D01*
X8036610Y7195413D01*
X8053730Y7185914D01*
X8067141Y7180630D01*
X8081111Y7177024D01*
X8095386Y7175246D01*
X8109813Y7175246D01*
X8124088Y7177024D01*
X8138058Y7180630D01*
X8151469Y7185914D01*
X8164118Y7192873D01*
X8175752Y7201357D01*
X8186267Y7211212D01*
X8195462Y7222337D01*
X8203184Y7234478D01*
X8209330Y7247534D01*
X8213801Y7261250D01*
X8216493Y7275423D01*
X8217408Y7289800D01*
X8216493Y7304176D01*
X8213801Y7318349D01*
X8209330Y7332065D01*
X8203184Y7345121D01*
X8195462Y7357262D01*
X8186267Y7368387D01*
X8175752Y7378242D01*
X8164118Y7386726D01*
X8151469Y7393686D01*
X8138058Y7398969D01*
X8124088Y7402575D01*
X8109813Y7404353D01*
X8095386Y7404353D01*
X8081111Y7402575D01*
X8067141Y7398969D01*
X8053730Y7393686D01*
X8041081Y7386726D01*
X8035493Y7382662D01*
X8032648Y7381189D01*
X8029498Y7380731D01*
X7997850Y7380731D01*
X7992211Y7380528D01*
X7985252Y7379868D01*
X7979918Y7378953D01*
X7973110Y7377328D01*
X7967929Y7375702D01*
X7961426Y7373162D01*
X7956550Y7370876D01*
X7950403Y7367422D01*
X7945881Y7364475D01*
X7940294Y7360310D01*
X7936026Y7356602D01*
X5933135Y5515457D01*
X5924346Y5506212D01*
X5917133Y5496153D01*
X5911342Y5485180D01*
X5907074Y5473496D01*
X5904484Y5461406D01*
X5903468Y5447944D01*
X5903468Y4534204D01*
X5904280Y4522317D01*
X5906668Y4510125D01*
X5910732Y4498390D01*
X5916371Y4487316D01*
X5923432Y4477156D01*
X5932017Y4467758D01*
X6150610Y4260138D01*
X6152997Y4256735D01*
X6157264Y4246575D01*
X6164224Y4234840D01*
X6172657Y4224172D01*
X6182461Y4214672D01*
X6193434Y4206595D01*
X6205423Y4200042D01*
X6218123Y4195114D01*
X6231432Y4191965D01*
G37*
G36*
X3704996Y4190593D02*
G01*
X3718610Y4191050D01*
X3732072Y4193336D01*
X3745077Y4197350D01*
X3753713Y4201363D01*
X3757879Y4202328D01*
X4712614Y4214418D01*
X4721606Y4214926D01*
X4725060Y4215384D01*
X4733798Y4217111D01*
X4737201Y4218025D01*
X4745583Y4220972D01*
X4748834Y4222343D01*
X4756759Y4226356D01*
X4759807Y4228185D01*
X4767122Y4233214D01*
X4769866Y4235450D01*
X4776419Y4241444D01*
X4778806Y4243984D01*
X4784496Y4250842D01*
X4786528Y4253687D01*
X4791303Y4261358D01*
X6174790Y6751726D01*
X6176416Y6753859D01*
X6178550Y6755536D01*
X7792923Y7706664D01*
X7803235Y7713675D01*
X7810652Y7720177D01*
X7818881Y7729474D01*
X7820406Y7731506D01*
X7825790Y7739786D01*
X7827009Y7741970D01*
X7831226Y7750911D01*
X7835087Y7762697D01*
X7835696Y7765186D01*
X7837322Y7774889D01*
X7837576Y7777429D01*
X7837881Y7787386D01*
X7827416Y8258911D01*
X7828127Y8262874D01*
X7830312Y8266226D01*
X7833614Y8268512D01*
X7837576Y8269274D01*
X8285784Y8269274D01*
X8289696Y8268512D01*
X8293303Y8265972D01*
X8305292Y8256625D01*
X8318296Y8248751D01*
X8332165Y8242503D01*
X8346643Y8237981D01*
X8361629Y8235238D01*
X8371941Y8234629D01*
X8374634Y8234070D01*
X8377072Y8232851D01*
X8384133Y8228025D01*
X8395157Y8222335D01*
X8406841Y8218220D01*
X8409533Y8217509D01*
X8421725Y8215375D01*
X8431479Y8214868D01*
X8947912Y8214868D01*
X8951010Y8214410D01*
X8953804Y8212988D01*
X8966606Y8203895D01*
X8979611Y8196884D01*
X8993378Y8191550D01*
X9007652Y8187994D01*
X9022334Y8186166D01*
X9037066Y8186166D01*
X9051747Y8187994D01*
X9066022Y8191550D01*
X9079788Y8196884D01*
X9092793Y8203895D01*
X9104833Y8212429D01*
X9115755Y8222335D01*
X9125356Y8233562D01*
X9133484Y8245856D01*
X9140088Y8259064D01*
X9145016Y8272983D01*
X9148165Y8287410D01*
X9149537Y8302091D01*
X9149080Y8316874D01*
X9146794Y8331453D01*
X9142730Y8345627D01*
X9136989Y8359241D01*
X9129623Y8371992D01*
X9120733Y8383778D01*
X9110472Y8394395D01*
X9098940Y8403640D01*
X9086392Y8411413D01*
X9072981Y8417560D01*
X9058960Y8422030D01*
X9044432Y8424773D01*
X9029700Y8425688D01*
X9014968Y8424773D01*
X9000439Y8422030D01*
X8986418Y8417560D01*
X8973007Y8411413D01*
X8960459Y8403640D01*
X8954617Y8398967D01*
X8951620Y8397290D01*
X8948267Y8396732D01*
X8504529Y8396732D01*
X8500364Y8397595D01*
X8496909Y8400135D01*
X8494522Y8404860D01*
X8488273Y8418728D01*
X8480399Y8431733D01*
X8471001Y8443671D01*
X8460282Y8454440D01*
X8448294Y8463788D01*
X8435289Y8471662D01*
X8421420Y8477910D01*
X8406942Y8482431D01*
X8391956Y8485174D01*
X8376818Y8486089D01*
X8361629Y8485174D01*
X8346643Y8482431D01*
X8332165Y8477910D01*
X8318296Y8471662D01*
X8305292Y8463788D01*
X8292947Y8454085D01*
X8289696Y8451900D01*
X8285784Y8451138D01*
X7817815Y8451138D01*
X7813954Y8451900D01*
X7810296Y8454440D01*
X7798308Y8463788D01*
X7785303Y8471662D01*
X7771434Y8477910D01*
X7756956Y8482431D01*
X7741970Y8485174D01*
X7726832Y8486089D01*
X7711643Y8485174D01*
X7696657Y8482431D01*
X7682179Y8477910D01*
X7668310Y8471662D01*
X7655306Y8463788D01*
X7643317Y8454440D01*
X7632598Y8443671D01*
X7623200Y8431733D01*
X7615326Y8418728D01*
X7609078Y8404860D01*
X7604556Y8390331D01*
X7601813Y8375396D01*
X7600899Y8360206D01*
X7601813Y8345017D01*
X7604556Y8330082D01*
X7609078Y8315553D01*
X7615326Y8301685D01*
X7623200Y8288680D01*
X7632598Y8276742D01*
X7642555Y8266734D01*
X7644688Y8263585D01*
X7645501Y8259775D01*
X7654798Y7842300D01*
X7654239Y7838795D01*
X7652512Y7835696D01*
X7649819Y7833359D01*
X6062827Y6898386D01*
X6053429Y6892036D01*
X6044082Y6883857D01*
X6036005Y6874459D01*
X6029045Y6863740D01*
X4660696Y4400702D01*
X4658461Y4397959D01*
X4655413Y4396130D01*
X4651959Y4395470D01*
X3755593Y4384090D01*
X3751173Y4385056D01*
X3745077Y4387900D01*
X3732072Y4391914D01*
X3718610Y4394200D01*
X3704996Y4394657D01*
X3691432Y4393285D01*
X3678123Y4390136D01*
X3665423Y4385208D01*
X3653434Y4378655D01*
X3642461Y4370578D01*
X3632657Y4361078D01*
X3624224Y4350410D01*
X3617264Y4338675D01*
X3611930Y4326128D01*
X3608324Y4312970D01*
X3606546Y4299458D01*
X3606546Y4285792D01*
X3608324Y4272280D01*
X3611930Y4259122D01*
X3617264Y4246575D01*
X3624224Y4234840D01*
X3632657Y4224172D01*
X3642461Y4214672D01*
X3653434Y4206595D01*
X3665423Y4200042D01*
X3678123Y4195114D01*
X3691432Y4191965D01*
G37*
G36*
X3704996Y4444593D02*
G01*
X3718610Y4445050D01*
X3732072Y4447336D01*
X3745077Y4451350D01*
X3754170Y4455566D01*
X3758285Y4456531D01*
X4459071Y4468418D01*
X4466183Y4468774D01*
X4471568Y4469485D01*
X4478426Y4470806D01*
X4483658Y4472178D01*
X4490262Y4474413D01*
X4495292Y4476546D01*
X4501540Y4479645D01*
X4506214Y4482439D01*
X4511954Y4486351D01*
X4516221Y4489754D01*
X4521403Y4494428D01*
X4525162Y4498340D01*
X4529632Y4503724D01*
X4532833Y4508093D01*
X4536592Y4514138D01*
X5532272Y6245961D01*
X5537860Y6257442D01*
X5541721Y6269228D01*
X5543956Y6281470D01*
X5544566Y6291884D01*
X5544566Y8259114D01*
X5545328Y8263026D01*
X5547512Y8266328D01*
X5550814Y8268512D01*
X5554726Y8269274D01*
X6012484Y8269274D01*
X6016396Y8268512D01*
X6020003Y8265972D01*
X6031992Y8256625D01*
X6044996Y8248751D01*
X6058865Y8242503D01*
X6073343Y8237981D01*
X6088329Y8235238D01*
X6103518Y8234324D01*
X6118656Y8235238D01*
X6133642Y8237981D01*
X6148120Y8242503D01*
X6161989Y8248751D01*
X6174994Y8256625D01*
X6187338Y8266328D01*
X6190640Y8268512D01*
X6194501Y8269274D01*
X6635750Y8269274D01*
X6639001Y8268766D01*
X6641947Y8267192D01*
X6644182Y8264753D01*
X6648043Y8258962D01*
X6657644Y8247735D01*
X6668566Y8237829D01*
X6680606Y8229295D01*
X6693611Y8222284D01*
X6707378Y8216950D01*
X6721652Y8213394D01*
X6736334Y8211566D01*
X6751066Y8211566D01*
X6765747Y8213394D01*
X6780022Y8216950D01*
X6793788Y8222284D01*
X6806793Y8229295D01*
X6818833Y8237829D01*
X6829755Y8247735D01*
X6839356Y8258962D01*
X6847484Y8271256D01*
X6854088Y8284464D01*
X6859016Y8298383D01*
X6862165Y8312810D01*
X6863537Y8327491D01*
X6863080Y8342274D01*
X6860794Y8356853D01*
X6856730Y8371027D01*
X6850989Y8384641D01*
X6843623Y8397392D01*
X6834733Y8409178D01*
X6824472Y8419795D01*
X6812940Y8429040D01*
X6800392Y8436813D01*
X6786981Y8442960D01*
X6772960Y8447430D01*
X6758431Y8450173D01*
X6743700Y8451088D01*
X6729171Y8450173D01*
X6724142Y8450630D01*
X6714439Y8451138D01*
X6194501Y8451138D01*
X6190640Y8451900D01*
X6186982Y8454440D01*
X6174994Y8463788D01*
X6161989Y8471662D01*
X6148120Y8477910D01*
X6133642Y8482431D01*
X6118656Y8485174D01*
X6103518Y8486089D01*
X6088329Y8485174D01*
X6073343Y8482431D01*
X6058865Y8477910D01*
X6044996Y8471662D01*
X6031992Y8463788D01*
X6019647Y8454085D01*
X6016396Y8451900D01*
X6012484Y8451138D01*
X5544515Y8451138D01*
X5540654Y8451900D01*
X5536996Y8454440D01*
X5525008Y8463788D01*
X5512003Y8471662D01*
X5498134Y8477910D01*
X5483656Y8482431D01*
X5468670Y8485174D01*
X5453532Y8486089D01*
X5438343Y8485174D01*
X5423357Y8482431D01*
X5408879Y8477910D01*
X5395010Y8471662D01*
X5382006Y8463788D01*
X5370017Y8454440D01*
X5359298Y8443671D01*
X5349900Y8431733D01*
X5342026Y8418728D01*
X5335778Y8404860D01*
X5331256Y8390331D01*
X5328513Y8375396D01*
X5327599Y8360206D01*
X5328513Y8345017D01*
X5331256Y8330082D01*
X5335778Y8315553D01*
X5342026Y8301685D01*
X5349900Y8288680D01*
X5359755Y8276234D01*
X5361940Y8272932D01*
X5362702Y8269071D01*
X5362702Y6318554D01*
X5362397Y6315964D01*
X5361381Y6313474D01*
X4407458Y4654296D01*
X4405223Y4651654D01*
X4402226Y4649876D01*
X4398822Y4649216D01*
X3755186Y4638294D01*
X3750767Y4639259D01*
X3745077Y4641900D01*
X3732072Y4645914D01*
X3718610Y4648200D01*
X3704996Y4648657D01*
X3691432Y4647285D01*
X3678123Y4644136D01*
X3665423Y4639208D01*
X3653434Y4632655D01*
X3642461Y4624578D01*
X3632657Y4615078D01*
X3624224Y4604410D01*
X3617264Y4592675D01*
X3611930Y4580128D01*
X3608324Y4566970D01*
X3606546Y4553458D01*
X3606546Y4539792D01*
X3608324Y4526280D01*
X3611930Y4513122D01*
X3617264Y4500575D01*
X3624224Y4488840D01*
X3632657Y4478172D01*
X3642461Y4468672D01*
X3653434Y4460595D01*
X3665423Y4454042D01*
X3678123Y4449114D01*
X3691432Y4445965D01*
G37*
G36*
X6244996Y4698593D02*
G01*
X6258610Y4699050D01*
X6272072Y4701336D01*
X6285077Y4705350D01*
X6297472Y4711090D01*
X6308953Y4718456D01*
X6319367Y4727244D01*
X6328511Y4737354D01*
X6336233Y4748580D01*
X6342380Y4760772D01*
X6346850Y4773676D01*
X6349542Y4787036D01*
X6350457Y4800600D01*
X6349542Y4814214D01*
X6346850Y4827574D01*
X6342380Y4840478D01*
X6336233Y4852670D01*
X6328511Y4863896D01*
X6319367Y4874006D01*
X6308953Y4882794D01*
X6297472Y4890160D01*
X6285077Y4895900D01*
X6272072Y4899914D01*
X6258610Y4902200D01*
X6244996Y4902657D01*
X6231432Y4901285D01*
X6218123Y4898136D01*
X6205423Y4893208D01*
X6193434Y4886655D01*
X6182461Y4878578D01*
X6172657Y4869078D01*
X6164224Y4858410D01*
X6157264Y4846675D01*
X6151930Y4834128D01*
X6148324Y4820970D01*
X6146546Y4807458D01*
X6146546Y4793792D01*
X6148324Y4780280D01*
X6151930Y4767122D01*
X6157264Y4754575D01*
X6164224Y4742840D01*
X6172657Y4732172D01*
X6182461Y4722672D01*
X6193434Y4714595D01*
X6205423Y4708042D01*
X6218123Y4703114D01*
X6231432Y4699965D01*
G37*
G36*
X3704996Y4698593D02*
G01*
X3718610Y4699050D01*
X3732072Y4701336D01*
X3745077Y4705350D01*
X3749040Y4706315D01*
X4153509Y4717846D01*
X4160875Y4718354D01*
X4166006Y4719066D01*
X4173118Y4720539D01*
X4178096Y4721910D01*
X4184904Y4724349D01*
X4189679Y4726381D01*
X4196080Y4729734D01*
X4200499Y4732426D01*
X4206443Y4736592D01*
X4210456Y4739843D01*
X4215841Y4744872D01*
X4522114Y5053939D01*
X4528362Y5060899D01*
X4530293Y5063388D01*
X4535474Y5071059D01*
X4537049Y5073751D01*
X4541164Y5082082D01*
X4542383Y5084978D01*
X4545279Y5093766D01*
X4546092Y5096814D01*
X4547768Y5105908D01*
X4548174Y5109057D01*
X4548632Y5118404D01*
X4546854Y8260334D01*
X4547514Y8263890D01*
X4549343Y8266938D01*
X4553356Y8271662D01*
X4561484Y8283956D01*
X4568088Y8297164D01*
X4573016Y8311083D01*
X4576165Y8325510D01*
X4577537Y8340191D01*
X4577080Y8354974D01*
X4574794Y8369553D01*
X4570730Y8383727D01*
X4564989Y8397341D01*
X4557623Y8410092D01*
X4548733Y8421878D01*
X4538472Y8432495D01*
X4526940Y8441740D01*
X4514392Y8449513D01*
X4500981Y8455660D01*
X4486960Y8460130D01*
X4472432Y8462873D01*
X4457700Y8463788D01*
X4442968Y8462873D01*
X4428439Y8460130D01*
X4414418Y8455660D01*
X4406493Y8452053D01*
X4402277Y8451138D01*
X3756101Y8451138D01*
X3752240Y8451900D01*
X3748582Y8454440D01*
X3736594Y8463788D01*
X3723589Y8471662D01*
X3709720Y8477910D01*
X3695242Y8482431D01*
X3680256Y8485174D01*
X3665118Y8486089D01*
X3649929Y8485174D01*
X3634943Y8482431D01*
X3620465Y8477910D01*
X3606596Y8471662D01*
X3593592Y8463788D01*
X3581247Y8454085D01*
X3577996Y8451900D01*
X3574084Y8451138D01*
X3106115Y8451138D01*
X3102254Y8451900D01*
X3098596Y8454440D01*
X3086608Y8463788D01*
X3073603Y8471662D01*
X3059734Y8477910D01*
X3045256Y8482431D01*
X3030270Y8485174D01*
X3015132Y8486089D01*
X2999943Y8485174D01*
X2984957Y8482431D01*
X2970479Y8477910D01*
X2956610Y8471662D01*
X2943606Y8463788D01*
X2931617Y8454440D01*
X2920898Y8443671D01*
X2911500Y8431733D01*
X2903626Y8418728D01*
X2897378Y8404860D01*
X2892856Y8390331D01*
X2890113Y8375396D01*
X2889199Y8360206D01*
X2890113Y8345017D01*
X2892856Y8330082D01*
X2897378Y8315553D01*
X2903626Y8301685D01*
X2911500Y8288680D01*
X2920898Y8276742D01*
X2931617Y8265972D01*
X2943606Y8256625D01*
X2956610Y8248751D01*
X2970479Y8242503D01*
X2984957Y8237981D01*
X2999943Y8235238D01*
X3015132Y8234324D01*
X3030270Y8235238D01*
X3045256Y8237981D01*
X3059734Y8242503D01*
X3073603Y8248751D01*
X3086608Y8256625D01*
X3098952Y8266328D01*
X3102254Y8268512D01*
X3106115Y8269274D01*
X3574084Y8269274D01*
X3577996Y8268512D01*
X3581603Y8265972D01*
X3593592Y8256625D01*
X3606596Y8248751D01*
X3620465Y8242503D01*
X3634943Y8237981D01*
X3649929Y8235238D01*
X3665118Y8234324D01*
X3680256Y8235238D01*
X3695242Y8237981D01*
X3709720Y8242503D01*
X3723589Y8248751D01*
X3736594Y8256625D01*
X3748938Y8266328D01*
X3752240Y8268512D01*
X3756101Y8269274D01*
X4354880Y8269274D01*
X4358792Y8268512D01*
X4362094Y8266328D01*
X4364278Y8263026D01*
X4365040Y8259165D01*
X4366768Y5159654D01*
X4366006Y5155793D01*
X4363821Y5152542D01*
X4115003Y4901438D01*
X4111853Y4899304D01*
X4108094Y4898440D01*
X3763162Y4888585D01*
X3760774Y4888788D01*
X3758539Y4889550D01*
X3745026Y4895900D01*
X3732072Y4899914D01*
X3718610Y4902200D01*
X3704996Y4902657D01*
X3691432Y4901285D01*
X3678123Y4898136D01*
X3665423Y4893208D01*
X3653434Y4886655D01*
X3642461Y4878578D01*
X3632657Y4869078D01*
X3624224Y4858410D01*
X3617264Y4846675D01*
X3611930Y4834128D01*
X3608324Y4820970D01*
X3606546Y4807458D01*
X3606546Y4793792D01*
X3608324Y4780280D01*
X3611930Y4767122D01*
X3617264Y4754575D01*
X3624224Y4742840D01*
X3632657Y4732172D01*
X3642461Y4722672D01*
X3653434Y4714595D01*
X3665423Y4708042D01*
X3678123Y4703114D01*
X3691432Y4699965D01*
G37*
G36*
X1304391Y4744262D02*
G01*
X1319174Y4744720D01*
X1333754Y4747006D01*
X1347927Y4751070D01*
X1361541Y4756810D01*
X1374292Y4764176D01*
X1383538Y4771136D01*
X1386433Y4772660D01*
X1389634Y4773168D01*
X1422146Y4773168D01*
X1431848Y4773676D01*
X1444091Y4775809D01*
X1446733Y4776520D01*
X1458468Y4780635D01*
X1469491Y4786325D01*
X1477467Y4791760D01*
X1479651Y4793488D01*
X1486865Y4799990D01*
X1859483Y5172659D01*
X1862074Y5174488D01*
X1865122Y5175504D01*
X1880057Y5177790D01*
X1894382Y5181904D01*
X1908098Y5187696D01*
X1920951Y5195112D01*
X1932838Y5204104D01*
X1943557Y5214467D01*
X1952853Y5226050D01*
X1960727Y5238699D01*
X1966925Y5252212D01*
X1971446Y5266486D01*
X1974189Y5281066D01*
X1975104Y5295900D01*
X1974189Y5310733D01*
X1971446Y5325364D01*
X1966925Y5339588D01*
X1960727Y5353100D01*
X1952853Y5365750D01*
X1943557Y5377332D01*
X1932838Y5387695D01*
X1920951Y5396687D01*
X1908098Y5404104D01*
X1894382Y5409895D01*
X1880057Y5414010D01*
X1865375Y5416296D01*
X1850491Y5416753D01*
X1835657Y5415381D01*
X1821129Y5412181D01*
X1807057Y5407202D01*
X1793748Y5400598D01*
X1781352Y5392369D01*
X1770024Y5382666D01*
X1760016Y5371693D01*
X1751431Y5359552D01*
X1744370Y5346446D01*
X1738985Y5332526D01*
X1735378Y5318099D01*
X1734057Y5307330D01*
X1733092Y5304129D01*
X1731111Y5301386D01*
X1391666Y4961890D01*
X1388668Y4959858D01*
X1385163Y4958943D01*
X1381556Y4959350D01*
X1378356Y4960975D01*
X1374292Y4964023D01*
X1361541Y4971389D01*
X1347927Y4977130D01*
X1333754Y4981194D01*
X1319174Y4983480D01*
X1304391Y4983886D01*
X1289710Y4982565D01*
X1275283Y4979416D01*
X1261364Y4974488D01*
X1248156Y4967884D01*
X1235862Y4959756D01*
X1224635Y4950155D01*
X1214729Y4939233D01*
X1206195Y4927193D01*
X1199184Y4914188D01*
X1193850Y4900422D01*
X1190294Y4886147D01*
X1188466Y4871466D01*
X1188466Y4856734D01*
X1190294Y4842052D01*
X1193850Y4827778D01*
X1199184Y4814011D01*
X1206195Y4801006D01*
X1214729Y4788966D01*
X1224635Y4778044D01*
X1235862Y4768443D01*
X1248156Y4760315D01*
X1261364Y4753711D01*
X1275283Y4748784D01*
X1289710Y4745634D01*
G37*
G36*
X6244996Y4952593D02*
G01*
X6258610Y4953050D01*
X6272072Y4955336D01*
X6285077Y4959350D01*
X6292392Y4962753D01*
X6296660Y4963668D01*
X7060946Y4963668D01*
X7071156Y4964226D01*
X7083348Y4966411D01*
X7095134Y4970272D01*
X7106310Y4975656D01*
X7118400Y4983937D01*
X7125970Y4990846D01*
X8408365Y6285890D01*
X8413699Y6291732D01*
X8416544Y6295390D01*
X8420963Y6301790D01*
X8423300Y6305753D01*
X8426805Y6312712D01*
X8428583Y6316980D01*
X8431123Y6324346D01*
X8432292Y6328816D01*
X8433816Y6336487D01*
X8434374Y6341059D01*
X8434781Y6348984D01*
X8446516Y7215225D01*
X8447125Y7218578D01*
X8457184Y7234478D01*
X8463330Y7247534D01*
X8467801Y7261250D01*
X8470493Y7275423D01*
X8471408Y7289800D01*
X8470493Y7304176D01*
X8467801Y7318349D01*
X8463330Y7332065D01*
X8457184Y7345121D01*
X8449462Y7357262D01*
X8440267Y7368387D01*
X8429752Y7378242D01*
X8418118Y7386726D01*
X8405469Y7393686D01*
X8392058Y7398969D01*
X8378088Y7402575D01*
X8363813Y7404353D01*
X8349386Y7404353D01*
X8335111Y7402575D01*
X8321141Y7398969D01*
X8307730Y7393686D01*
X8295081Y7386726D01*
X8283448Y7378242D01*
X8272932Y7368387D01*
X8263737Y7357262D01*
X8256016Y7345121D01*
X8249869Y7332065D01*
X8245398Y7318349D01*
X8242706Y7304176D01*
X8241792Y7289800D01*
X8242706Y7275423D01*
X8245398Y7261250D01*
X8249869Y7247534D01*
X8256016Y7234478D01*
X8263128Y7223302D01*
X8264347Y7220610D01*
X8264702Y7217714D01*
X8253526Y6392011D01*
X8252764Y6388201D01*
X8250631Y6385001D01*
X7026249Y5148529D01*
X7022947Y5146294D01*
X7019036Y5145532D01*
X6296761Y5145532D01*
X6292494Y5146446D01*
X6285077Y5149900D01*
X6272072Y5153914D01*
X6258610Y5156200D01*
X6244996Y5156657D01*
X6231432Y5155285D01*
X6218123Y5152136D01*
X6205423Y5147208D01*
X6193434Y5140655D01*
X6182461Y5132578D01*
X6172657Y5123078D01*
X6164224Y5112410D01*
X6157264Y5100675D01*
X6151930Y5088128D01*
X6148324Y5074970D01*
X6146546Y5061458D01*
X6146546Y5047792D01*
X6148324Y5034280D01*
X6151930Y5021122D01*
X6157264Y5008575D01*
X6164224Y4996840D01*
X6172657Y4986172D01*
X6182461Y4976672D01*
X6193434Y4968595D01*
X6205423Y4962042D01*
X6218123Y4957114D01*
X6231432Y4953965D01*
G37*
G36*
X3704996Y4952593D02*
G01*
X3718610Y4953050D01*
X3732072Y4955336D01*
X3745077Y4959350D01*
X3752392Y4962753D01*
X3756660Y4963668D01*
X3974846Y4963668D01*
X3984548Y4964176D01*
X3996791Y4966309D01*
X3999433Y4967020D01*
X4011168Y4971135D01*
X4022191Y4976825D01*
X4030167Y4982260D01*
X4032351Y4983988D01*
X4039565Y4990490D01*
X4280509Y5231434D01*
X4287012Y5238648D01*
X4288739Y5240832D01*
X4294174Y5248808D01*
X4299864Y5259832D01*
X4303979Y5271566D01*
X4304690Y5274208D01*
X4306824Y5286451D01*
X4307332Y5296154D01*
X4307332Y5930747D01*
X4307128Y5936132D01*
X4306468Y5943346D01*
X4305604Y5948426D01*
X4303928Y5955487D01*
X4302353Y5960414D01*
X4299762Y5967171D01*
X4297578Y5971844D01*
X4294022Y5978194D01*
X4291228Y5982512D01*
X4286859Y5988304D01*
X4283506Y5992215D01*
X4278426Y5997346D01*
X4274362Y6000902D01*
X1988159Y7899857D01*
X1986127Y7902143D01*
X1984857Y7904886D01*
X1984502Y7907934D01*
X1993696Y8247329D01*
X1994357Y8250681D01*
X1996135Y8253679D01*
X2000656Y8258962D01*
X2008784Y8271256D01*
X2015388Y8284464D01*
X2020316Y8298383D01*
X2023465Y8312810D01*
X2024786Y8327491D01*
X2024380Y8342274D01*
X2022093Y8356853D01*
X2018030Y8371027D01*
X2012289Y8384641D01*
X2004923Y8397392D01*
X1996033Y8409178D01*
X1985772Y8419795D01*
X1974240Y8429040D01*
X1961692Y8436813D01*
X1948281Y8442960D01*
X1934260Y8447430D01*
X1919732Y8450173D01*
X1905000Y8451088D01*
X1890268Y8450173D01*
X1875739Y8447430D01*
X1861718Y8442960D01*
X1848307Y8436813D01*
X1835759Y8429040D01*
X1829917Y8424367D01*
X1826920Y8422690D01*
X1823567Y8422132D01*
X1588008Y8422132D01*
X1584147Y8422894D01*
X1580845Y8425078D01*
X1576882Y8429040D01*
X1564894Y8438388D01*
X1551889Y8446262D01*
X1538020Y8452510D01*
X1523542Y8457031D01*
X1508556Y8459774D01*
X1493418Y8460689D01*
X1478229Y8459774D01*
X1463243Y8457031D01*
X1448765Y8452510D01*
X1434896Y8446262D01*
X1421892Y8438388D01*
X1409547Y8428685D01*
X1406296Y8426500D01*
X1402384Y8425738D01*
X934415Y8425738D01*
X930554Y8426500D01*
X926896Y8429040D01*
X914908Y8438388D01*
X901903Y8446262D01*
X888034Y8452510D01*
X873556Y8457031D01*
X858570Y8459774D01*
X843432Y8460689D01*
X828243Y8459774D01*
X813257Y8457031D01*
X798779Y8452510D01*
X784910Y8446262D01*
X771906Y8438388D01*
X759917Y8429040D01*
X749198Y8418271D01*
X739800Y8406333D01*
X731926Y8393328D01*
X725678Y8379459D01*
X721156Y8364931D01*
X718413Y8349996D01*
X717499Y8334806D01*
X718413Y8319617D01*
X721156Y8304682D01*
X725678Y8290153D01*
X731926Y8276285D01*
X739800Y8263280D01*
X749198Y8251342D01*
X759917Y8240572D01*
X771906Y8231225D01*
X784910Y8223351D01*
X798779Y8217103D01*
X813257Y8212581D01*
X828243Y8209838D01*
X843432Y8208924D01*
X858570Y8209838D01*
X873556Y8212581D01*
X888034Y8217103D01*
X901903Y8223351D01*
X914908Y8231225D01*
X927252Y8240928D01*
X930554Y8243112D01*
X934415Y8243874D01*
X1402384Y8243874D01*
X1406296Y8243112D01*
X1409903Y8240572D01*
X1421892Y8231225D01*
X1434896Y8223351D01*
X1448765Y8217103D01*
X1463243Y8212581D01*
X1478229Y8209838D01*
X1493418Y8208924D01*
X1508556Y8209838D01*
X1523542Y8212581D01*
X1538020Y8217103D01*
X1551889Y8223351D01*
X1564894Y8231225D01*
X1573733Y8238134D01*
X1576679Y8239759D01*
X1580032Y8240268D01*
X1801164Y8240268D01*
X1805127Y8239506D01*
X1808429Y8237220D01*
X1810613Y8233816D01*
X1811324Y8229853D01*
X1801418Y7863992D01*
X1801571Y7855915D01*
X1801926Y7851444D01*
X1803146Y7843621D01*
X1804111Y7839252D01*
X1806346Y7831632D01*
X1807921Y7827416D01*
X1811223Y7820202D01*
X1813356Y7816240D01*
X1817573Y7809585D01*
X1820214Y7805928D01*
X1825294Y7799882D01*
X1828444Y7796631D01*
X1834388Y7791246D01*
X4121810Y5891276D01*
X4124553Y5887770D01*
X4125468Y5883452D01*
X4125468Y5337759D01*
X4124706Y5333898D01*
X4122521Y5330596D01*
X3940403Y5148478D01*
X3937101Y5146294D01*
X3933240Y5145532D01*
X3756761Y5145532D01*
X3752494Y5146446D01*
X3745077Y5149900D01*
X3732072Y5153914D01*
X3718610Y5156200D01*
X3704996Y5156657D01*
X3691432Y5155285D01*
X3678123Y5152136D01*
X3665423Y5147208D01*
X3653434Y5140655D01*
X3642461Y5132578D01*
X3632657Y5123078D01*
X3624224Y5112410D01*
X3617264Y5100675D01*
X3611930Y5088128D01*
X3608324Y5074970D01*
X3606546Y5061458D01*
X3606546Y5047792D01*
X3608324Y5034280D01*
X3611930Y5021122D01*
X3617264Y5008575D01*
X3624224Y4996840D01*
X3632657Y4986172D01*
X3642461Y4976672D01*
X3653434Y4968595D01*
X3665423Y4962042D01*
X3678123Y4957114D01*
X3691432Y4953965D01*
G37*
G36*
X6955891Y5176062D02*
G01*
X6970674Y5176520D01*
X6985253Y5178806D01*
X6999427Y5182870D01*
X7013041Y5188610D01*
X7025792Y5195976D01*
X7037578Y5204866D01*
X7048195Y5215128D01*
X7057440Y5226659D01*
X7065213Y5239207D01*
X7071359Y5252618D01*
X7075830Y5266639D01*
X7078573Y5281168D01*
X7079488Y5295900D01*
X7078573Y5310632D01*
X7075830Y5325160D01*
X7071359Y5339181D01*
X7065213Y5352592D01*
X7057440Y5365140D01*
X7048195Y5376672D01*
X7037578Y5386933D01*
X7025792Y5395823D01*
X7013041Y5403189D01*
X6999427Y5408930D01*
X6985253Y5412994D01*
X6970674Y5415280D01*
X6955891Y5415686D01*
X6941210Y5414365D01*
X6926783Y5411216D01*
X6912864Y5406288D01*
X6901383Y5400548D01*
X6896862Y5399532D01*
X6296761Y5399532D01*
X6292494Y5400446D01*
X6285077Y5403900D01*
X6272072Y5407914D01*
X6258610Y5410200D01*
X6244996Y5410657D01*
X6231432Y5409285D01*
X6218123Y5406136D01*
X6205423Y5401208D01*
X6193434Y5394655D01*
X6182461Y5386578D01*
X6172657Y5377078D01*
X6164224Y5366410D01*
X6157264Y5354675D01*
X6151930Y5342128D01*
X6148324Y5328970D01*
X6146546Y5315458D01*
X6146546Y5301792D01*
X6148324Y5288280D01*
X6151930Y5275122D01*
X6157264Y5262575D01*
X6164224Y5250840D01*
X6172657Y5240172D01*
X6182461Y5230672D01*
X6193434Y5222595D01*
X6205423Y5216042D01*
X6218123Y5211114D01*
X6231432Y5207965D01*
X6244996Y5206593D01*
X6258610Y5207050D01*
X6272072Y5209336D01*
X6285077Y5213350D01*
X6292392Y5216753D01*
X6296660Y5217668D01*
X6864502Y5217668D01*
X6868617Y5216804D01*
X6872020Y5214366D01*
X6876135Y5209844D01*
X6887362Y5200243D01*
X6899656Y5192115D01*
X6912864Y5185511D01*
X6926783Y5180584D01*
X6941210Y5177434D01*
G37*
G36*
X2161946Y5187645D02*
G01*
X2174951Y5195112D01*
X2186838Y5204104D01*
X2197557Y5214467D01*
X2206853Y5226050D01*
X2214727Y5238699D01*
X2216251Y5242052D01*
X2162048Y5242052D01*
G37*
G36*
X2054352Y5187899D02*
G01*
X2054352Y5242052D01*
X2000148Y5242052D01*
X2005431Y5232247D01*
X2014016Y5220106D01*
X2024024Y5209133D01*
X2035352Y5199430D01*
X2047748Y5191201D01*
G37*
G36*
X3632758Y5206492D02*
G01*
X3784041Y5206492D01*
X3790340Y5207254D01*
X3795776Y5209133D01*
X3800703Y5212232D01*
X3804767Y5216296D01*
X3807866Y5221224D01*
X3809796Y5226659D01*
X3810508Y5233009D01*
X3810508Y5384241D01*
X3809796Y5390591D01*
X3807866Y5396026D01*
X3804767Y5400954D01*
X3800703Y5405018D01*
X3795776Y5408117D01*
X3790340Y5409996D01*
X3784041Y5410708D01*
X3632758Y5410708D01*
X3626459Y5409996D01*
X3620973Y5408117D01*
X3616096Y5405018D01*
X3613556Y5402529D01*
X3610254Y5400294D01*
X3606342Y5399532D01*
X3544011Y5399532D01*
X3540150Y5400294D01*
X3536848Y5402529D01*
X2576068Y6363309D01*
X2568803Y6369812D01*
X2566619Y6371539D01*
X2558643Y6376974D01*
X2547620Y6382664D01*
X2535936Y6386779D01*
X2533243Y6387490D01*
X2521051Y6389624D01*
X2511298Y6390132D01*
X1552092Y6390132D01*
X1548231Y6390894D01*
X1544929Y6393078D01*
X1542694Y6396380D01*
X1541932Y6400292D01*
X1542694Y6404152D01*
X1544929Y6407454D01*
X1575358Y6437884D01*
X1583740Y6447485D01*
X1590497Y6457848D01*
X1595831Y6469075D01*
X1599590Y6480860D01*
X1601724Y6493154D01*
X1602181Y6503720D01*
X1598066Y6862013D01*
X1598777Y6865924D01*
X1600962Y6869277D01*
X1604314Y6871512D01*
X1608226Y6872274D01*
X1937308Y6872274D01*
X1941220Y6871512D01*
X1944522Y6869328D01*
X2019909Y6793941D01*
X2028393Y6786422D01*
X2038959Y6779310D01*
X2050338Y6773722D01*
X2062429Y6769811D01*
X2074925Y6767626D01*
X2087524Y6767169D01*
X2099818Y6768439D01*
X2111908Y6771386D01*
X2123440Y6775907D01*
X2134209Y6782003D01*
X2145233Y6790486D01*
X2154021Y6799580D01*
X2161489Y6809841D01*
X2167483Y6821119D01*
X2171750Y6832752D01*
X2174443Y6845452D01*
X2175256Y6855053D01*
X2175306Y6857847D01*
X2174798Y6867448D01*
X2174443Y6870496D01*
X2172665Y6879691D01*
X2171801Y6882942D01*
X2168906Y6891477D01*
X2167483Y6894880D01*
X2163572Y6902653D01*
X2161540Y6906056D01*
X2156764Y6913016D01*
X2154072Y6916369D01*
X2148535Y6922414D01*
X2043684Y7027316D01*
X2036419Y7033818D01*
X2034235Y7035546D01*
X2026259Y7040981D01*
X2015236Y7046671D01*
X2003552Y7050786D01*
X2000859Y7051497D01*
X1988667Y7053630D01*
X1978914Y7054138D01*
X1597101Y7054138D01*
X1593240Y7054900D01*
X1589582Y7057440D01*
X1577594Y7066788D01*
X1564589Y7074662D01*
X1550720Y7080910D01*
X1536242Y7085431D01*
X1521256Y7088174D01*
X1506118Y7089089D01*
X1490929Y7088174D01*
X1475943Y7085431D01*
X1461465Y7080910D01*
X1447596Y7074662D01*
X1434592Y7066788D01*
X1422247Y7057085D01*
X1418996Y7054900D01*
X1415084Y7054138D01*
X947115Y7054138D01*
X943254Y7054900D01*
X939596Y7057440D01*
X927608Y7066788D01*
X914603Y7074662D01*
X900734Y7080910D01*
X886256Y7085431D01*
X871270Y7088174D01*
X856132Y7089089D01*
X840943Y7088174D01*
X825957Y7085431D01*
X811479Y7080910D01*
X797610Y7074662D01*
X784606Y7066788D01*
X772617Y7057440D01*
X761898Y7046671D01*
X752500Y7034733D01*
X744626Y7021728D01*
X738378Y7007859D01*
X733856Y6993331D01*
X731113Y6978396D01*
X730199Y6963206D01*
X731113Y6948017D01*
X733856Y6933082D01*
X738378Y6918553D01*
X744626Y6904685D01*
X752500Y6891680D01*
X761898Y6879742D01*
X772617Y6868972D01*
X784606Y6859625D01*
X797610Y6851751D01*
X811479Y6845503D01*
X825957Y6840981D01*
X840943Y6838238D01*
X856132Y6837324D01*
X871270Y6838238D01*
X886256Y6840981D01*
X900734Y6845503D01*
X914603Y6851751D01*
X927608Y6859625D01*
X939952Y6869328D01*
X943254Y6871512D01*
X947115Y6872274D01*
X1406042Y6872274D01*
X1409903Y6871512D01*
X1413205Y6869379D01*
X1415389Y6866128D01*
X1416202Y6862267D01*
X1419910Y6543903D01*
X1419148Y6539941D01*
X1416913Y6536588D01*
X1301597Y6421221D01*
X1299006Y6419392D01*
X1295958Y6418376D01*
X1282446Y6416294D01*
X1268272Y6412230D01*
X1254658Y6406489D01*
X1241907Y6399123D01*
X1230122Y6390233D01*
X1219504Y6379972D01*
X1210259Y6368440D01*
X1202486Y6355892D01*
X1196340Y6342481D01*
X1191869Y6328460D01*
X1189126Y6313932D01*
X1188212Y6299200D01*
X1189126Y6284468D01*
X1191869Y6269939D01*
X1196340Y6255918D01*
X1202486Y6242507D01*
X1210259Y6229959D01*
X1219504Y6218428D01*
X1230122Y6208166D01*
X1241907Y6199276D01*
X1254658Y6191910D01*
X1268272Y6186170D01*
X1282446Y6182106D01*
X1297025Y6179820D01*
X1311808Y6179362D01*
X1326489Y6180734D01*
X1340916Y6183884D01*
X1354836Y6188811D01*
X1368044Y6195415D01*
X1380337Y6203543D01*
X1383030Y6205829D01*
X1386128Y6207658D01*
X1389634Y6208268D01*
X2469692Y6208268D01*
X2473604Y6207506D01*
X2476906Y6205321D01*
X3437686Y5244541D01*
X3444900Y5237988D01*
X3455060Y5230876D01*
X3457448Y5229453D01*
X3466084Y5225186D01*
X3468624Y5224119D01*
X3477818Y5221020D01*
X3489960Y5218531D01*
X3502406Y5217718D01*
X3606342Y5217718D01*
X3610254Y5216956D01*
X3613556Y5214721D01*
X3616096Y5212232D01*
X3620973Y5209133D01*
X3626459Y5207254D01*
G37*
G36*
X8880246Y5213045D02*
G01*
X8893251Y5220512D01*
X8905138Y5229504D01*
X8915857Y5239867D01*
X8925153Y5251450D01*
X8933027Y5264099D01*
X8934551Y5267452D01*
X8880348Y5267452D01*
G37*
G36*
X8772652Y5213299D02*
G01*
X8772652Y5267452D01*
X8718448Y5267452D01*
X8723731Y5257647D01*
X8732316Y5245506D01*
X8742324Y5234533D01*
X8753652Y5224830D01*
X8766048Y5216601D01*
G37*
G36*
X2000148Y5349748D02*
G01*
X2054352Y5349748D01*
X2054352Y5403900D01*
X2047748Y5400598D01*
X2035352Y5392369D01*
X2024024Y5382666D01*
X2014016Y5371693D01*
X2005431Y5359552D01*
G37*
G36*
X2162048Y5349748D02*
G01*
X2216251Y5349748D01*
X2214727Y5353100D01*
X2206853Y5365750D01*
X2197557Y5377332D01*
X2186838Y5387695D01*
X2174951Y5396687D01*
X2162048Y5404154D01*
G37*
G36*
X8718448Y5375148D02*
G01*
X8772652Y5375148D01*
X8772652Y5429300D01*
X8766048Y5425998D01*
X8753652Y5417769D01*
X8742324Y5408066D01*
X8732316Y5397093D01*
X8723731Y5384952D01*
G37*
G36*
X8880348Y5375148D02*
G01*
X8934551Y5375148D01*
X8933027Y5378500D01*
X8925153Y5391150D01*
X8915857Y5402732D01*
X8905138Y5413095D01*
X8893251Y5422087D01*
X8880348Y5429554D01*
G37*
G36*
X2323236Y6775907D02*
G01*
X2324252Y6776313D01*
X2335225Y6782663D01*
X2345232Y6790436D01*
X2354021Y6799580D01*
X2361488Y6809841D01*
X2366416Y6819138D01*
X2323236Y6819138D01*
G37*
G36*
X2245563Y6776059D02*
G01*
X2245563Y6819138D01*
X2202434Y6819138D01*
X2204161Y6815328D01*
X2210866Y6804558D01*
X2219045Y6794855D01*
X2228443Y6786372D01*
X2238959Y6779310D01*
G37*
G36*
X2202434Y6896862D02*
G01*
X2245563Y6896862D01*
X2245563Y6939940D01*
X2238959Y6936689D01*
X2228443Y6929628D01*
X2219045Y6921144D01*
X2210866Y6911441D01*
X2204161Y6900672D01*
G37*
G36*
X2323236Y6896862D02*
G01*
X2366416Y6896862D01*
X2361488Y6906158D01*
X2354021Y6916420D01*
X2345232Y6925564D01*
X2335225Y6933336D01*
X2324252Y6939686D01*
X2323236Y6940092D01*
G37*
G36*
X8813800Y7186980D02*
G01*
X8813800Y7239000D01*
X8761882Y7239000D01*
X8764016Y7234478D01*
X8771737Y7222337D01*
X8780932Y7211212D01*
X8791448Y7201357D01*
X8803081Y7192873D01*
G37*
G36*
X8915400Y7186980D02*
G01*
X8926118Y7192873D01*
X8937752Y7201357D01*
X8948267Y7211212D01*
X8957462Y7222337D01*
X8965184Y7234478D01*
X8967317Y7239000D01*
X8915400Y7239000D01*
G37*
G36*
X1449730Y7300772D02*
G01*
X1449730Y7356856D01*
X1393647Y7356856D01*
X1394612Y7354671D01*
X1402486Y7341666D01*
X1411884Y7329728D01*
X1422603Y7318959D01*
X1434592Y7309612D01*
X1447596Y7301738D01*
G37*
G36*
X912469Y7300772D02*
G01*
X914603Y7301738D01*
X927608Y7309612D01*
X939596Y7318959D01*
X950315Y7329728D01*
X959713Y7341666D01*
X967587Y7354671D01*
X968552Y7356856D01*
X912469Y7356856D01*
G37*
G36*
X799744Y7300772D02*
G01*
X799744Y7356856D01*
X743661Y7356856D01*
X744626Y7354671D01*
X752500Y7341666D01*
X761898Y7329728D01*
X772617Y7318959D01*
X784606Y7309612D01*
X797610Y7301738D01*
G37*
G36*
X1562455Y7300772D02*
G01*
X1564589Y7301738D01*
X1577594Y7309612D01*
X1589582Y7318959D01*
X1600301Y7329728D01*
X1609699Y7341666D01*
X1617573Y7354671D01*
X1618538Y7356856D01*
X1562455Y7356856D01*
G37*
G36*
X8915400Y7340600D02*
G01*
X8967317Y7340600D01*
X8965184Y7345121D01*
X8957462Y7357262D01*
X8948267Y7368387D01*
X8937752Y7378242D01*
X8926118Y7386726D01*
X8915400Y7392619D01*
G37*
G36*
X8761882Y7340600D02*
G01*
X8813800Y7340600D01*
X8813800Y7392619D01*
X8803081Y7386726D01*
X8791448Y7378242D01*
X8780932Y7368387D01*
X8771737Y7357262D01*
X8764016Y7345121D01*
G37*
G36*
X1393647Y7469530D02*
G01*
X1449730Y7469530D01*
X1449730Y7525613D01*
X1447596Y7524648D01*
X1434592Y7516774D01*
X1422603Y7507427D01*
X1411884Y7496657D01*
X1402486Y7484719D01*
X1394612Y7471714D01*
G37*
G36*
X743661Y7469530D02*
G01*
X799744Y7469530D01*
X799744Y7525613D01*
X797610Y7524648D01*
X784606Y7516774D01*
X772617Y7507427D01*
X761898Y7496657D01*
X752500Y7484719D01*
X744626Y7471714D01*
G37*
G36*
X912469Y7469530D02*
G01*
X968552Y7469530D01*
X967587Y7471714D01*
X959713Y7484719D01*
X950315Y7496657D01*
X939596Y7507427D01*
X927608Y7516774D01*
X914603Y7524648D01*
X912469Y7525613D01*
G37*
G36*
X1562455Y7469530D02*
G01*
X1618538Y7469530D01*
X1617573Y7471714D01*
X1609699Y7484719D01*
X1600301Y7496657D01*
X1589582Y7507427D01*
X1577594Y7516774D01*
X1564589Y7524648D01*
X1562455Y7525613D01*
G37*
G36*
X787044Y8672372D02*
G01*
X787044Y8728456D01*
X730961Y8728456D01*
X731926Y8726271D01*
X739800Y8713266D01*
X749198Y8701328D01*
X759917Y8690559D01*
X771906Y8681212D01*
X784910Y8673338D01*
G37*
G36*
X899769Y8672372D02*
G01*
X901903Y8673338D01*
X914908Y8681212D01*
X926896Y8690559D01*
X937615Y8701328D01*
X947013Y8713266D01*
X954887Y8726271D01*
X955852Y8728456D01*
X899769Y8728456D01*
G37*
G36*
X1549755Y8672372D02*
G01*
X1551889Y8673338D01*
X1564894Y8681212D01*
X1576882Y8690559D01*
X1587601Y8701328D01*
X1596999Y8713266D01*
X1604873Y8726271D01*
X1605838Y8728456D01*
X1549755Y8728456D01*
G37*
G36*
X1437030Y8672372D02*
G01*
X1437030Y8728456D01*
X1380947Y8728456D01*
X1381912Y8726271D01*
X1389786Y8713266D01*
X1399184Y8701328D01*
X1409903Y8690559D01*
X1421892Y8681212D01*
X1434896Y8673338D01*
G37*
G36*
X5509869Y8697772D02*
G01*
X5512003Y8698738D01*
X5525008Y8706612D01*
X5536996Y8715959D01*
X5547715Y8726728D01*
X5557113Y8738666D01*
X5564987Y8751671D01*
X5565952Y8753856D01*
X5509869Y8753856D01*
G37*
G36*
X6159855Y8697772D02*
G01*
X6161989Y8698738D01*
X6174994Y8706612D01*
X6186982Y8715959D01*
X6197701Y8726728D01*
X6207099Y8738666D01*
X6214973Y8751671D01*
X6215938Y8753856D01*
X6159855Y8753856D01*
G37*
G36*
X3071469Y8697772D02*
G01*
X3073603Y8698738D01*
X3086608Y8706612D01*
X3098596Y8715959D01*
X3109315Y8726728D01*
X3118713Y8738666D01*
X3126587Y8751671D01*
X3127552Y8753856D01*
X3071469Y8753856D01*
G37*
G36*
X3721455Y8697772D02*
G01*
X3723589Y8698738D01*
X3736594Y8706612D01*
X3748582Y8715959D01*
X3759301Y8726728D01*
X3768699Y8738666D01*
X3776573Y8751671D01*
X3777538Y8753856D01*
X3721455Y8753856D01*
G37*
G36*
X7783169Y8697772D02*
G01*
X7785303Y8698738D01*
X7798308Y8706612D01*
X7810296Y8715959D01*
X7821015Y8726728D01*
X7830413Y8738666D01*
X7838287Y8751671D01*
X7839252Y8753856D01*
X7783169Y8753856D01*
G37*
G36*
X8433155Y8697772D02*
G01*
X8435289Y8698738D01*
X8448294Y8706612D01*
X8460282Y8715959D01*
X8471001Y8726728D01*
X8480399Y8738666D01*
X8488273Y8751671D01*
X8489238Y8753856D01*
X8433155Y8753856D01*
G37*
G36*
X3608730Y8697772D02*
G01*
X3608730Y8753856D01*
X3552647Y8753856D01*
X3553612Y8751671D01*
X3561486Y8738666D01*
X3570884Y8726728D01*
X3581603Y8715959D01*
X3593592Y8706612D01*
X3606596Y8698738D01*
G37*
G36*
X7670444Y8697772D02*
G01*
X7670444Y8753856D01*
X7614361Y8753856D01*
X7615326Y8751671D01*
X7623200Y8738666D01*
X7632598Y8726728D01*
X7643317Y8715959D01*
X7655306Y8706612D01*
X7668310Y8698738D01*
G37*
G36*
X2958744Y8697772D02*
G01*
X2958744Y8753856D01*
X2902661Y8753856D01*
X2903626Y8751671D01*
X2911500Y8738666D01*
X2920898Y8726728D01*
X2931617Y8715959D01*
X2943606Y8706612D01*
X2956610Y8698738D01*
G37*
G36*
X8320430Y8697772D02*
G01*
X8320430Y8753856D01*
X8264347Y8753856D01*
X8265312Y8751671D01*
X8273186Y8738666D01*
X8282584Y8726728D01*
X8293303Y8715959D01*
X8305292Y8706612D01*
X8318296Y8698738D01*
G37*
G36*
X5397144Y8697772D02*
G01*
X5397144Y8753856D01*
X5341061Y8753856D01*
X5342026Y8751671D01*
X5349900Y8738666D01*
X5359298Y8726728D01*
X5370017Y8715959D01*
X5382006Y8706612D01*
X5395010Y8698738D01*
G37*
G36*
X6047130Y8697772D02*
G01*
X6047130Y8753856D01*
X5991047Y8753856D01*
X5992012Y8751671D01*
X5999886Y8738666D01*
X6009284Y8726728D01*
X6020003Y8715959D01*
X6031992Y8706612D01*
X6044996Y8698738D01*
G37*
G36*
X1380947Y8841130D02*
G01*
X1437030Y8841130D01*
X1437030Y8897213D01*
X1434896Y8896248D01*
X1421892Y8888374D01*
X1409903Y8879027D01*
X1399184Y8868257D01*
X1389786Y8856319D01*
X1381912Y8843314D01*
G37*
G36*
X1549755Y8841130D02*
G01*
X1605838Y8841130D01*
X1604873Y8843314D01*
X1596999Y8856319D01*
X1587601Y8868257D01*
X1576882Y8879027D01*
X1564894Y8888374D01*
X1551889Y8896248D01*
X1549755Y8897213D01*
G37*
G36*
X899769Y8841130D02*
G01*
X955852Y8841130D01*
X954887Y8843314D01*
X947013Y8856319D01*
X937615Y8868257D01*
X926896Y8879027D01*
X914908Y8888374D01*
X901903Y8896248D01*
X899769Y8897213D01*
G37*
G36*
X5991047Y8866530D02*
G01*
X6047130Y8866530D01*
X6047130Y8922613D01*
X6044996Y8921648D01*
X6031992Y8913774D01*
X6020003Y8904427D01*
X6009284Y8893657D01*
X5999886Y8881719D01*
X5992012Y8868714D01*
G37*
G36*
X5341061Y8866530D02*
G01*
X5397144Y8866530D01*
X5397144Y8922613D01*
X5395010Y8921648D01*
X5382006Y8913774D01*
X5370017Y8904427D01*
X5359298Y8893657D01*
X5349900Y8881719D01*
X5342026Y8868714D01*
G37*
G36*
X6159855Y8866530D02*
G01*
X6215938Y8866530D01*
X6214973Y8868714D01*
X6207099Y8881719D01*
X6197701Y8893657D01*
X6186982Y8904427D01*
X6174994Y8913774D01*
X6161989Y8921648D01*
X6159855Y8922613D01*
G37*
G36*
X5509869Y8866530D02*
G01*
X5565952Y8866530D01*
X5564987Y8868714D01*
X5557113Y8881719D01*
X5547715Y8893657D01*
X5536996Y8904427D01*
X5525008Y8913774D01*
X5512003Y8921648D01*
X5509869Y8922613D01*
G37*
G36*
X7614361Y8866530D02*
G01*
X7670444Y8866530D01*
X7670444Y8922613D01*
X7668310Y8921648D01*
X7655306Y8913774D01*
X7643317Y8904427D01*
X7632598Y8893657D01*
X7623200Y8881719D01*
X7615326Y8868714D01*
G37*
G36*
X8264347Y8866530D02*
G01*
X8320430Y8866530D01*
X8320430Y8922613D01*
X8318296Y8921648D01*
X8305292Y8913774D01*
X8293303Y8904427D01*
X8282584Y8893657D01*
X8273186Y8881719D01*
X8265312Y8868714D01*
G37*
G36*
X3552647Y8866530D02*
G01*
X3608730Y8866530D01*
X3608730Y8922613D01*
X3606596Y8921648D01*
X3593592Y8913774D01*
X3581603Y8904427D01*
X3570884Y8893657D01*
X3561486Y8881719D01*
X3553612Y8868714D01*
G37*
G36*
X8433155Y8866530D02*
G01*
X8489238Y8866530D01*
X8488273Y8868714D01*
X8480399Y8881719D01*
X8471001Y8893657D01*
X8460282Y8904427D01*
X8448294Y8913774D01*
X8435289Y8921648D01*
X8433155Y8922613D01*
G37*
G36*
X3071469Y8866530D02*
G01*
X3127552Y8866530D01*
X3126587Y8868714D01*
X3118713Y8881719D01*
X3109315Y8893657D01*
X3098596Y8904427D01*
X3086608Y8913774D01*
X3073603Y8921648D01*
X3071469Y8922613D01*
G37*
G36*
X2902661Y8866530D02*
G01*
X2958744Y8866530D01*
X2958744Y8922613D01*
X2956610Y8921648D01*
X2943606Y8913774D01*
X2931617Y8904427D01*
X2920898Y8893657D01*
X2911500Y8881719D01*
X2903626Y8868714D01*
G37*
G36*
X7783169Y8866530D02*
G01*
X7839252Y8866530D01*
X7838287Y8868714D01*
X7830413Y8881719D01*
X7821015Y8893657D01*
X7810296Y8904427D01*
X7798308Y8913774D01*
X7785303Y8921648D01*
X7783169Y8922613D01*
G37*
G36*
X3721455Y8866530D02*
G01*
X3777538Y8866530D01*
X3776573Y8868714D01*
X3768699Y8881719D01*
X3759301Y8893657D01*
X3748582Y8904427D01*
X3736594Y8913774D01*
X3723589Y8921648D01*
X3721455Y8922613D01*
G37*

%LPD*%
D10*
X5998463Y1757679D02*
G01*
X6362700Y1358900D01*
X8610600Y1371600D01*
X9080500Y1778000D01*
X9080500Y2019300D01*
X9083040Y2550160D01*
X9067800Y3238500D01*
X9271000Y3581400D01*
X9263379Y3936745D01*
X9262872Y3936745D01*
X9258300Y4368800D01*
X5998463Y1756638D02*
G01*
X6248425Y2006600D01*
X1877999Y1585620D02*
G01*
X5827445Y1585620D01*
X5998463Y1756638D01*
X8655964Y4325264D02*
G01*
X8407400Y4076700D01*
X8826500Y5321300D02*
G01*
X8826500Y4495800D01*
X8655964Y4325264D01*
X1877999Y1585620D02*
G01*
X1877999Y2997200D01*
X856106Y7413193D02*
G01*
X658418Y7610881D01*
X658418Y8599804D01*
X843406Y8784793D01*
X1092200Y1848637D02*
G01*
X1087120Y1843557D01*
X1087120Y1092200D01*
X1877999Y2997200D02*
G01*
X2108200Y3227400D01*
X2108200Y5295900D01*
X1092200Y2108707D02*
G01*
X872134Y2108707D01*
X872134Y2108707D02*
G01*
X649300Y2331542D01*
X649300Y3568700D01*
X1092200Y1978685D02*
G01*
X1092200Y2108707D01*
X1092200Y1978685D02*
G01*
X1092200Y1848637D01*
X8864600Y7289800D02*
G01*
X8826500Y7251700D01*
X8826500Y5321300D01*
X1506093Y7413193D02*
G01*
X856106Y7413193D01*
X1506093Y7413193D02*
G01*
X1760499Y7413193D01*
X2284399Y6889292D01*
X2284399Y6858000D01*
X1493393Y8784793D02*
G01*
X843406Y8784793D01*
X3015106Y8810193D02*
G01*
X1518793Y8810193D01*
X1493393Y8784793D01*
X3665093Y8810193D02*
G01*
X3015106Y8810193D01*
X5453506Y8810193D02*
G01*
X3665093Y8810193D01*
X6103493Y8810193D02*
G01*
X5453506Y8810193D01*
X7726806Y8810193D02*
G01*
X6103493Y8810193D01*
X8376793Y8810193D02*
G01*
X7726806Y8810193D01*
X292100Y6299200D02*
G01*
X292100Y4864100D01*
X7048500Y3263900D02*
G01*
X7810500Y2501900D01*
X6756400Y3263900D02*
G01*
X7048500Y3263900D01*
X7048500Y3263900D02*
G01*
X7048500Y4622164D01*
X8610600Y6184264D01*
X8610600Y7289800D01*
X4457700Y9353550D02*
G01*
X1911350Y9353550D01*
X1905000Y9347200D01*
X9436100Y2565400D02*
G01*
X9782200Y2911500D01*
X9782200Y4076700D01*
X292100Y4864100D02*
G01*
X849299Y4306900D01*
X849299Y3568700D01*
X9029700Y9321800D02*
G01*
X6769100Y9321800D01*
X6743700Y9347200D01*
X6743700Y9347200D02*
G01*
X4464050Y9347200D01*
X4457700Y9353550D01*
X4457700Y9353550D02*
G01*
X4457700Y9359900D01*
X1346200Y2108707D02*
G01*
X1346200Y3071799D01*
X849299Y3568700D01*
X8594445Y3568700D02*
G01*
X8627465Y3568700D01*
X8407400Y3568700D02*
G01*
X8594445Y3568700D01*
X8674100Y2565400D02*
G01*
X8594445Y2645054D01*
X8594445Y3568700D01*
X8627468Y3568700D02*
G01*
X8912199Y3853431D01*
X8912199Y4076700D01*
X8376793Y8360206D02*
G01*
X8431199Y8305800D01*
X9029700Y8305800D01*
X7726806Y8360206D02*
G01*
X8376793Y8360206D01*
X6103493Y8360206D02*
G01*
X6714693Y8360206D01*
X6743700Y8331200D01*
X5453506Y8360206D02*
G01*
X6103493Y8360206D01*
X3665093Y8360206D02*
G01*
X4441393Y8360206D01*
X4457700Y8343900D01*
X3015106Y8360206D02*
G01*
X3665093Y8360206D01*
X1493393Y8334806D02*
G01*
X843406Y8334806D01*
X1905000Y8331200D02*
G01*
X1496999Y8331200D01*
X1493393Y8334806D01*
X2084400Y6299200D02*
G01*
X1308100Y6299200D01*
X3502152Y5308625D02*
G01*
X2511577Y6299200D01*
X2084400Y6299200D01*
X1506093Y6963206D02*
G01*
X1979193Y6963206D01*
X2084400Y6858000D01*
X856106Y6963206D02*
G01*
X1506093Y6963206D01*
X3708425Y5308625D02*
G01*
X3502152Y5308625D01*
X6756400Y2247900D02*
G01*
X6743700Y2260600D01*
X6248425Y2260600D01*
X7810500Y2247900D02*
G01*
X6756400Y2247900D01*
X7620000Y3797300D02*
G01*
X8382000Y3797300D01*
X8407400Y3822700D01*
X1308100Y4864100D02*
G01*
X1422400Y4864100D01*
X1854200Y5295900D01*
X7975600Y5295900D02*
G01*
X8547100Y5295900D01*
X8572500Y5321300D01*
X6248425Y3784600D02*
G01*
X6591300Y3784600D01*
X6604000Y3797300D01*
X6248425Y5308600D02*
G01*
X6946900Y5308600D01*
X6959600Y5295900D01*
X1600225Y2107717D02*
G01*
X1678000Y2185492D01*
X1678000Y2997200D01*
X1308100Y6299200D02*
G01*
X1511300Y6502400D01*
X1505965Y6963155D01*
X3708400Y4546600D02*
G01*
X4457700Y4559300D01*
X5453634Y6291579D01*
X5453634Y8360155D01*
X3706627Y4796030D02*
G01*
X4151127Y4808730D01*
X4457700Y5118100D01*
X4455927Y8339330D01*
X3708400Y5054600D02*
G01*
X3975100Y5054600D01*
X4216400Y5295900D01*
X4216400Y5930900D01*
X1892300Y7861300D01*
X1905000Y8331200D01*
X1905000Y9347200D02*
G01*
X1133678Y9347200D01*
X292100Y8505621D01*
X292100Y6299200D01*
X1612900Y1079500D02*
G01*
X1612900Y1079500D01*
X1600225Y2108200D01*
X8610600Y7289800D02*
G01*
X8610600Y7442200D01*
X8712200Y7543800D01*
X8712200Y7543800D01*
X8966200Y7543800D01*
X9782200Y6727799D01*
X9782200Y4076700D01*
X6248425Y4292600D02*
G01*
X5994400Y4533900D01*
X5994400Y5448300D01*
X7997672Y7289800D01*
X8102600Y7289800D01*
X6248425Y5054600D02*
G01*
X7061200Y5054600D01*
X8343900Y6350000D01*
X8356600Y7289800D01*
X3708400Y4292600D02*
G01*
X4711700Y4305300D01*
X6108700Y6819900D01*
X7747000Y7785100D01*
X7734300Y8356600D01*
X1087120Y1092200D02*
G01*
X1308100Y863600D01*
X1562100Y850900D01*
X1562100Y850900D01*
X1765300Y850900D01*
X1879600Y965200D01*
X1878076Y1585721D01*
X9029700Y9321800D02*
G01*
X9245600Y9321800D01*
X9499600Y9093200D01*
X9512300Y8153400D01*
X8915400Y7696200D01*
X8915400Y7543800D01*
X6248400Y2006600D02*
G01*
X7133081Y1808987D01*
X7429500Y1752600D01*
X7810500Y1739900D01*
X7810500Y2501900D02*
G01*
X7872907Y2501900D01*
X8191500Y2336800D01*
X8191500Y1790700D01*
X7988300Y1536700D01*
X6477000Y1524000D01*
X6248425Y1752600D01*
X2108200Y5295900D02*
G01*
X2095500Y5537200D01*
X1943100Y5651500D01*
X1755647Y5648452D01*
X1482344Y5641339D01*
X1028700Y5638800D01*
X685800Y6045200D01*
X664971Y6684263D01*
X664971Y7221981D01*
X856234Y7413244D01*
G01*
X2084400Y6858000D03*
G01*
X2284399Y6858000D03*
G01*
X849299Y3568700D03*
G01*
X649300Y3568700D03*
G01*
X1678000Y2997200D03*
G01*
X1877999Y2997200D03*
D11*
G01*
X8572500Y5321300D03*
G01*
X8826500Y5321300D03*
G01*
X1854200Y5295900D03*
G01*
X2108200Y5295900D03*
D12*
G01*
X9782200Y4076700D03*
G01*
X8912199Y4076700D03*
D13*
G01*
X1615439Y1092200D03*
D14*
G01*
X1087120Y1092200D03*
D15*
G01*
X8102600Y7289800D03*
G01*
X8356600Y7289800D03*
G01*
X8610600Y7289800D03*
G01*
X8864600Y7289800D03*
G01*
X7810500Y2501900D03*
G01*
X7810500Y2247900D03*
G01*
X7810500Y1993900D03*
G01*
X7810500Y1739900D03*
D12*
G01*
X9436100Y2565400D03*
G01*
X8674100Y2565400D03*
D16*
G01*
X8407400Y3568700D03*
D12*
G01*
X8407400Y3822700D03*
G01*
X8407400Y4076700D03*
D17*
G01*
X6959600Y5295900D03*
G01*
X7975600Y5295900D03*
G01*
X1308100Y6299200D03*
G01*
X292100Y6299200D03*
G01*
X292100Y4864100D03*
G01*
X1308100Y4864100D03*
G01*
X6604000Y3797300D03*
G01*
X7620000Y3797300D03*
G01*
X1905000Y8331200D03*
G01*
X1905000Y9347200D03*
G01*
X4457700Y8343900D03*
G01*
X4457700Y9359900D03*
G01*
X6743700Y8331200D03*
G01*
X6743700Y9347200D03*
G01*
X9029700Y8305800D03*
G01*
X9029700Y9321800D03*
D18*
G01*
X1506093Y6963206D03*
G01*
X856106Y6963206D03*
G01*
X856106Y7413193D03*
G01*
X1506093Y7413193D03*
G01*
X1493393Y8334806D03*
G01*
X843406Y8334806D03*
G01*
X843406Y8784793D03*
G01*
X1493393Y8784793D03*
G01*
X3665093Y8360206D03*
G01*
X3015106Y8360206D03*
G01*
X3015106Y8810193D03*
G01*
X3665093Y8810193D03*
G01*
X6103493Y8360206D03*
G01*
X5453506Y8360206D03*
G01*
X5453506Y8810193D03*
G01*
X6103493Y8810193D03*
G01*
X8376793Y8360206D03*
G01*
X7726806Y8360206D03*
G01*
X7726806Y8810193D03*
G01*
X8376793Y8810193D03*
D19*
G01*
X3708400Y5308625D03*
D20*
G01*
X3708425Y5054574D03*
G01*
X3708425Y4800574D03*
G01*
X3708425Y4546574D03*
G01*
X3708425Y4292574D03*
G01*
X3708425Y4038574D03*
G01*
X3708425Y3784574D03*
G01*
X3708425Y3530574D03*
G01*
X3708425Y3276574D03*
G01*
X3708425Y3022574D03*
G01*
X3708425Y2768574D03*
G01*
X3708425Y2514574D03*
G01*
X3708425Y2260574D03*
G01*
X3708425Y2006574D03*
G01*
X3708425Y1752574D03*
G01*
X6248425Y1752574D03*
G01*
X6248425Y2006574D03*
G01*
X6248425Y2260574D03*
G01*
X6248425Y2514574D03*
G01*
X6248425Y2768574D03*
G01*
X6248425Y3022574D03*
G01*
X6248425Y3276574D03*
G01*
X6248425Y3530574D03*
G01*
X6248425Y3784574D03*
G01*
X6248425Y4038574D03*
G01*
X6248425Y4292574D03*
G01*
X6248425Y4546574D03*
G01*
X6248425Y4800574D03*
G01*
X6248425Y5054574D03*
G01*
X6248425Y5308574D03*
D21*
G01*
X1346200Y2108682D03*
G01*
X1600225Y2107692D03*
D22*
G01*
X1092200Y2108707D03*
D17*
G01*
X6756400Y2247900D03*
G01*
X6756400Y3263900D03*
M02*
