G04 Layer: TopSilkscreenLayer*
G04 EasyEDA v6.5.40, 2024-02-13 21:11:00*
G04 0db29987ae6842e5b8bd60c629fb3438,0aba9cac1add4106ad3baa3c3c759302,10*
G04 Gerber Generator version 0.2*
G04 Scale: 100 percent, Rotated: No, Reflected: No *
G04 Dimensions in millimeters *
G04 leading zeros omitted , absolute positions ,4 integer and 5 decimal *
%FSLAX45Y45*%
%MOMM*%

%ADD10C,0.1524*%
%ADD11C,0.6000*%
%ADD12C,0.1501*%
%ADD13C,0.2032*%
%ADD14C,0.2540*%
%ADD15C,0.2030*%
%ADD16C,0.1199*%
%ADD17C,1.0000*%
%ADD18C,0.8001*%
%ADD19C,0.4000*%
%ADD20C,0.3000*%
%ADD21C,0.0180*%

%LPD*%
G36*
X8881821Y1728622D02*
G01*
X8873134Y1725828D01*
X8863634Y1716328D01*
X8858402Y1705254D01*
X8856675Y1690776D01*
X8855760Y1679752D01*
X8856065Y1668475D01*
X8855862Y1605381D01*
X8850884Y1600657D01*
X8846718Y1599641D01*
X8840876Y1592072D01*
X8840876Y1585671D01*
X8845143Y1579016D01*
X8849106Y1575968D01*
X8851239Y1573936D01*
X8853119Y1571396D01*
X8852306Y1555292D01*
X8851798Y1551076D01*
X8844534Y1545996D01*
X8844381Y1544675D01*
X8843619Y1543253D01*
X8841587Y1540713D01*
X8841587Y1536801D01*
X8845397Y1529435D01*
X8847378Y1528318D01*
X8850020Y1527708D01*
X8851188Y1527200D01*
X8852509Y1525930D01*
X8850934Y1522730D01*
X8849004Y1520139D01*
X8845245Y1516176D01*
X8845245Y1508302D01*
X8848293Y1503883D01*
X8854033Y1497126D01*
X8854033Y1490014D01*
X8860586Y1486204D01*
X8863380Y1481886D01*
X8865514Y1479550D01*
X8867902Y1477365D01*
X8870289Y1475638D01*
X8873083Y1474012D01*
X8877604Y1478381D01*
X8880805Y1482140D01*
X8885123Y1488033D01*
X8890914Y1490167D01*
X8892743Y1494332D01*
X8892794Y1501648D01*
X8897416Y1506016D01*
X8897366Y1516634D01*
X8898788Y1518716D01*
X8901734Y1518716D01*
X8905189Y1514551D01*
X8906459Y1512417D01*
X8906814Y1511300D01*
X8907627Y1510131D01*
X8912453Y1505864D01*
X8915044Y1503832D01*
X8921445Y1503832D01*
X8929624Y1510538D01*
X8931300Y1511604D01*
X8934602Y1513179D01*
X8941054Y1505864D01*
X8941968Y1491030D01*
X8939225Y1487271D01*
X8925306Y1485696D01*
X8919514Y1483309D01*
X8916277Y1479296D01*
X8975801Y1479296D01*
X8975953Y1486001D01*
X8979103Y1489151D01*
X8981135Y1491996D01*
X8983726Y1496618D01*
X8979052Y1501343D01*
X8977528Y1505864D01*
X8979814Y1507744D01*
X8983827Y1508252D01*
X8990126Y1509623D01*
X8997035Y1511858D01*
X9003233Y1514449D01*
X9007297Y1516938D01*
X9008922Y1518208D01*
X9011564Y1519326D01*
X9016136Y1522374D01*
X9019692Y1524050D01*
X9021470Y1525778D01*
X9022181Y1526082D01*
X9023248Y1525930D01*
X9027058Y1524457D01*
X9029242Y1520291D01*
X9036354Y1508810D01*
X9038488Y1504797D01*
X9039961Y1501394D01*
X9041231Y1495958D01*
X9040266Y1494586D01*
X9038742Y1493367D01*
X9035440Y1491386D01*
X9023299Y1491640D01*
X9022267Y1491030D01*
X9069019Y1491030D01*
X9074708Y1497380D01*
X9077452Y1500987D01*
X9079280Y1504594D01*
X9082938Y1506778D01*
X9084005Y1506931D01*
X9084716Y1506169D01*
X9086088Y1502308D01*
X9086494Y1499768D01*
X9086596Y1490014D01*
X9083243Y1486306D01*
X9081262Y1485036D01*
X9079077Y1484223D01*
X9076740Y1483969D01*
X9074251Y1483969D01*
X9069019Y1491030D01*
X9022267Y1491030D01*
X9016593Y1487678D01*
X9011869Y1481531D01*
X9011056Y1471879D01*
X9013494Y1469186D01*
X9029903Y1469339D01*
X9033916Y1467459D01*
X9033916Y1461058D01*
X9029141Y1447342D01*
X9027312Y1440586D01*
X9023197Y1433118D01*
X9002877Y1433728D01*
X8999626Y1435150D01*
X8994597Y1443888D01*
X8993733Y1448612D01*
X8992362Y1453337D01*
X8989314Y1461566D01*
X8989212Y1464564D01*
X8988653Y1467154D01*
X8987231Y1471269D01*
X8983675Y1473200D01*
X8981338Y1474165D01*
X8978341Y1474927D01*
X8975801Y1479296D01*
X8916277Y1479296D01*
X8914739Y1477365D01*
X8914993Y1468729D01*
X8915603Y1465884D01*
X8920835Y1463090D01*
X8942425Y1464259D01*
X8945626Y1462328D01*
X8944356Y1445056D01*
X8943594Y1431239D01*
X8941358Y1428597D01*
X8939225Y1426819D01*
X8935567Y1424635D01*
X8927693Y1423416D01*
X8924239Y1422400D01*
X8921292Y1421282D01*
X8918803Y1419504D01*
X8913368Y1419504D01*
X8906510Y1430020D01*
X8904122Y1434236D01*
X8894216Y1449324D01*
X8890609Y1453692D01*
X8881414Y1449171D01*
X8879433Y1448409D01*
X8874810Y1445514D01*
X8872270Y1444193D01*
X8868206Y1442618D01*
X8864396Y1440586D01*
X8860485Y1438097D01*
X8853678Y1432509D01*
X8852662Y1427327D01*
X8854694Y1415897D01*
X8854846Y1413306D01*
X8855659Y1409547D01*
X8857640Y1402740D01*
X8858605Y1392428D01*
X8856167Y1389989D01*
X8854795Y1389024D01*
X8853322Y1388516D01*
X8852814Y1387754D01*
X8845804Y1381150D01*
X8840012Y1379067D01*
X8836863Y1378254D01*
X8833916Y1378153D01*
X8828227Y1382217D01*
X8812682Y1394460D01*
X8808516Y1398320D01*
X8806281Y1399794D01*
X8802928Y1401165D01*
X8798356Y1396644D01*
X8796324Y1394917D01*
X8794242Y1393748D01*
X8788196Y1389278D01*
X8778392Y1380337D01*
X8774379Y1376222D01*
X8772702Y1371650D01*
X8773820Y1369263D01*
X8774582Y1365859D01*
X8776462Y1361338D01*
X8783624Y1346352D01*
X8787485Y1337614D01*
X8787485Y1331264D01*
X8772702Y1314704D01*
X8767622Y1312672D01*
X8765794Y1314500D01*
X8764676Y1315161D01*
X8763914Y1315364D01*
X8761933Y1317244D01*
X8753449Y1323187D01*
X8753043Y1323949D01*
X8751366Y1324762D01*
X8747760Y1327200D01*
X8739225Y1333754D01*
X8736990Y1335227D01*
X8732926Y1330553D01*
X8730589Y1327150D01*
X8718448Y1310944D01*
X8708491Y1296924D01*
X8708491Y1291945D01*
X8718194Y1281125D01*
X8723223Y1274927D01*
X8728811Y1267155D01*
X8732621Y1262888D01*
X8732621Y1259281D01*
X8727948Y1250543D01*
X8715806Y1230934D01*
X8713927Y1231087D01*
X8711082Y1231900D01*
X8705342Y1233982D01*
X8697874Y1236218D01*
X8691727Y1237691D01*
X8687358Y1239012D01*
X8682177Y1241044D01*
X8678875Y1240129D01*
X8672423Y1225448D01*
X8666175Y1209040D01*
X8661704Y1198219D01*
X8662619Y1196746D01*
X8667140Y1192225D01*
X8671204Y1189837D01*
X8676538Y1186027D01*
X8679332Y1184402D01*
X8694013Y1173480D01*
X8696248Y1169212D01*
X8693556Y1162659D01*
X8692134Y1158087D01*
X8689035Y1145590D01*
X8685885Y1136700D01*
X8680500Y1134211D01*
X8676132Y1134110D01*
X8672982Y1133652D01*
X8668816Y1132382D01*
X8649614Y1132027D01*
X8647938Y1130909D01*
X8646312Y1128877D01*
X8643416Y1124305D01*
X8643264Y1114145D01*
X8641994Y1098092D01*
X8641334Y1092860D01*
X8640622Y1089152D01*
X8642502Y1084580D01*
X8643670Y1083208D01*
X8645347Y1082294D01*
X8651036Y1081074D01*
X8654897Y1078382D01*
X8662670Y1074724D01*
X8664651Y1073302D01*
X8667140Y1071930D01*
X8670899Y1070508D01*
X8677148Y1064310D01*
X8676995Y1038098D01*
X8675827Y1035812D01*
X8674303Y1034338D01*
X8671255Y1032459D01*
X8662060Y1032459D01*
X8654389Y1028446D01*
X8645245Y1026566D01*
X8642908Y1024737D01*
X8641435Y1022858D01*
X8639860Y1019556D01*
X8641029Y1014171D01*
X8642248Y1011377D01*
X8643366Y989888D01*
X8643366Y985215D01*
X8645652Y981151D01*
X8647430Y978916D01*
X8649919Y976985D01*
X8679840Y977087D01*
X8684615Y970330D01*
X8686952Y960119D01*
X8688628Y954430D01*
X8690965Y949045D01*
X8690965Y944727D01*
X8687511Y941273D01*
X8684869Y939241D01*
X8679891Y936040D01*
X8676538Y933246D01*
X8671966Y932230D01*
X8669070Y929335D01*
X8665514Y926388D01*
X8658656Y921258D01*
X8659571Y917194D01*
X8661704Y911402D01*
X8666784Y899566D01*
X8668867Y890422D01*
X8670239Y886612D01*
X8671915Y883005D01*
X8675776Y876808D01*
X8695537Y880262D01*
X8699957Y881227D01*
X8706713Y883259D01*
X8709202Y883666D01*
X8711285Y883666D01*
X8715857Y879348D01*
X8720988Y868070D01*
X8724392Y861110D01*
X8726170Y856894D01*
X8725306Y851662D01*
X8705697Y827074D01*
X8701786Y821740D01*
X8705850Y814476D01*
X8706510Y814019D01*
X8708644Y810717D01*
X8715248Y801878D01*
X8718346Y796645D01*
X8721140Y792734D01*
X8722563Y790143D01*
X8727795Y784402D01*
X8730132Y784555D01*
X8732570Y785418D01*
X8738971Y788517D01*
X8749436Y793038D01*
X8757767Y795985D01*
X8763355Y798474D01*
X8768080Y793750D01*
X8775395Y785317D01*
X8781897Y776833D01*
X8783066Y772160D01*
X8780526Y768400D01*
X8778341Y763828D01*
X8769908Y742899D01*
X8769908Y737920D01*
X8773464Y734263D01*
X8777681Y730707D01*
X8780678Y728522D01*
X8797188Y709980D01*
X8799576Y709980D01*
X8802319Y712774D01*
X8813241Y721715D01*
X8815781Y723544D01*
X8819235Y725576D01*
X8825433Y729996D01*
X8829548Y733755D01*
X8833713Y734872D01*
X8843111Y727456D01*
X8845346Y725424D01*
X8847124Y724204D01*
X8848750Y723595D01*
X8850122Y722477D01*
X8851493Y720902D01*
X8853881Y717042D01*
X8851696Y698754D01*
X8850122Y691540D01*
X8848902Y687628D01*
X8848902Y677976D01*
X8850833Y676097D01*
X8851900Y675386D01*
X8855354Y673811D01*
X8860993Y670509D01*
X8866124Y669645D01*
X8868460Y668985D01*
X8872372Y666953D01*
X8878519Y664413D01*
X8881719Y661009D01*
X8886799Y662076D01*
X8888882Y665632D01*
X8905697Y689813D01*
X8908897Y693470D01*
X8912910Y693470D01*
X8915552Y691540D01*
X8918041Y690422D01*
X8925052Y688035D01*
X8931910Y685038D01*
X8934856Y681837D01*
X8935313Y647141D01*
X8938768Y644194D01*
X8941409Y642467D01*
X8945219Y640638D01*
X8975039Y639521D01*
X8978900Y641248D01*
X8982354Y651408D01*
X8984792Y657504D01*
X8986316Y666750D01*
X8990431Y674471D01*
X8994089Y675690D01*
X9016949Y675690D01*
X9019844Y672744D01*
X9020810Y663549D01*
X9022435Y659638D01*
X9023604Y655015D01*
X9024569Y649884D01*
X9025686Y645363D01*
X9027210Y641705D01*
X9030868Y639470D01*
X9062059Y640689D01*
X9066022Y643026D01*
X9070238Y643026D01*
X9073235Y646734D01*
X9074556Y658418D01*
X9075470Y670153D01*
X9075623Y683209D01*
X9078518Y686104D01*
X9080449Y687730D01*
X9082887Y689305D01*
X9087866Y689508D01*
X9094774Y690829D01*
X9101734Y692759D01*
X9106306Y690118D01*
X9108033Y686358D01*
X9109710Y683818D01*
X9113469Y674827D01*
X9119412Y666445D01*
X9123121Y660450D01*
X9128455Y659333D01*
X9140698Y664972D01*
X9143847Y666699D01*
X9146336Y668375D01*
X9149486Y670001D01*
X9158935Y674065D01*
X9162084Y675792D01*
X9163862Y677113D01*
X9164929Y678332D01*
X9164980Y684936D01*
X9163862Y687730D01*
X9159595Y712825D01*
X9159341Y717753D01*
X9163659Y721055D01*
X9172397Y726592D01*
X9176512Y729742D01*
X9180982Y732332D01*
X9185097Y732332D01*
X9193479Y724865D01*
X9207601Y709980D01*
X9210751Y707593D01*
X9217863Y711454D01*
X9223451Y717245D01*
X9229953Y723188D01*
X9236862Y729945D01*
X9244685Y736904D01*
X9244787Y744575D01*
X9232849Y772007D01*
X9232849Y777240D01*
X9238589Y784656D01*
X9243314Y790346D01*
X9250730Y798474D01*
X9254185Y798474D01*
X9257385Y796036D01*
X9260586Y794308D01*
X9270593Y789838D01*
X9273641Y788111D01*
X9276334Y786130D01*
X9279432Y784555D01*
X9285732Y782116D01*
X9290507Y785368D01*
X9294977Y794766D01*
X9299752Y803910D01*
X9304985Y814832D01*
X9306001Y817829D01*
X9306814Y822045D01*
X9292488Y844905D01*
X9290100Y849071D01*
X9288424Y850747D01*
X9288424Y855878D01*
X9293860Y865225D01*
X9296704Y871219D01*
X9297771Y874115D01*
X9303258Y880465D01*
X9310928Y879246D01*
X9322054Y876604D01*
X9335566Y872591D01*
X9339478Y873709D01*
X9341967Y878890D01*
X9343390Y882751D01*
X9345066Y888288D01*
X9349181Y899566D01*
X9355582Y915263D01*
X9355683Y915873D01*
X9354870Y917397D01*
X9352686Y919683D01*
X9349689Y922375D01*
X9340392Y929386D01*
X9336278Y933043D01*
X9332620Y935634D01*
X9327692Y939952D01*
X9326829Y941171D01*
X9327896Y953566D01*
X9330436Y962253D01*
X9331401Y966724D01*
X9331553Y970381D01*
X9335109Y975004D01*
X9366859Y975258D01*
X9370669Y978458D01*
X9371330Y981710D01*
X9371634Y985926D01*
X9371787Y994257D01*
X9373971Y1000201D01*
X9374073Y1004011D01*
X9374632Y1007871D01*
X9376206Y1014730D01*
X9375495Y1018184D01*
X9374733Y1020064D01*
X9373362Y1021740D01*
X9366148Y1023518D01*
X9361728Y1025042D01*
X9356801Y1027480D01*
X9354515Y1027531D01*
X9351873Y1027887D01*
X9348927Y1028903D01*
X9345980Y1030376D01*
X9343491Y1032154D01*
X9341053Y1034237D01*
X9341104Y1042771D01*
X9341510Y1048359D01*
X9343644Y1065174D01*
X9348876Y1068070D01*
X9360357Y1070051D01*
X9367266Y1071727D01*
X9373565Y1072997D01*
X9375698Y1075385D01*
X9376359Y1088440D01*
X9373971Y1097635D01*
X9373971Y1118565D01*
X9371025Y1125067D01*
X9366808Y1125880D01*
X9339681Y1127861D01*
X9336938Y1128369D01*
X9334703Y1134465D01*
X9332061Y1144016D01*
X9331401Y1147622D01*
X9330436Y1150924D01*
X9327896Y1157528D01*
X9327896Y1163878D01*
X9334398Y1170381D01*
X9344507Y1179118D01*
X9345523Y1180541D01*
X9350654Y1184706D01*
X9356191Y1188669D01*
X9358020Y1193546D01*
X9355683Y1198930D01*
X9351518Y1212900D01*
X9349130Y1218742D01*
X9346539Y1226159D01*
X9342983Y1230223D01*
X9341459Y1229664D01*
X9336989Y1229207D01*
X9316567Y1228445D01*
X9307423Y1225804D01*
X9304121Y1228242D01*
X9292082Y1252016D01*
X9292082Y1257655D01*
X9308134Y1275181D01*
X9314637Y1282903D01*
X9315500Y1288440D01*
X9308846Y1300988D01*
X9302242Y1312011D01*
X9296857Y1320190D01*
X9294926Y1323644D01*
X9290050Y1326235D01*
X9270949Y1316634D01*
X9259163Y1310335D01*
X9253474Y1310335D01*
X9251899Y1312367D01*
X9245295Y1318006D01*
X9241129Y1322374D01*
X9237218Y1326896D01*
X9234678Y1330401D01*
X9233408Y1332636D01*
X9235287Y1337106D01*
X9238488Y1342999D01*
X9240570Y1348587D01*
X9243314Y1353921D01*
X9244177Y1357477D01*
X9245193Y1359865D01*
X9246666Y1362405D01*
X9250476Y1367485D01*
X9249054Y1372260D01*
X9242399Y1380032D01*
X9238589Y1383995D01*
X9222740Y1396949D01*
X9215221Y1404010D01*
X9212478Y1402232D01*
X9210852Y1400556D01*
X9209024Y1398016D01*
X9203080Y1390802D01*
X9189212Y1374800D01*
X9184589Y1373276D01*
X9179509Y1377238D01*
X9176258Y1379270D01*
X9166453Y1386382D01*
X9162440Y1392377D01*
X9163710Y1398117D01*
X9165183Y1407718D01*
X9166555Y1414373D01*
X9166961Y1417320D01*
X9167063Y1420266D01*
X9167520Y1423873D01*
X9168688Y1429105D01*
X9167774Y1433372D01*
X9164878Y1434236D01*
X9162796Y1435354D01*
X9160865Y1436776D01*
X9157614Y1438706D01*
X9151670Y1441704D01*
X9151670Y1443329D01*
X9149283Y1443888D01*
X9146641Y1444955D01*
X9143238Y1446784D01*
X9139834Y1448968D01*
X9136684Y1451559D01*
X9134856Y1452626D01*
X9132062Y1453540D01*
X9129420Y1449832D01*
X9126524Y1445260D01*
X9125712Y1443431D01*
X9116923Y1432356D01*
X9116212Y1430985D01*
X9113875Y1427581D01*
X9107728Y1419504D01*
X9104376Y1418539D01*
X9096146Y1420825D01*
X9092285Y1422146D01*
X9090507Y1422958D01*
X9088069Y1423720D01*
X9083649Y1424584D01*
X9081465Y1428140D01*
X9081465Y1442415D01*
X9079280Y1448358D01*
X9079280Y1456639D01*
X9082887Y1459331D01*
X9098635Y1458214D01*
X9106509Y1454200D01*
X9109303Y1454200D01*
X9113012Y1454810D01*
X9116161Y1456537D01*
X9118600Y1459331D01*
X9120276Y1463192D01*
X9121140Y1466037D01*
X9120479Y1473962D01*
X9118752Y1486052D01*
X9121140Y1492199D01*
X9127693Y1495806D01*
X9130487Y1500936D01*
X9129471Y1505458D01*
X9128658Y1506829D01*
X9127337Y1507845D01*
X9122765Y1509318D01*
X9117279Y1518158D01*
X9117279Y1527606D01*
X9119819Y1534210D01*
X9120784Y1537563D01*
X9121089Y1539697D01*
X9125407Y1556258D01*
X9128048Y1569262D01*
X9129674Y1576171D01*
X9126626Y1592478D01*
X9126016Y1597660D01*
X9133636Y1610715D01*
X9136481Y1624634D01*
X9133890Y1639011D01*
X9128607Y1647952D01*
X9121495Y1655013D01*
X9122257Y1657908D01*
X9123527Y1660245D01*
X9126728Y1665122D01*
X9128455Y1668678D01*
X9127693Y1677873D01*
X9124238Y1686102D01*
X9115501Y1690878D01*
X9110522Y1689963D01*
X9104731Y1685645D01*
X9101734Y1677517D01*
X9096857Y1676501D01*
X9073032Y1690522D01*
X9069781Y1692198D01*
X9065056Y1694078D01*
X9059824Y1695754D01*
X9041790Y1699818D01*
X9037066Y1700530D01*
X9032036Y1700631D01*
X9016746Y1696262D01*
X9012885Y1693011D01*
X9009583Y1689811D01*
X9004300Y1684172D01*
X8999474Y1683004D01*
X8995918Y1682546D01*
X8990990Y1682445D01*
X8980322Y1691538D01*
X8977122Y1691538D01*
X8974988Y1688947D01*
X8973159Y1687271D01*
X8970264Y1685137D01*
X8960815Y1690776D01*
X8955786Y1689709D01*
X8954058Y1685036D01*
X8951823Y1684070D01*
X8949232Y1685798D01*
X8946794Y1686763D01*
X8942527Y1687626D01*
X8938920Y1684934D01*
X8939225Y1678787D01*
X8936685Y1677314D01*
X8930284Y1674520D01*
X8926931Y1673402D01*
X8921496Y1672336D01*
X8918498Y1676907D01*
X8916416Y1679600D01*
X8913774Y1682445D01*
X8907475Y1682445D01*
X8902039Y1677060D01*
X8899296Y1670050D01*
X8900526Y1663903D01*
X9034119Y1663903D01*
X9034627Y1665884D01*
X9038691Y1671675D01*
X9042908Y1671675D01*
X9048699Y1664411D01*
X9053626Y1666748D01*
X9058198Y1666748D01*
X9061754Y1663598D01*
X9067342Y1664411D01*
X9070695Y1662379D01*
X9072727Y1660804D01*
X9074861Y1658467D01*
X9080804Y1657400D01*
X9082989Y1654962D01*
X9081109Y1653387D01*
X9079992Y1652778D01*
X9079026Y1652524D01*
X9072981Y1649577D01*
X9068714Y1647850D01*
X9054795Y1643583D01*
X9048496Y1643583D01*
X9043670Y1645869D01*
X9041536Y1649323D01*
X9039707Y1653793D01*
X9037878Y1657045D01*
X9034830Y1661769D01*
X9034119Y1663903D01*
X8900526Y1663903D01*
X8902903Y1656994D01*
X8908491Y1650898D01*
X8911640Y1648002D01*
X8914739Y1646021D01*
X8914739Y1639570D01*
X8911793Y1638503D01*
X8903970Y1643583D01*
X8900261Y1640281D01*
X8903462Y1629714D01*
X8905091Y1624990D01*
X9003284Y1624990D01*
X9003588Y1626616D01*
X9008364Y1635302D01*
X9010192Y1635150D01*
X9012580Y1634236D01*
X9018727Y1630781D01*
X9022588Y1627987D01*
X9027414Y1627073D01*
X9030919Y1625955D01*
X9032862Y1625041D01*
X9066123Y1625041D01*
X9066936Y1625803D01*
X9071152Y1627530D01*
X9073032Y1627886D01*
X9074912Y1627886D01*
X9080652Y1631950D01*
X9087561Y1633270D01*
X9091980Y1634540D01*
X9097162Y1636776D01*
X9107932Y1636979D01*
X9112605Y1631594D01*
X9114536Y1624685D01*
X9111335Y1619605D01*
X9109659Y1619707D01*
X9107830Y1620469D01*
X9104477Y1622501D01*
X9069222Y1622755D01*
X9067038Y1624076D01*
X9066123Y1625041D01*
X9032862Y1625041D01*
X9035694Y1623669D01*
X9044178Y1622653D01*
X9045803Y1620418D01*
X9044076Y1618081D01*
X9027718Y1613712D01*
X9022232Y1612646D01*
X9012326Y1611325D01*
X9007957Y1612696D01*
X9006332Y1617421D01*
X9003588Y1623364D01*
X9003284Y1624990D01*
X8905091Y1624990D01*
X8907068Y1617624D01*
X8907526Y1614424D01*
X8916924Y1605330D01*
X8921292Y1607718D01*
X8930233Y1606499D01*
X8934856Y1608023D01*
X8941054Y1607007D01*
X8941054Y1606296D01*
X8940038Y1604670D01*
X8937447Y1601876D01*
X8933891Y1598574D01*
X8924798Y1590802D01*
X8920480Y1586077D01*
X8917076Y1580997D01*
X8914485Y1575562D01*
X8912707Y1571091D01*
X8908643Y1567484D01*
X8906306Y1568399D01*
X8903919Y1569923D01*
X8901531Y1571853D01*
X8899601Y1573072D01*
X8898788Y1573377D01*
X8897874Y1574190D01*
X8896502Y1576171D01*
X8896451Y1581150D01*
X8898940Y1586128D01*
X8899296Y1588109D01*
X8898940Y1590395D01*
X8896400Y1597253D01*
X8889949Y1602232D01*
X8886291Y1602232D01*
X8884005Y1604822D01*
X8883091Y1706829D01*
X8884716Y1719732D01*
X8886850Y1724304D01*
X8885428Y1726133D01*
X8882684Y1728317D01*
G37*
G36*
X8538921Y1184656D02*
G01*
X8533739Y1174140D01*
X8533739Y1168044D01*
X8532063Y1163726D01*
X8530844Y1161338D01*
X8529218Y1159103D01*
X8528354Y1145336D01*
X8526068Y1138529D01*
X8525306Y1134414D01*
X8524849Y1130249D01*
X8525052Y1123594D01*
X8522919Y1118920D01*
X8523732Y1116330D01*
X8524087Y1113434D01*
X8524189Y1108151D01*
X8520328Y1099058D01*
X8519617Y1084986D01*
X8516061Y1078026D01*
X8516264Y1069289D01*
X8516061Y1056030D01*
X8515197Y1028395D01*
X8511641Y1025753D01*
X8512302Y1018032D01*
X8515045Y1010259D01*
X8512505Y1004316D01*
X8512505Y994359D01*
X8514029Y991158D01*
X8514689Y978357D01*
X8514842Y949045D01*
X8516162Y907237D01*
X8512505Y899363D01*
X8512505Y891844D01*
X8508746Y881684D01*
X8509508Y876147D01*
X8512149Y865886D01*
X8514384Y854303D01*
X8516162Y841451D01*
X8519566Y834694D01*
X8521954Y830884D01*
X8525052Y827278D01*
X8524240Y823823D01*
X8523884Y820216D01*
X8523833Y813612D01*
X8527999Y804367D01*
X8530386Y799541D01*
X8532825Y795578D01*
X8533587Y791006D01*
X8534603Y787450D01*
X8536635Y782116D01*
X8534603Y776681D01*
X8535619Y773176D01*
X8537092Y770280D01*
X8540089Y765810D01*
X8542020Y759917D01*
X8543391Y756615D01*
X8545880Y751586D01*
X8547658Y746861D01*
X8554923Y737362D01*
X8555888Y731926D01*
X8558225Y728421D01*
X8564880Y714806D01*
X8572449Y702157D01*
X8572449Y696214D01*
X8575497Y691642D01*
X8576665Y689457D01*
X8577376Y687578D01*
X8581390Y681126D01*
X8585708Y674827D01*
X8592058Y666851D01*
X8594090Y663956D01*
X8595664Y661263D01*
X8602929Y652729D01*
X8608517Y646938D01*
X8607704Y637336D01*
X8609685Y635152D01*
X8611209Y632460D01*
X8613444Y627329D01*
X8619286Y623163D01*
X8619286Y616762D01*
X8617356Y614781D01*
X8617204Y613714D01*
X8617813Y612190D01*
X8620912Y607161D01*
X8622334Y605790D01*
X8623909Y605282D01*
X8628430Y605840D01*
X8630666Y603554D01*
X8632088Y601421D01*
X8633256Y599186D01*
X8638387Y591464D01*
X8640673Y586638D01*
X8644077Y581558D01*
X8647582Y577138D01*
X8650579Y574649D01*
X8662060Y562610D01*
X8673744Y556412D01*
X8678621Y551383D01*
X8683447Y550367D01*
X8684717Y548741D01*
X8686241Y547319D01*
X8692438Y543001D01*
X8696604Y540410D01*
X8699957Y537464D01*
X8703919Y532688D01*
X8707577Y527304D01*
X8710066Y522478D01*
X8711387Y518922D01*
X8718346Y511606D01*
X8721090Y510743D01*
X8723325Y509371D01*
X8726779Y506476D01*
X8731707Y497738D01*
X8736431Y494690D01*
X8738920Y493522D01*
X8743594Y492404D01*
X8748623Y490118D01*
X8753449Y487121D01*
X8756904Y484124D01*
X8758885Y481787D01*
X8764066Y481787D01*
X8767826Y476961D01*
X8770670Y477824D01*
X8775598Y476351D01*
X8779560Y475538D01*
X8785656Y474726D01*
X8789517Y466140D01*
X8791041Y463448D01*
X8792413Y461721D01*
X8793886Y460908D01*
X8798458Y457098D01*
X8800998Y456488D01*
X8803894Y455371D01*
X8806942Y453847D01*
X8809380Y452323D01*
X8811920Y450342D01*
X8815019Y444601D01*
X8819591Y440588D01*
X8821826Y439013D01*
X8825534Y437946D01*
X8830614Y436118D01*
X8840114Y437032D01*
X8847531Y437134D01*
X8856980Y436575D01*
X8858758Y433933D01*
X8873185Y432714D01*
X8885428Y431952D01*
X8890609Y435406D01*
X8896858Y432460D01*
X8902496Y429361D01*
X8916060Y432511D01*
X8919159Y433527D01*
X8924544Y436016D01*
X8931046Y438556D01*
X8938107Y440994D01*
X8949436Y444042D01*
X8969298Y444652D01*
X8976156Y441299D01*
X8977071Y438658D01*
X8973616Y434390D01*
X8969298Y432155D01*
X8967419Y430885D01*
X8965387Y429158D01*
X8958783Y425246D01*
X8954770Y422605D01*
X8951214Y421132D01*
X8942120Y415035D01*
X8941663Y410362D01*
X8944813Y403148D01*
X8946388Y391769D01*
X8948826Y380593D01*
X8951214Y373430D01*
X8952738Y373583D01*
X8954566Y374497D01*
X8958021Y376834D01*
X8958783Y379780D01*
X8963863Y391210D01*
X8975394Y404368D01*
X8981084Y410413D01*
X8987231Y415950D01*
X8992311Y421233D01*
X8995206Y422198D01*
X8997492Y423672D01*
X9006382Y431749D01*
X9014002Y431647D01*
X9017304Y428548D01*
X9021470Y425500D01*
X9029801Y417474D01*
X9035796Y410108D01*
X9039758Y403910D01*
X9043568Y397459D01*
X9048750Y393852D01*
X9050934Y397510D01*
X9061297Y422249D01*
X9061653Y423621D01*
X9061704Y425399D01*
X9050731Y435406D01*
X9048597Y436880D01*
X9044838Y439013D01*
X9042501Y444042D01*
X9045244Y446328D01*
X9069374Y443890D01*
X9073540Y442112D01*
X9078722Y440537D01*
X9082227Y438708D01*
X9086037Y436372D01*
X9090355Y433273D01*
X9093860Y431038D01*
X9100108Y427685D01*
X9106103Y427228D01*
X9109710Y427329D01*
X9113570Y428091D01*
X9119514Y433781D01*
X9122257Y435965D01*
X9122968Y436270D01*
X9123883Y436270D01*
X9125712Y432866D01*
X9130131Y430530D01*
X9133992Y429056D01*
X9140342Y427329D01*
X9154922Y426770D01*
X9156192Y429768D01*
X9157208Y433882D01*
X9158224Y434695D01*
X9164878Y432155D01*
X9180017Y432155D01*
X9184843Y434441D01*
X9189008Y432816D01*
X9194139Y438759D01*
X9195866Y438912D01*
X9198000Y439775D01*
X9202064Y442061D01*
X9206992Y442061D01*
X9208973Y446227D01*
X9213799Y449630D01*
X9216948Y451561D01*
X9220758Y453440D01*
X9225584Y458571D01*
X9228836Y461416D01*
X9233103Y464058D01*
X9235846Y470103D01*
X9241993Y474167D01*
X9245955Y473303D01*
X9252356Y480771D01*
X9256623Y481838D01*
X9263888Y488035D01*
X9267799Y494588D01*
X9273946Y499465D01*
X9278162Y503326D01*
X9283649Y509016D01*
X9287306Y517753D01*
X9294114Y521309D01*
X9295130Y521665D01*
X9296654Y522985D01*
X9299651Y526440D01*
X9302191Y526440D01*
X9307830Y531622D01*
X9312706Y535025D01*
X9316567Y536549D01*
X9328861Y549910D01*
X9339224Y551180D01*
X9349282Y563372D01*
X9346844Y568655D01*
X9347962Y570026D01*
X9351721Y572262D01*
X9360814Y577088D01*
X9366656Y586740D01*
X9366605Y589280D01*
X9366250Y591007D01*
X9365234Y593242D01*
X9367215Y595071D01*
X9374530Y595579D01*
X9387230Y605231D01*
X9389414Y609752D01*
X9390380Y611174D01*
X9391345Y612089D01*
X9392208Y612394D01*
X9392970Y612394D01*
X9392970Y623925D01*
X9396323Y626059D01*
X9399778Y629158D01*
X9406026Y635660D01*
X9410039Y647395D01*
X9424416Y661924D01*
X9424416Y667207D01*
X9430004Y673557D01*
X9432137Y676452D01*
X9432645Y677722D01*
X9433763Y679551D01*
X9436709Y683107D01*
X9439097Y692607D01*
X9450730Y707288D01*
X9449054Y712825D01*
X9454337Y717448D01*
X9457334Y720801D01*
X9457486Y722985D01*
X9457994Y725373D01*
X9459315Y729640D01*
X9466275Y738987D01*
X9468307Y741426D01*
X9468307Y751128D01*
X9471507Y759663D01*
X9472422Y763422D01*
X9472930Y766622D01*
X9475317Y770229D01*
X9476587Y773074D01*
X9477908Y775411D01*
X9481464Y780491D01*
X9481464Y787552D01*
X9488728Y799236D01*
X9491827Y805129D01*
X9494926Y811682D01*
X9491675Y816660D01*
X9493961Y821690D01*
X9495485Y836117D01*
X9497364Y838555D01*
X9498330Y840536D01*
X9500006Y844956D01*
X9501225Y847445D01*
X9502546Y851001D01*
X9504121Y856792D01*
X9504172Y867054D01*
X9507372Y876604D01*
X9507524Y886155D01*
X9507880Y891946D01*
X9508693Y898448D01*
X9506610Y899515D01*
X9504578Y901039D01*
X9503460Y903122D01*
X9503410Y905713D01*
X9504273Y908862D01*
X9505137Y911047D01*
X9500514Y915162D01*
X9500565Y918108D01*
X9501225Y921258D01*
X9502902Y927049D01*
X9503359Y1004773D01*
X9502190Y1036218D01*
X9499092Y1045311D01*
X9498482Y1065276D01*
X9494316Y1072337D01*
X9493453Y1088694D01*
X9490252Y1093622D01*
X9490151Y1103579D01*
X9489846Y1110437D01*
X9489084Y1119276D01*
X9485833Y1124254D01*
X9485223Y1139952D01*
X9482988Y1148080D01*
X9481515Y1151432D01*
X9480245Y1169314D01*
X9476740Y1175562D01*
X9473184Y1176629D01*
X9470847Y1174902D01*
X9471507Y1170584D01*
X9473488Y1164082D01*
X9476181Y1158595D01*
X9477197Y1137107D01*
X9480854Y1128014D01*
X9481515Y1113993D01*
X9483496Y1110589D01*
X9484766Y1092301D01*
X9485731Y1082497D01*
X9488779Y1073861D01*
X9490303Y1060856D01*
X9491878Y1051356D01*
X9493859Y1043584D01*
X9494012Y979017D01*
X9491522Y969975D01*
X9490760Y965606D01*
X9490151Y959815D01*
X9488982Y941374D01*
X9486087Y936955D01*
X9483547Y927049D01*
X9477095Y920242D01*
X9475724Y912926D01*
X9475012Y910844D01*
X9474098Y909675D01*
X9472574Y909167D01*
X9471101Y908253D01*
X9468408Y905967D01*
X9467596Y902157D01*
X9466580Y899312D01*
X9464548Y895248D01*
X9463074Y887323D01*
X9462566Y883158D01*
X9462465Y879754D01*
X9460484Y876706D01*
X9459315Y873810D01*
X9458452Y870864D01*
X9457283Y868019D01*
X9454540Y862736D01*
X9452203Y857605D01*
X9449917Y853389D01*
X9442399Y841908D01*
X9439554Y836676D01*
X9435541Y835761D01*
X9434576Y832510D01*
X9428226Y817067D01*
X9427159Y806704D01*
X9424924Y803351D01*
X9419590Y792632D01*
X9417253Y788974D01*
X9414916Y786028D01*
X9414916Y783437D01*
X9406280Y773277D01*
X9404604Y765352D01*
X9398457Y762101D01*
X9395764Y756513D01*
X9394139Y755497D01*
X9391243Y752602D01*
X9386468Y747115D01*
X9381845Y741375D01*
X9378746Y736854D01*
X9376765Y734669D01*
X9372549Y731062D01*
X9370923Y727354D01*
X9369907Y725678D01*
X9367824Y722934D01*
X9366148Y720191D01*
X9360154Y712622D01*
X9358172Y709777D01*
X9357868Y709015D01*
X9357868Y707999D01*
X9352889Y702716D01*
X9349892Y700024D01*
X9346539Y697992D01*
X9343745Y692150D01*
X9339427Y684784D01*
X9337700Y682650D01*
X9336481Y680516D01*
X9334296Y675690D01*
X9320987Y660501D01*
X9317278Y659638D01*
X9314840Y659384D01*
X9311944Y659638D01*
X9307779Y652983D01*
X9305950Y649173D01*
X9305950Y648106D01*
X9302546Y644753D01*
X9299956Y641502D01*
X9296806Y637032D01*
X9295384Y635508D01*
X9294063Y634898D01*
X9289796Y634746D01*
X9287916Y630885D01*
X9286138Y628345D01*
X9266072Y605790D01*
X9263634Y605790D01*
X9259519Y600862D01*
X9253372Y600557D01*
X9251188Y602640D01*
X9250121Y601726D01*
X9249257Y599795D01*
X9247936Y595477D01*
X9237827Y582218D01*
X9236151Y582218D01*
X9233255Y589381D01*
X9229547Y588365D01*
X9224314Y580694D01*
X9213494Y579729D01*
X9208719Y571500D01*
X9196628Y564540D01*
X9190024Y557733D01*
X9188246Y556463D01*
X9187078Y556463D01*
X9186011Y557428D01*
X9185097Y558698D01*
X9182658Y556971D01*
X9181236Y556260D01*
X9180118Y556006D01*
X9178442Y554939D01*
X9175445Y552043D01*
X9170365Y550418D01*
X9167063Y546049D01*
X9158732Y547014D01*
X9155938Y545287D01*
X9154718Y544271D01*
X9154160Y543458D01*
X9146641Y537057D01*
X9139783Y530250D01*
X9138158Y526084D01*
X9136227Y522173D01*
X9132570Y515620D01*
X9129928Y517245D01*
X9128048Y522376D01*
X9125762Y521817D01*
X9123121Y520801D01*
X9120073Y519023D01*
X9117076Y516686D01*
X9114383Y514045D01*
X9111640Y510895D01*
X9109303Y502615D01*
X9104731Y489864D01*
X9106357Y483717D01*
X9085580Y471271D01*
X9078163Y467461D01*
X9048191Y464769D01*
X9045244Y462940D01*
X9026245Y460908D01*
X9018930Y456844D01*
X9006484Y456031D01*
X8980271Y464210D01*
X8976156Y465328D01*
X8970619Y466090D01*
X8950909Y467563D01*
X8947607Y468528D01*
X8940444Y471119D01*
X8932824Y474573D01*
X8926728Y477926D01*
X8923934Y480517D01*
X8922105Y481685D01*
X8917279Y484022D01*
X8907881Y485190D01*
X8903665Y487629D01*
X8902649Y490829D01*
X8901684Y496316D01*
X8900109Y508304D01*
X8896299Y515620D01*
X8890965Y520192D01*
X8887155Y522782D01*
X8886037Y523087D01*
X8885123Y523087D01*
X8882176Y518109D01*
X8877808Y519176D01*
X8876588Y521258D01*
X8875877Y523392D01*
X8875166Y527202D01*
X8870035Y534924D01*
X8868968Y536143D01*
X8866479Y537514D01*
X8864396Y539089D01*
X8862009Y540461D01*
X8858758Y541426D01*
X8855456Y544931D01*
X8850731Y543052D01*
X8846566Y544017D01*
X8843822Y548386D01*
X8842451Y550113D01*
X8834983Y555142D01*
X8832189Y556412D01*
X8828176Y558800D01*
X8820454Y557733D01*
X8810548Y568756D01*
X8802624Y574548D01*
X8800033Y573278D01*
X8798052Y572770D01*
X8795156Y572719D01*
X8784742Y585114D01*
X8782354Y585216D01*
X8780170Y585876D01*
X8776512Y587502D01*
X8772601Y594817D01*
X8767572Y597865D01*
X8766149Y595630D01*
X8765590Y594258D01*
X8765438Y593293D01*
X8764879Y592277D01*
X8763457Y590804D01*
X8760663Y592785D01*
X8758224Y597865D01*
X8756192Y601116D01*
X8753043Y604875D01*
X8749487Y605790D01*
X8746286Y607161D01*
X8741054Y610057D01*
X8727440Y625144D01*
X8722969Y628904D01*
X8720074Y629513D01*
X8717737Y627583D01*
X8716060Y625348D01*
X8713673Y626414D01*
X8712149Y634339D01*
X8700211Y648614D01*
X8695537Y654659D01*
X8692235Y659333D01*
X8690711Y662228D01*
X8689086Y664514D01*
X8684768Y669493D01*
X8678773Y669493D01*
X8665667Y688340D01*
X8665210Y689660D01*
X8659418Y700227D01*
X8653830Y712063D01*
X8649766Y712876D01*
X8647176Y713638D01*
X8644229Y714857D01*
X8642197Y723138D01*
X8640978Y726694D01*
X8634933Y732332D01*
X8631732Y734822D01*
X8630462Y736498D01*
X8628532Y740511D01*
X8626652Y745185D01*
X8624671Y752043D01*
X8623503Y753821D01*
X8618677Y753821D01*
X8615121Y758901D01*
X8612378Y762304D01*
X8608314Y766521D01*
X8608314Y776935D01*
X8603183Y782218D01*
X8603183Y785317D01*
X8595360Y794766D01*
X8592870Y798271D01*
X8591245Y801217D01*
X8589873Y805840D01*
X8587282Y809142D01*
X8585708Y812038D01*
X8583980Y816762D01*
X8578392Y815695D01*
X8575395Y821232D01*
X8575395Y825804D01*
X8571738Y837641D01*
X8566607Y842924D01*
X8566607Y851814D01*
X8563914Y858418D01*
X8560206Y860653D01*
X8559190Y870813D01*
X8556294Y877976D01*
X8554770Y882396D01*
X8553500Y887374D01*
X8547252Y890676D01*
X8544306Y902817D01*
X8538972Y905916D01*
X8538108Y910285D01*
X8536686Y914806D01*
X8534755Y918718D01*
X8532520Y921410D01*
X8529929Y922629D01*
X8528862Y923442D01*
X8527135Y925525D01*
X8527135Y948537D01*
X8524189Y959154D01*
X8524341Y983386D01*
X8521090Y989584D01*
X8523732Y996187D01*
X8520379Y1009243D01*
X8522208Y1017219D01*
X8520531Y1025956D01*
X8520582Y1052728D01*
X8522919Y1060196D01*
X8523986Y1085037D01*
X8528812Y1100378D01*
X8527491Y1108964D01*
X8528710Y1114399D01*
X8529167Y1118006D01*
X8529320Y1122527D01*
X8530590Y1123391D01*
X8531301Y1134973D01*
X8532825Y1137107D01*
X8533841Y1149502D01*
X8536787Y1156563D01*
X8538464Y1167688D01*
X8542274Y1175766D01*
X8543950Y1180287D01*
X8543493Y1181557D01*
X8542477Y1182979D01*
X8541156Y1184148D01*
X8539988Y1184656D01*
G37*
G36*
X8736888Y728878D02*
G01*
X8735720Y728573D01*
X8732723Y726135D01*
X8731808Y721918D01*
X8734806Y718820D01*
X8734806Y717245D01*
X8734450Y715213D01*
X8733129Y712724D01*
X8730437Y709117D01*
X8718397Y694588D01*
X8715146Y689762D01*
X8713825Y688289D01*
X8713012Y686917D01*
X8712758Y685952D01*
X8712047Y684631D01*
X8710879Y683260D01*
X8709660Y681228D01*
X8708339Y677773D01*
X8710726Y673608D01*
X8715095Y673608D01*
X8717991Y677113D01*
X8728252Y692302D01*
X8732113Y697433D01*
X8735822Y701497D01*
X8738666Y704138D01*
X8741410Y705916D01*
X8747201Y704138D01*
X8747760Y703122D01*
X8749538Y701395D01*
X8752890Y698652D01*
X8758986Y694588D01*
X8762796Y690880D01*
X8773210Y682904D01*
X8776614Y677621D01*
X8775395Y676097D01*
X8774176Y675284D01*
X8772093Y674573D01*
X8770569Y676351D01*
X8769908Y677672D01*
X8768740Y679043D01*
X8765743Y681329D01*
X8757208Y686612D01*
X8752179Y689305D01*
X8746693Y689305D01*
X8743340Y685444D01*
X8741511Y683006D01*
X8739784Y680212D01*
X8739816Y678078D01*
X8749080Y678078D01*
X8752738Y680262D01*
X8757615Y679297D01*
X8769756Y667664D01*
X8768537Y662533D01*
X8768283Y662127D01*
X8763711Y660603D01*
X8759190Y663397D01*
X8756650Y665378D01*
X8751824Y670102D01*
X8749436Y672795D01*
X8749080Y678078D01*
X8739816Y678078D01*
X8739835Y673506D01*
X8745118Y666445D01*
X8748623Y662990D01*
X8756700Y656691D01*
X8759190Y655269D01*
X8760155Y654507D01*
X8761882Y652373D01*
X8761831Y647547D01*
X8756751Y638454D01*
X8757412Y635508D01*
X8758072Y633882D01*
X8759342Y632256D01*
X8764676Y636371D01*
X8766403Y642061D01*
X8767368Y644398D01*
X8768181Y645464D01*
X8776208Y661162D01*
X8780881Y669290D01*
X8784742Y672134D01*
X8789060Y670610D01*
X8791498Y669442D01*
X8793988Y667816D01*
X8793124Y665276D01*
X8784742Y660450D01*
X8780881Y653034D01*
X8780928Y647344D01*
X8788958Y647344D01*
X8788958Y651306D01*
X8791854Y654608D01*
X8795461Y654608D01*
X8800846Y650443D01*
X8803995Y650443D01*
X8807094Y655167D01*
X8811971Y654354D01*
X8818168Y648462D01*
X8818168Y642569D01*
X8815984Y638860D01*
X8814409Y635508D01*
X8812225Y629970D01*
X8808770Y628396D01*
X8807297Y628142D01*
X8806129Y628345D01*
X8805113Y629259D01*
X8804148Y629716D01*
X8802319Y629767D01*
X8798610Y633069D01*
X8800795Y643636D01*
X8798864Y644956D01*
X8793988Y644601D01*
X8788958Y647344D01*
X8780928Y647344D01*
X8787587Y640130D01*
X8792972Y627735D01*
X8798763Y621639D01*
X8804097Y620674D01*
X8805875Y618286D01*
X8805062Y614578D01*
X8803944Y611784D01*
X8802573Y609295D01*
X8801455Y606653D01*
X8800642Y603453D01*
X8801506Y600913D01*
X8806484Y599084D01*
X8809329Y600100D01*
X8811463Y604215D01*
X8812834Y608126D01*
X8813901Y612241D01*
X8815476Y616610D01*
X8818219Y622909D01*
X8819489Y626364D01*
X8822639Y633069D01*
X8823604Y635863D01*
X8824671Y637641D01*
X8825992Y639216D01*
X8829040Y641350D01*
X8833358Y639521D01*
X8837676Y637336D01*
X8845194Y633120D01*
X8848191Y629462D01*
X8848191Y626821D01*
X8844280Y622554D01*
X8842502Y620928D01*
X8840368Y619658D01*
X8837726Y617372D01*
X8832799Y617372D01*
X8831122Y613257D01*
X8832392Y610616D01*
X8834614Y607568D01*
X8845245Y607568D01*
X8845245Y611581D01*
X8850833Y618032D01*
X8852966Y620877D01*
X8854236Y623366D01*
X8856370Y625856D01*
X8863787Y625043D01*
X8866479Y621334D01*
X8866428Y616966D01*
X8860993Y604570D01*
X8855862Y603707D01*
X8849664Y605485D01*
X8846870Y606501D01*
X8845245Y607568D01*
X8834614Y607568D01*
X8840774Y600303D01*
X8848394Y595630D01*
X8856370Y595122D01*
X8858554Y593090D01*
X8857538Y576427D01*
X8859723Y573176D01*
X8861602Y575208D01*
X8863380Y578358D01*
X8866479Y585165D01*
X8867190Y590956D01*
X8868359Y595731D01*
X8871508Y606247D01*
X8873642Y615137D01*
X8877249Y619201D01*
X8882888Y615899D01*
X8888120Y615035D01*
X8890914Y614222D01*
X8893454Y612800D01*
X8891676Y608685D01*
X8884869Y604621D01*
X8882532Y599135D01*
X8882532Y598220D01*
X8889187Y598220D01*
X8890101Y599084D01*
X8892387Y600608D01*
X8895232Y601421D01*
X8898382Y601472D01*
X8901734Y600811D01*
X8903919Y599897D01*
X8905392Y598932D01*
X8911082Y594106D01*
X8911082Y587705D01*
X8908237Y586689D01*
X8894216Y591362D01*
X8891524Y592734D01*
X8889187Y598220D01*
X8882532Y598220D01*
X8882532Y593547D01*
X8885072Y588568D01*
X8893505Y582574D01*
X8896604Y581050D01*
X8899753Y580339D01*
X8908592Y580186D01*
X8910320Y578205D01*
X8910320Y571398D01*
X8909304Y569976D01*
X8908694Y567588D01*
X8907983Y562406D01*
X8911844Y558292D01*
X8914282Y560019D01*
X8917381Y572211D01*
X8920480Y586587D01*
X8922715Y598576D01*
X8924391Y603199D01*
X8926525Y604164D01*
X8929979Y603148D01*
X8934450Y606958D01*
X8934450Y609600D01*
X8930335Y614121D01*
X8926626Y615238D01*
X8923528Y615645D01*
X8918854Y615746D01*
X8906865Y619099D01*
X8895537Y622554D01*
X8886952Y625856D01*
X8881008Y629056D01*
X8877706Y632206D01*
X8876842Y633425D01*
X8875826Y642416D01*
X8875014Y645312D01*
X8873642Y647801D01*
X8868105Y654558D01*
X8858605Y657555D01*
X8855456Y658926D01*
X8849563Y655929D01*
X8847988Y652627D01*
X8851239Y649630D01*
X8857183Y649630D01*
X8866124Y643991D01*
X8867952Y638251D01*
X8867089Y635711D01*
X8863990Y634796D01*
X8857589Y638098D01*
X8853678Y639622D01*
X8849258Y640638D01*
X8845550Y643331D01*
X8840266Y646074D01*
X8834475Y649630D01*
X8832697Y650443D01*
X8825687Y655218D01*
X8824671Y655523D01*
X8822131Y657860D01*
X8819642Y659638D01*
X8814968Y662381D01*
X8813038Y664311D01*
X8806434Y669188D01*
X8800185Y672998D01*
X8793988Y677316D01*
X8792210Y678942D01*
X8790533Y679958D01*
X8786622Y681837D01*
X8780424Y687628D01*
X8777579Y689813D01*
X8776360Y690270D01*
X8775141Y691286D01*
X8773058Y693775D01*
X8767622Y698500D01*
X8756700Y706831D01*
X8758021Y710844D01*
X8758986Y712266D01*
X8768842Y708761D01*
X8776868Y702767D01*
X8780119Y698093D01*
X8784183Y690930D01*
X8785352Y690016D01*
X8788755Y692505D01*
X8789517Y697077D01*
X8787841Y700024D01*
X8785199Y703935D01*
X8781542Y708456D01*
X8777528Y712774D01*
X8773922Y716026D01*
X8770264Y718870D01*
X8758580Y723442D01*
X8745829Y722325D01*
X8738108Y728421D01*
G37*
G36*
X9263735Y714146D02*
G01*
X9262668Y712520D01*
X9261297Y707491D01*
X9267393Y699414D01*
X9269933Y695452D01*
X9271254Y692759D01*
X9271914Y692251D01*
X9273946Y689559D01*
X9279737Y680923D01*
X9288018Y669442D01*
X9290913Y665937D01*
X9293809Y662838D01*
X9294926Y663397D01*
X9296095Y664667D01*
X9298127Y667664D01*
X9296501Y672846D01*
X9291675Y678383D01*
X9288881Y682040D01*
X9284817Y688594D01*
X9280550Y694944D01*
X9277400Y699008D01*
X9273895Y704392D01*
X9268307Y714095D01*
G37*
G36*
X9233204Y690778D02*
G01*
X9232188Y690676D01*
X9229852Y689610D01*
X9227616Y687984D01*
X9214408Y676503D01*
X9204452Y669950D01*
X9197289Y664667D01*
X9196476Y664362D01*
X9195308Y663498D01*
X9193022Y661162D01*
X9187688Y659536D01*
X9186062Y657555D01*
X9208871Y657504D01*
X9209684Y662432D01*
X9211411Y663854D01*
X9214662Y665276D01*
X9216694Y666648D01*
X9219438Y669544D01*
X9224111Y671068D01*
X9227820Y667207D01*
X9230258Y664108D01*
X9232036Y661416D01*
X9233204Y659231D01*
X9233560Y657656D01*
X9233560Y656488D01*
X9220149Y646176D01*
X9215729Y647598D01*
X9208871Y657504D01*
X9186002Y657504D01*
X9183928Y655929D01*
X9173108Y649122D01*
X9170568Y647192D01*
X9168079Y645871D01*
X9165437Y644906D01*
X9162491Y643382D01*
X9160154Y641756D01*
X9158173Y640689D01*
X9156801Y640334D01*
X9154058Y639064D01*
X9147556Y635558D01*
X9145676Y634746D01*
X9143492Y633425D01*
X9140342Y630783D01*
X9133941Y628853D01*
X9132214Y626719D01*
X9130792Y624433D01*
X9130690Y622655D01*
X9131909Y621284D01*
X9134500Y620318D01*
X9136684Y619810D01*
X9140901Y611987D01*
X9141510Y605383D01*
X9137396Y596341D01*
X9134246Y595122D01*
X9131757Y593699D01*
X9128048Y590905D01*
X9122562Y590905D01*
X9119616Y593801D01*
X9118752Y598322D01*
X9124848Y602691D01*
X9125204Y603148D01*
X9124848Y604215D01*
X9123527Y606653D01*
X9117990Y607669D01*
X9117431Y610412D01*
X9117330Y612190D01*
X9117634Y614324D01*
X9121800Y616000D01*
X9123781Y617118D01*
X9125153Y618591D01*
X9123883Y623824D01*
X9113621Y624992D01*
X9112148Y628040D01*
X9113875Y632307D01*
X9118752Y630428D01*
X9122460Y632155D01*
X9122968Y632866D01*
X9122562Y634085D01*
X9119514Y639622D01*
X9114383Y640689D01*
X9108897Y639572D01*
X9103410Y633222D01*
X9103410Y627735D01*
X9106255Y622858D01*
X9103766Y618032D01*
X9100870Y616864D01*
X9093708Y615188D01*
X9089440Y613968D01*
X9084005Y611784D01*
X9075623Y610920D01*
X9070543Y610006D01*
X9057690Y606298D01*
X9050223Y606653D01*
X9038691Y604164D01*
X8996730Y604164D01*
X8995105Y601472D01*
X8994546Y599795D01*
X8994444Y597712D01*
X8996527Y595731D01*
X9007957Y594766D01*
X9011970Y590194D01*
X9011970Y587806D01*
X9025128Y587806D01*
X9025128Y593191D01*
X9026042Y594055D01*
X9027261Y594766D01*
X9028938Y595223D01*
X9030970Y595376D01*
X9035745Y594817D01*
X9036507Y593344D01*
X9036812Y591464D01*
X9036862Y587806D01*
X9034526Y585622D01*
X9027464Y585622D01*
X9025128Y587806D01*
X9011970Y587806D01*
X9011970Y587044D01*
X9009380Y584403D01*
X9003131Y583234D01*
X8999372Y579882D01*
X9000185Y574446D01*
X9002826Y570230D01*
X9005824Y566724D01*
X9011361Y561289D01*
X9014002Y560476D01*
X9016238Y559155D01*
X9019794Y556514D01*
X9031681Y553466D01*
X9033154Y554939D01*
X9033916Y556361D01*
X9034526Y558698D01*
X9032138Y560324D01*
X9030106Y561238D01*
X9026804Y562051D01*
X9023350Y564896D01*
X9021368Y565962D01*
X9019540Y566115D01*
X9010497Y572668D01*
X9010497Y574395D01*
X9014358Y576072D01*
X9029192Y575056D01*
X9035745Y576783D01*
X9038488Y573735D01*
X9038437Y562457D01*
X9040520Y557936D01*
X9040520Y549046D01*
X9043111Y545998D01*
X9043974Y545541D01*
X9044940Y545795D01*
X9047937Y548132D01*
X9047175Y553466D01*
X9045397Y585368D01*
X9044736Y592531D01*
X9047937Y597509D01*
X9052407Y597662D01*
X9055811Y598068D01*
X9078772Y602335D01*
X9083954Y604062D01*
X9088120Y601268D01*
X9088932Y597458D01*
X9087916Y596290D01*
X9066225Y595477D01*
X9062415Y591616D01*
X9059570Y589178D01*
X9058198Y583539D01*
X9058435Y582828D01*
X9067495Y582828D01*
X9067749Y583793D01*
X9068866Y584962D01*
X9071203Y586587D01*
X9074454Y588416D01*
X9077909Y588314D01*
X9080804Y587654D01*
X9086037Y586028D01*
X9088577Y585978D01*
X9090355Y583590D01*
X9088882Y580593D01*
X9080093Y577443D01*
X9070848Y578408D01*
X9067495Y582828D01*
X9058435Y582828D01*
X9060637Y576275D01*
X9066072Y570941D01*
X9077096Y570026D01*
X9092438Y572058D01*
X9094419Y570230D01*
X9095130Y561035D01*
X9097213Y558647D01*
X9101734Y560578D01*
X9103461Y563676D01*
X9101886Y573176D01*
X9101277Y578256D01*
X9101226Y582777D01*
X9099448Y586384D01*
X9098483Y598779D01*
X9096502Y604113D01*
X9100007Y608279D01*
X9106255Y608279D01*
X9107678Y605434D01*
X9112453Y598322D01*
X9110116Y592886D01*
X9112097Y587654D01*
X9119108Y582676D01*
X9128963Y582625D01*
X9136684Y586028D01*
X9140342Y590804D01*
X9144101Y592328D01*
X9145117Y592429D01*
X9145778Y591820D01*
X9147251Y588365D01*
X9147251Y582117D01*
X9149334Y578967D01*
X9154566Y581812D01*
X9154515Y583996D01*
X9154007Y585622D01*
X9152585Y588010D01*
X9151620Y597662D01*
X9148622Y604316D01*
X9145625Y622401D01*
X9147505Y624636D01*
X9148521Y625500D01*
X9151112Y626821D01*
X9153601Y628446D01*
X9157208Y630224D01*
X9160611Y631596D01*
X9163354Y632968D01*
X9166098Y634796D01*
X9167622Y635457D01*
X9169603Y636778D01*
X9172498Y639419D01*
X9180372Y642264D01*
X9184589Y637743D01*
X9184589Y632510D01*
X9180423Y631190D01*
X9176562Y630580D01*
X9170162Y630123D01*
X9162491Y622757D01*
X9160459Y618337D01*
X9161373Y613206D01*
X9166860Y608279D01*
X9169857Y608279D01*
X9172244Y610971D01*
X9172041Y617270D01*
X9172295Y618947D01*
X9173108Y620115D01*
X9177375Y623468D01*
X9188450Y623214D01*
X9189618Y621995D01*
X9191142Y619607D01*
X9193072Y615645D01*
X9194850Y611378D01*
X9195866Y608279D01*
X9196273Y606196D01*
X9202115Y599135D01*
X9205163Y600964D01*
X9206534Y602386D01*
X9204655Y606958D01*
X9200946Y614426D01*
X9200692Y617778D01*
X9189669Y643991D01*
X9189669Y648411D01*
X9197187Y654659D01*
X9203080Y654151D01*
X9205823Y648868D01*
X9208719Y643991D01*
X9208719Y632612D01*
X9210446Y630631D01*
X9215475Y630631D01*
X9220809Y636828D01*
X9225991Y639826D01*
X9228937Y641807D01*
X9230868Y643432D01*
X9233408Y645007D01*
X9237573Y646836D01*
X9242298Y644702D01*
X9244126Y640791D01*
X9245650Y638251D01*
X9248089Y635152D01*
X9250172Y627634D01*
X9246108Y626008D01*
X9240062Y624535D01*
X9235744Y623011D01*
X9235694Y621436D01*
X9235084Y620318D01*
X9234220Y619404D01*
X9233662Y618439D01*
X9233560Y617372D01*
X9239097Y617372D01*
X9240977Y619455D01*
X9254286Y619760D01*
X9257233Y618083D01*
X9259265Y617474D01*
X9261906Y617372D01*
X9265716Y620776D01*
X9265716Y624382D01*
X9257334Y636422D01*
X9252762Y643636D01*
X9252407Y644652D01*
X9248343Y651357D01*
X9248089Y652322D01*
X9245955Y655116D01*
X9244380Y657707D01*
X9242298Y662432D01*
X9236710Y669442D01*
X9234982Y672236D01*
X9233916Y674674D01*
X9233560Y676706D01*
X9233560Y678230D01*
X9237929Y682955D01*
X9237065Y687222D01*
X9234068Y690270D01*
G37*
G36*
X9022232Y622452D02*
G01*
X9020505Y618134D01*
X9022080Y616356D01*
X9026601Y617524D01*
X9026601Y619506D01*
G37*
G36*
X8737295Y454456D02*
G01*
X8728456Y452831D01*
X8721953Y454202D01*
X8720226Y454355D01*
X8712809Y452678D01*
X8700820Y451104D01*
X8691473Y446176D01*
X8687358Y440842D01*
X8686596Y437743D01*
X8685479Y435051D01*
X8683091Y430834D01*
X8681466Y417118D01*
X8678418Y409397D01*
X8677351Y399389D01*
X8676436Y393903D01*
X8674506Y384962D01*
X8672931Y374497D01*
X8671915Y370433D01*
X8671915Y348081D01*
X8673134Y344017D01*
X8675370Y338632D01*
X8678418Y333451D01*
X8681618Y329539D01*
X8686444Y326542D01*
X8692845Y321106D01*
X8697163Y317855D01*
X8702446Y313182D01*
X8703564Y312674D01*
X8714790Y304596D01*
X8717076Y303174D01*
X8722817Y300329D01*
X8734958Y293827D01*
X8740292Y291846D01*
X8745169Y288899D01*
X8750249Y286156D01*
X8752535Y284581D01*
X8755024Y283260D01*
X8757412Y282397D01*
X8762187Y280009D01*
X8771737Y274472D01*
X8780170Y273507D01*
X8782558Y272135D01*
X8786825Y270154D01*
X8800592Y264820D01*
X8814866Y260197D01*
X8819235Y258470D01*
X8830360Y257048D01*
X8831884Y256133D01*
X8834475Y255066D01*
X8845245Y251917D01*
X8868003Y246379D01*
X8875877Y245008D01*
X8889390Y241858D01*
X8895283Y240131D01*
X8906103Y238201D01*
X8909913Y237845D01*
X8912504Y237845D01*
X8917990Y234645D01*
X8940342Y232917D01*
X8943543Y230378D01*
X8964117Y230378D01*
X8969197Y228650D01*
X9014358Y228752D01*
X9034576Y229006D01*
X9062974Y230784D01*
X9065412Y233121D01*
X9087662Y234543D01*
X9094266Y237693D01*
X9106763Y238556D01*
X9112707Y240893D01*
X9117533Y242265D01*
X9132265Y245821D01*
X9136329Y246583D01*
X9143187Y248310D01*
X9167012Y255371D01*
X9174835Y258013D01*
X9185452Y260908D01*
X9194292Y262839D01*
X9199372Y264160D01*
X9214053Y269392D01*
X9220403Y272186D01*
X9227413Y274370D01*
X9233154Y277063D01*
X9236913Y278282D01*
X9239351Y279501D01*
X9241536Y280924D01*
X9244888Y282600D01*
X9251086Y284784D01*
X9253829Y287223D01*
X9255302Y288137D01*
X9258808Y289356D01*
X9269984Y294436D01*
X9274302Y297027D01*
X9277604Y298653D01*
X9282582Y301853D01*
X9288881Y304901D01*
X9292590Y306933D01*
X9296958Y308762D01*
X9299956Y310692D01*
X9327692Y331317D01*
X9330740Y333857D01*
X9334500Y341071D01*
X9336836Y351383D01*
X9335770Y366115D01*
X9334652Y377088D01*
X9332925Y386384D01*
X9330182Y404114D01*
X9328912Y410159D01*
X9327896Y416356D01*
X9327083Y424332D01*
X9323578Y435660D01*
X9320377Y438607D01*
X9318244Y439978D01*
X9315958Y440994D01*
X9312198Y442112D01*
X9308693Y443484D01*
X9303410Y446379D01*
X9289491Y447141D01*
X9283649Y449681D01*
X9272676Y450189D01*
X9266834Y448056D01*
X9259316Y446227D01*
X9254185Y444754D01*
X9245447Y441502D01*
X9240723Y435356D01*
X9239554Y433120D01*
X9238945Y430784D01*
X9238691Y424637D01*
X9235948Y418490D01*
X9235287Y388721D01*
X9232900Y383641D01*
X9226854Y381152D01*
X9218523Y378409D01*
X9208363Y374446D01*
X9202623Y371906D01*
X9201099Y371652D01*
X9189415Y367385D01*
X9184233Y365963D01*
X9173921Y362153D01*
X9163456Y357733D01*
X9157157Y357632D01*
X9148622Y354228D01*
X9141764Y352044D01*
X9135872Y351942D01*
X9134094Y349961D01*
X9128302Y349046D01*
X9114078Y345440D01*
X9111792Y345236D01*
X9109202Y344576D01*
X9105239Y342900D01*
X9090152Y341223D01*
X9080144Y339547D01*
X9077553Y338785D01*
X9075521Y337870D01*
X9065463Y337870D01*
X9061348Y335991D01*
X9045803Y334924D01*
X9028074Y334213D01*
X8994800Y333349D01*
X8951112Y335330D01*
X8944711Y335330D01*
X8937142Y337870D01*
X8925204Y337870D01*
X8917990Y340360D01*
X8909050Y340360D01*
X8903817Y342849D01*
X8893860Y342900D01*
X8882938Y346964D01*
X8879230Y347065D01*
X8875522Y347776D01*
X8867343Y350062D01*
X8859621Y351891D01*
X8852204Y352907D01*
X8842451Y357733D01*
X8837371Y357733D01*
X8829548Y361645D01*
X8821470Y362864D01*
X8816644Y365150D01*
X8806281Y368554D01*
X8802979Y370027D01*
X8800287Y371602D01*
X8792057Y373684D01*
X8788146Y375056D01*
X8783929Y377088D01*
X8779713Y378358D01*
X8774785Y382168D01*
X8772296Y384606D01*
X8770416Y387604D01*
X8771280Y410260D01*
X8772855Y414883D01*
X8772855Y433527D01*
X8769756Y437997D01*
X8767013Y441198D01*
X8762390Y445363D01*
X8757056Y447090D01*
X8753246Y448868D01*
X8746693Y451002D01*
X8742222Y452018D01*
X8739632Y452882D01*
G37*
D10*
X2240178Y7226808D02*
G01*
X2234844Y7237221D01*
X2224430Y7247636D01*
X2214270Y7252715D01*
X2193442Y7252715D01*
X2183028Y7247636D01*
X2172614Y7237221D01*
X2167280Y7226808D01*
X2162200Y7211060D01*
X2162200Y7185152D01*
X2167280Y7169658D01*
X2172614Y7159244D01*
X2183028Y7148829D01*
X2193442Y7143750D01*
X2214270Y7143750D01*
X2224430Y7148829D01*
X2234844Y7159244D01*
X2240178Y7169658D01*
X2274468Y7231887D02*
G01*
X2284882Y7237221D01*
X2300376Y7252715D01*
X2300376Y7143750D01*
X712978Y3950207D02*
G01*
X707644Y3960621D01*
X697229Y3971036D01*
X687070Y3976115D01*
X666242Y3976115D01*
X655828Y3971036D01*
X645413Y3960621D01*
X640079Y3950207D01*
X635000Y3934460D01*
X635000Y3908552D01*
X640079Y3893057D01*
X645413Y3882644D01*
X655828Y3872229D01*
X666242Y3867150D01*
X687070Y3867150D01*
X697229Y3872229D01*
X707644Y3882644D01*
X712978Y3893057D01*
X752347Y3950207D02*
G01*
X752347Y3955287D01*
X757681Y3965702D01*
X762762Y3971036D01*
X773176Y3976115D01*
X794004Y3976115D01*
X804418Y3971036D01*
X809497Y3965702D01*
X814831Y3955287D01*
X814831Y3944873D01*
X809497Y3934460D01*
X799084Y3918965D01*
X747268Y3867150D01*
X819912Y3867150D01*
X1833778Y3366007D02*
G01*
X1828444Y3376421D01*
X1818030Y3386836D01*
X1807870Y3391915D01*
X1787042Y3391915D01*
X1776628Y3386836D01*
X1766214Y3376421D01*
X1760880Y3366007D01*
X1755800Y3350260D01*
X1755800Y3324352D01*
X1760880Y3308857D01*
X1766214Y3298444D01*
X1776628Y3288029D01*
X1787042Y3282950D01*
X1807870Y3282950D01*
X1818030Y3288029D01*
X1828444Y3298444D01*
X1833778Y3308857D01*
X1878482Y3391915D02*
G01*
X1935632Y3391915D01*
X1904390Y3350260D01*
X1919884Y3350260D01*
X1930298Y3345179D01*
X1935632Y3340100D01*
X1940712Y3324352D01*
X1940712Y3313937D01*
X1935632Y3298444D01*
X1925218Y3288029D01*
X1909470Y3282950D01*
X1893976Y3282950D01*
X1878482Y3288029D01*
X1873148Y3293110D01*
X1868068Y3303523D01*
X8674100Y5766815D02*
G01*
X8674100Y5657850D01*
X8674100Y5766815D02*
G01*
X8710422Y5766815D01*
X8726170Y5761736D01*
X8736329Y5751321D01*
X8741663Y5740907D01*
X8746743Y5725160D01*
X8746743Y5699252D01*
X8741663Y5683757D01*
X8736329Y5673344D01*
X8726170Y5662929D01*
X8710422Y5657850D01*
X8674100Y5657850D01*
X8781034Y5745987D02*
G01*
X8791447Y5751321D01*
X8807195Y5766815D01*
X8807195Y5657850D01*
X1955800Y5741415D02*
G01*
X1955800Y5632450D01*
X1955800Y5741415D02*
G01*
X1992122Y5741415D01*
X2007870Y5736336D01*
X2018029Y5725921D01*
X2023363Y5715507D01*
X2028443Y5699760D01*
X2028443Y5673852D01*
X2023363Y5658357D01*
X2018029Y5647944D01*
X2007870Y5637529D01*
X1992122Y5632450D01*
X1955800Y5632450D01*
X2068068Y5715507D02*
G01*
X2068068Y5720587D01*
X2073147Y5731002D01*
X2078481Y5736336D01*
X2088895Y5741415D01*
X2109470Y5741415D01*
X2119884Y5736336D01*
X2125218Y5731002D01*
X2130297Y5720587D01*
X2130297Y5710173D01*
X2125218Y5699760D01*
X2114804Y5684265D01*
X2062734Y5632450D01*
X2135631Y5632450D01*
X9353550Y3783584D02*
G01*
X9353550Y3892550D01*
X9353550Y3783584D02*
G01*
X9317227Y3783584D01*
X9301479Y3788663D01*
X9291320Y3799078D01*
X9285986Y3809492D01*
X9280906Y3825239D01*
X9280906Y3851147D01*
X9285986Y3866642D01*
X9291320Y3877055D01*
X9301479Y3887470D01*
X9317227Y3892550D01*
X9353550Y3892550D01*
X9236202Y3783584D02*
G01*
X9179052Y3783584D01*
X9210040Y3825239D01*
X9194545Y3825239D01*
X9184131Y3830320D01*
X9179052Y3835400D01*
X9173718Y3851147D01*
X9173718Y3861562D01*
X9179052Y3877055D01*
X9189465Y3887470D01*
X9204959Y3892550D01*
X9220454Y3892550D01*
X9236202Y3887470D01*
X9241281Y3882389D01*
X9246615Y3871976D01*
X1387475Y1588515D02*
G01*
X1387475Y1505457D01*
X1382140Y1489710D01*
X1377061Y1484629D01*
X1366646Y1479550D01*
X1356232Y1479550D01*
X1345819Y1484629D01*
X1340485Y1489710D01*
X1335404Y1505457D01*
X1335404Y1515871D01*
X1421764Y1567687D02*
G01*
X1431925Y1573021D01*
X1447672Y1588515D01*
X1447672Y1479550D01*
D11*
X1606930Y1296670D02*
G01*
X1597787Y1287526D01*
X1606930Y1278381D01*
X1616075Y1287526D01*
X1606930Y1296670D01*
D10*
X7468870Y7608315D02*
G01*
X7468870Y7525258D01*
X7463536Y7509510D01*
X7458456Y7504429D01*
X7448041Y7499350D01*
X7437627Y7499350D01*
X7427213Y7504429D01*
X7421879Y7509510D01*
X7416800Y7525258D01*
X7416800Y7535671D01*
X7508240Y7582408D02*
G01*
X7508240Y7587487D01*
X7513320Y7597902D01*
X7518654Y7603236D01*
X7529068Y7608315D01*
X7549895Y7608315D01*
X7560309Y7603236D01*
X7565390Y7597902D01*
X7570470Y7587487D01*
X7570470Y7577073D01*
X7565390Y7566660D01*
X7554975Y7551165D01*
X7503159Y7499350D01*
X7575804Y7499350D01*
X8370315Y2081529D02*
G01*
X8287258Y2081529D01*
X8271509Y2086863D01*
X8266429Y2091944D01*
X8261350Y2102357D01*
X8261350Y2112771D01*
X8266429Y2123186D01*
X8271509Y2128520D01*
X8287258Y2133600D01*
X8297672Y2133600D01*
X8370315Y2037079D02*
G01*
X8370315Y1979929D01*
X8328659Y2010918D01*
X8328659Y1995423D01*
X8323579Y1985010D01*
X8318500Y1979929D01*
X8302752Y1974595D01*
X8292338Y1974595D01*
X8276843Y1979929D01*
X8266429Y1990089D01*
X8261350Y2005837D01*
X8261350Y2021331D01*
X8266429Y2037079D01*
X8271509Y2042160D01*
X8281924Y2047239D01*
X9907015Y2590800D02*
G01*
X9798050Y2590800D01*
X9798050Y2590800D02*
G01*
X9798050Y2528570D01*
X9891522Y2421381D02*
G01*
X9901936Y2431795D01*
X9907015Y2447289D01*
X9907015Y2468118D01*
X9901936Y2483865D01*
X9891522Y2494279D01*
X9881108Y2494279D01*
X9870693Y2488945D01*
X9865359Y2483865D01*
X9860279Y2473452D01*
X9849865Y2442210D01*
X9844786Y2431795D01*
X9839452Y2426715D01*
X9829038Y2421381D01*
X9813543Y2421381D01*
X9803129Y2431795D01*
X9798050Y2447289D01*
X9798050Y2468118D01*
X9803129Y2483865D01*
X9813543Y2494279D01*
X9886188Y2387092D02*
G01*
X9891522Y2376678D01*
X9907015Y2361184D01*
X9798050Y2361184D01*
X8071358Y3681984D02*
G01*
X8081772Y3687063D01*
X8092186Y3697478D01*
X8097520Y3707892D01*
X8102600Y3723639D01*
X8102600Y3749547D01*
X8097520Y3765042D01*
X8092186Y3775455D01*
X8081772Y3785870D01*
X8071358Y3790950D01*
X8050529Y3790950D01*
X8040370Y3785870D01*
X8029956Y3775455D01*
X8024622Y3765042D01*
X8019541Y3749547D01*
X8019541Y3723639D01*
X8024622Y3707892D01*
X8029956Y3697478D01*
X8040370Y3687063D01*
X8050529Y3681984D01*
X8071358Y3681984D01*
X8055863Y3770376D02*
G01*
X8024622Y3801363D01*
X7985252Y3702812D02*
G01*
X7974838Y3697478D01*
X7959090Y3681984D01*
X7959090Y3790950D01*
X7467600Y5563615D02*
G01*
X7467600Y5454650D01*
X7467600Y5563615D02*
G01*
X7514336Y5563615D01*
X7529829Y5558536D01*
X7535163Y5553202D01*
X7540243Y5542787D01*
X7540243Y5532373D01*
X7535163Y5521960D01*
X7529829Y5516879D01*
X7514336Y5511800D01*
X7467600Y5511800D01*
X7503922Y5511800D02*
G01*
X7540243Y5454650D01*
X7574534Y5542787D02*
G01*
X7584947Y5548121D01*
X7600695Y5563615D01*
X7600695Y5454650D01*
X3098800Y2030984D02*
G01*
X3098800Y2139950D01*
X3098800Y2030984D02*
G01*
X3052063Y2030984D01*
X3036570Y2036063D01*
X3031236Y2041397D01*
X3026156Y2051812D01*
X3026156Y2062226D01*
X3031236Y2072639D01*
X3036570Y2077720D01*
X3052063Y2082800D01*
X3098800Y2082800D01*
X3062477Y2082800D02*
G01*
X3026156Y2139950D01*
X2986531Y2056892D02*
G01*
X2986531Y2051812D01*
X2981452Y2041397D01*
X2976118Y2036063D01*
X2965704Y2030984D01*
X2945129Y2030984D01*
X2934715Y2036063D01*
X2929381Y2041397D01*
X2924302Y2051812D01*
X2924302Y2062226D01*
X2929381Y2072639D01*
X2939795Y2088134D01*
X2991865Y2139950D01*
X2918968Y2139950D01*
X800100Y5131815D02*
G01*
X800100Y5022850D01*
X800100Y5131815D02*
G01*
X846836Y5131815D01*
X862329Y5126736D01*
X867663Y5121402D01*
X872744Y5110987D01*
X872744Y5100573D01*
X867663Y5090160D01*
X862329Y5085079D01*
X846836Y5080000D01*
X800100Y5080000D01*
X836421Y5080000D02*
G01*
X872744Y5022850D01*
X917447Y5131815D02*
G01*
X974597Y5131815D01*
X943610Y5090160D01*
X959104Y5090160D01*
X969518Y5085079D01*
X974597Y5080000D01*
X979931Y5064252D01*
X979931Y5053837D01*
X974597Y5038344D01*
X964184Y5027929D01*
X948689Y5022850D01*
X933195Y5022850D01*
X917447Y5027929D01*
X912368Y5033010D01*
X907034Y5043423D01*
X7112000Y4065015D02*
G01*
X7112000Y3956050D01*
X7112000Y4065015D02*
G01*
X7158736Y4065015D01*
X7174229Y4059936D01*
X7179563Y4054602D01*
X7184643Y4044187D01*
X7184643Y4033773D01*
X7179563Y4023360D01*
X7174229Y4018279D01*
X7158736Y4013200D01*
X7112000Y4013200D01*
X7148322Y4013200D02*
G01*
X7184643Y3956050D01*
X7281418Y4065015D02*
G01*
X7229347Y4065015D01*
X7224268Y4018279D01*
X7229347Y4023360D01*
X7245095Y4028694D01*
X7260590Y4028694D01*
X7276084Y4023360D01*
X7286497Y4013200D01*
X7291831Y3997452D01*
X7291831Y3987037D01*
X7286497Y3971544D01*
X7276084Y3961129D01*
X7260590Y3956050D01*
X7245095Y3956050D01*
X7229347Y3961129D01*
X7224268Y3966210D01*
X7218934Y3976623D01*
X1637284Y8839200D02*
G01*
X1746250Y8839200D01*
X1637284Y8839200D02*
G01*
X1637284Y8885936D01*
X1642363Y8901429D01*
X1647697Y8906763D01*
X1658112Y8911844D01*
X1668526Y8911844D01*
X1678939Y8906763D01*
X1684020Y8901429D01*
X1689100Y8885936D01*
X1689100Y8839200D01*
X1689100Y8875521D02*
G01*
X1746250Y8911844D01*
X1637284Y9019031D02*
G01*
X1746250Y8966962D01*
X1637284Y8946134D02*
G01*
X1637284Y9019031D01*
X4189984Y8851900D02*
G01*
X4298950Y8851900D01*
X4189984Y8851900D02*
G01*
X4189984Y8898636D01*
X4195063Y8914129D01*
X4200397Y8919463D01*
X4210811Y8924544D01*
X4221225Y8924544D01*
X4231640Y8919463D01*
X4236720Y8914129D01*
X4241800Y8898636D01*
X4241800Y8851900D01*
X4241800Y8888221D02*
G01*
X4298950Y8924544D01*
X4189984Y8984995D02*
G01*
X4195063Y8969247D01*
X4205477Y8964168D01*
X4215891Y8964168D01*
X4226306Y8969247D01*
X4231640Y8979662D01*
X4236720Y9000489D01*
X4241800Y9015984D01*
X4252213Y9026397D01*
X4262627Y9031731D01*
X4278375Y9031731D01*
X4288790Y9026397D01*
X4293870Y9021318D01*
X4298950Y9005570D01*
X4298950Y8984995D01*
X4293870Y8969247D01*
X4288790Y8964168D01*
X4278375Y8958834D01*
X4262627Y8958834D01*
X4252213Y8964168D01*
X4241800Y8974581D01*
X4236720Y8990076D01*
X4231640Y9010904D01*
X4226306Y9021318D01*
X4215891Y9026397D01*
X4205477Y9026397D01*
X4195063Y9021318D01*
X4189984Y9005570D01*
X4189984Y8984995D01*
X6475984Y8839200D02*
G01*
X6584950Y8839200D01*
X6475984Y8839200D02*
G01*
X6475984Y8885936D01*
X6481063Y8901429D01*
X6486397Y8906763D01*
X6496811Y8911844D01*
X6507225Y8911844D01*
X6517640Y8906763D01*
X6522720Y8901429D01*
X6527800Y8885936D01*
X6527800Y8839200D01*
X6527800Y8875521D02*
G01*
X6584950Y8911844D01*
X6512306Y9013697D02*
G01*
X6527800Y9008618D01*
X6538213Y8998204D01*
X6543547Y8982710D01*
X6543547Y8977376D01*
X6538213Y8961881D01*
X6527800Y8951468D01*
X6512306Y8946134D01*
X6507225Y8946134D01*
X6491477Y8951468D01*
X6481063Y8961881D01*
X6475984Y8977376D01*
X6475984Y8982710D01*
X6481063Y8998204D01*
X6491477Y9008618D01*
X6512306Y9013697D01*
X6538213Y9013697D01*
X6564375Y9008618D01*
X6579870Y8998204D01*
X6584950Y8982710D01*
X6584950Y8972295D01*
X6579870Y8956547D01*
X6569456Y8951468D01*
X8761984Y8813800D02*
G01*
X8870950Y8813800D01*
X8761984Y8813800D02*
G01*
X8761984Y8860536D01*
X8767063Y8876029D01*
X8772397Y8881363D01*
X8782811Y8886444D01*
X8793225Y8886444D01*
X8803640Y8881363D01*
X8808720Y8876029D01*
X8813800Y8860536D01*
X8813800Y8813800D01*
X8813800Y8850121D02*
G01*
X8870950Y8886444D01*
X8782811Y8920734D02*
G01*
X8777477Y8931147D01*
X8761984Y8946895D01*
X8870950Y8946895D01*
X8761984Y9012174D02*
G01*
X8767063Y8996679D01*
X8782811Y8986265D01*
X8808720Y8981186D01*
X8824213Y8981186D01*
X8850375Y8986265D01*
X8865870Y8996679D01*
X8870950Y9012174D01*
X8870950Y9022587D01*
X8865870Y9038336D01*
X8850375Y9048750D01*
X8824213Y9053829D01*
X8808720Y9053829D01*
X8782811Y9048750D01*
X8767063Y9038336D01*
X8761984Y9022587D01*
X8761984Y9012174D01*
X1128648Y6710984D02*
G01*
X1139062Y6700570D01*
X1154556Y6695490D01*
X1175385Y6695490D01*
X1190879Y6700570D01*
X1201293Y6710984D01*
X1201293Y6721398D01*
X1196212Y6731812D01*
X1190879Y6737146D01*
X1180464Y6742226D01*
X1149222Y6752640D01*
X1139062Y6757720D01*
X1133729Y6763054D01*
X1128648Y6773468D01*
X1128648Y6788962D01*
X1139062Y6799376D01*
X1154556Y6804456D01*
X1175385Y6804456D01*
X1190879Y6799376D01*
X1201293Y6788962D01*
X1094359Y6716318D02*
G01*
X1083945Y6710984D01*
X1068196Y6695490D01*
X1068196Y6804456D01*
X1115948Y8082584D02*
G01*
X1126362Y8072170D01*
X1141856Y8067090D01*
X1162685Y8067090D01*
X1178179Y8072170D01*
X1188593Y8082584D01*
X1188593Y8092998D01*
X1183512Y8103412D01*
X1178179Y8108746D01*
X1167764Y8113826D01*
X1136522Y8124240D01*
X1126362Y8129320D01*
X1121029Y8134654D01*
X1115948Y8145068D01*
X1115948Y8160562D01*
X1126362Y8170976D01*
X1141856Y8176056D01*
X1162685Y8176056D01*
X1178179Y8170976D01*
X1188593Y8160562D01*
X1076325Y8092998D02*
G01*
X1076325Y8087918D01*
X1071245Y8077504D01*
X1065911Y8072170D01*
X1055496Y8067090D01*
X1034922Y8067090D01*
X1024509Y8072170D01*
X1019175Y8077504D01*
X1014095Y8087918D01*
X1014095Y8098332D01*
X1019175Y8108746D01*
X1029588Y8124240D01*
X1081659Y8176056D01*
X1008761Y8176056D01*
X3287649Y8107984D02*
G01*
X3298063Y8097570D01*
X3313556Y8092490D01*
X3334384Y8092490D01*
X3349879Y8097570D01*
X3360293Y8107984D01*
X3360293Y8118398D01*
X3355213Y8128812D01*
X3349879Y8134146D01*
X3339465Y8139226D01*
X3308222Y8149640D01*
X3298063Y8154720D01*
X3292729Y8160054D01*
X3287649Y8170468D01*
X3287649Y8185962D01*
X3298063Y8196376D01*
X3313556Y8201456D01*
X3334384Y8201456D01*
X3349879Y8196376D01*
X3360293Y8185962D01*
X3242945Y8092490D02*
G01*
X3185795Y8092490D01*
X3216783Y8134146D01*
X3201288Y8134146D01*
X3190875Y8139226D01*
X3185795Y8144306D01*
X3180461Y8160054D01*
X3180461Y8170468D01*
X3185795Y8185962D01*
X3196209Y8196376D01*
X3211702Y8201456D01*
X3227197Y8201456D01*
X3242945Y8196376D01*
X3248025Y8191296D01*
X3253359Y8180882D01*
X5726049Y8107984D02*
G01*
X5736463Y8097570D01*
X5751956Y8092490D01*
X5772784Y8092490D01*
X5788279Y8097570D01*
X5798693Y8107984D01*
X5798693Y8118398D01*
X5793613Y8128812D01*
X5788279Y8134146D01*
X5777865Y8139226D01*
X5746622Y8149640D01*
X5736463Y8154720D01*
X5731129Y8160054D01*
X5726049Y8170468D01*
X5726049Y8185962D01*
X5736463Y8196376D01*
X5751956Y8201456D01*
X5772784Y8201456D01*
X5788279Y8196376D01*
X5798693Y8185962D01*
X5639688Y8092490D02*
G01*
X5691759Y8165134D01*
X5613781Y8165134D01*
X5639688Y8092490D02*
G01*
X5639688Y8201456D01*
X7999349Y8107984D02*
G01*
X8009763Y8097570D01*
X8025256Y8092490D01*
X8046084Y8092490D01*
X8061579Y8097570D01*
X8071993Y8107984D01*
X8071993Y8118398D01*
X8066913Y8128812D01*
X8061579Y8134146D01*
X8051165Y8139226D01*
X8019922Y8149640D01*
X8009763Y8154720D01*
X8004429Y8160054D01*
X7999349Y8170468D01*
X7999349Y8185962D01*
X8009763Y8196376D01*
X8025256Y8201456D01*
X8046084Y8201456D01*
X8061579Y8196376D01*
X8071993Y8185962D01*
X7902575Y8092490D02*
G01*
X7954645Y8092490D01*
X7959725Y8139226D01*
X7954645Y8134146D01*
X7938897Y8128812D01*
X7923402Y8128812D01*
X7907909Y8134146D01*
X7897495Y8144306D01*
X7892161Y8160054D01*
X7892161Y8170468D01*
X7897495Y8185962D01*
X7907909Y8196376D01*
X7923402Y8201456D01*
X7938897Y8201456D01*
X7954645Y8196376D01*
X7959725Y8191296D01*
X7965059Y8180882D01*
X4953165Y6069190D02*
G01*
X4953165Y5991212D01*
X4958245Y5975718D01*
X4968659Y5965304D01*
X4984407Y5960224D01*
X4994821Y5960224D01*
X5010315Y5965304D01*
X5020729Y5975718D01*
X5025809Y5991212D01*
X5025809Y6069190D01*
X5060099Y6048362D02*
G01*
X5070513Y6053696D01*
X5086261Y6069190D01*
X5086261Y5960224D01*
D12*
X3987787Y1370837D02*
G01*
X3987787Y1275587D01*
X3987787Y1370837D02*
G01*
X4046969Y1370837D01*
X3987787Y1325371D02*
G01*
X4024109Y1325371D01*
X3987787Y1275587D02*
G01*
X4046969Y1275587D01*
X4076941Y1339087D02*
G01*
X4076941Y1275587D01*
X4076941Y1321054D02*
G01*
X4090403Y1334515D01*
X4099547Y1339087D01*
X4113263Y1339087D01*
X4122407Y1334515D01*
X4126979Y1321054D01*
X4126979Y1275587D01*
X4211307Y1339087D02*
G01*
X4211307Y1275587D01*
X4211307Y1325371D02*
G01*
X4202417Y1334515D01*
X4193273Y1339087D01*
X4179557Y1339087D01*
X4170413Y1334515D01*
X4161523Y1325371D01*
X4156951Y1311910D01*
X4156951Y1302765D01*
X4161523Y1289050D01*
X4170413Y1279905D01*
X4179557Y1275587D01*
X4193273Y1275587D01*
X4202417Y1279905D01*
X4211307Y1289050D01*
X4241533Y1370837D02*
G01*
X4241533Y1275587D01*
X4241533Y1325371D02*
G01*
X4250423Y1334515D01*
X4259567Y1339087D01*
X4273283Y1339087D01*
X4282427Y1334515D01*
X4291317Y1325371D01*
X4295889Y1311910D01*
X4295889Y1302765D01*
X4291317Y1289050D01*
X4282427Y1279905D01*
X4273283Y1275587D01*
X4259567Y1275587D01*
X4250423Y1279905D01*
X4241533Y1289050D01*
X4325861Y1370837D02*
G01*
X4325861Y1275587D01*
X4356087Y1311910D02*
G01*
X4410443Y1311910D01*
X4410443Y1321054D01*
X4405871Y1329944D01*
X4401299Y1334515D01*
X4392409Y1339087D01*
X4378693Y1339087D01*
X4369549Y1334515D01*
X4360405Y1325371D01*
X4356087Y1311910D01*
X4356087Y1302765D01*
X4360405Y1289050D01*
X4369549Y1279905D01*
X4378693Y1275587D01*
X4392409Y1275587D01*
X4401299Y1279905D01*
X4410443Y1289050D01*
X5587987Y1370837D02*
G01*
X5587987Y1275587D01*
X5587987Y1370837D02*
G01*
X5628881Y1370837D01*
X5642597Y1366265D01*
X5647169Y1361947D01*
X5651741Y1352804D01*
X5651741Y1343660D01*
X5647169Y1334515D01*
X5642597Y1329944D01*
X5628881Y1325371D01*
X5587987Y1325371D02*
G01*
X5628881Y1325371D01*
X5642597Y1321054D01*
X5647169Y1316481D01*
X5651741Y1307337D01*
X5651741Y1293621D01*
X5647169Y1284478D01*
X5642597Y1279905D01*
X5628881Y1275587D01*
X5587987Y1275587D01*
X5704319Y1339087D02*
G01*
X5695175Y1334515D01*
X5686285Y1325371D01*
X5681713Y1311910D01*
X5681713Y1302765D01*
X5686285Y1289050D01*
X5695175Y1279905D01*
X5704319Y1275587D01*
X5718035Y1275587D01*
X5727179Y1279905D01*
X5736069Y1289050D01*
X5740641Y1302765D01*
X5740641Y1311910D01*
X5736069Y1325371D01*
X5727179Y1334515D01*
X5718035Y1339087D01*
X5704319Y1339087D01*
X5793473Y1339087D02*
G01*
X5784329Y1334515D01*
X5775185Y1325371D01*
X5770613Y1311910D01*
X5770613Y1302765D01*
X5775185Y1289050D01*
X5784329Y1279905D01*
X5793473Y1275587D01*
X5807189Y1275587D01*
X5816079Y1279905D01*
X5825223Y1289050D01*
X5829795Y1302765D01*
X5829795Y1311910D01*
X5825223Y1325371D01*
X5816079Y1334515D01*
X5807189Y1339087D01*
X5793473Y1339087D01*
X5873483Y1370837D02*
G01*
X5873483Y1293621D01*
X5878055Y1279905D01*
X5887199Y1275587D01*
X5896089Y1275587D01*
X5859767Y1339087D02*
G01*
X5891517Y1339087D01*
X4858524Y1060450D02*
G01*
X4858524Y992378D01*
X4862842Y978662D01*
X4871986Y969518D01*
X4885702Y965200D01*
X4894846Y965200D01*
X4908308Y969518D01*
X4917452Y978662D01*
X4922024Y992378D01*
X4922024Y1060450D01*
X5015750Y1046987D02*
G01*
X5006606Y1055878D01*
X4992890Y1060450D01*
X4974856Y1060450D01*
X4961140Y1055878D01*
X4951996Y1046987D01*
X4951996Y1037844D01*
X4956568Y1028700D01*
X4961140Y1024128D01*
X4970284Y1019555D01*
X4997462Y1010665D01*
X5006606Y1006094D01*
X5011178Y1001521D01*
X5015750Y992378D01*
X5015750Y978662D01*
X5006606Y969518D01*
X4992890Y965200D01*
X4974856Y965200D01*
X4961140Y969518D01*
X4951996Y978662D01*
X5045722Y1060450D02*
G01*
X5045722Y965200D01*
X5045722Y1060450D02*
G01*
X5086616Y1060450D01*
X5100332Y1055878D01*
X5104650Y1051560D01*
X5109222Y1042415D01*
X5109222Y1033271D01*
X5104650Y1024128D01*
X5100332Y1019555D01*
X5086616Y1014984D01*
X5045722Y1014984D02*
G01*
X5086616Y1014984D01*
X5100332Y1010665D01*
X5104650Y1006094D01*
X5109222Y996950D01*
X5109222Y983234D01*
X5104650Y974089D01*
X5100332Y969518D01*
X5086616Y965200D01*
X5045722Y965200D01*
D13*
X3835298Y5343575D02*
G01*
X3835298Y5248071D01*
X3835298Y5343575D02*
G01*
X3894480Y5343575D01*
X3835298Y5298109D02*
G01*
X3871874Y5298109D01*
X3835298Y5248071D02*
G01*
X3894480Y5248071D01*
X3924452Y5343575D02*
G01*
X3924452Y5248071D01*
X3924452Y5343575D02*
G01*
X3988206Y5248071D01*
X3988206Y5343575D02*
G01*
X3988206Y5248071D01*
X3835298Y5089575D02*
G01*
X3835298Y4994071D01*
X3835298Y5089575D02*
G01*
X3867302Y5089575D01*
X3880764Y5085003D01*
X3889908Y5075859D01*
X3894480Y5066715D01*
X3899052Y5053253D01*
X3899052Y5030393D01*
X3894480Y5016931D01*
X3889908Y5007787D01*
X3880764Y4998643D01*
X3867302Y4994071D01*
X3835298Y4994071D01*
X3938168Y5089575D02*
G01*
X3988206Y5089575D01*
X3960774Y5053253D01*
X3974490Y5053253D01*
X3983634Y5048681D01*
X3988206Y5044109D01*
X3992778Y5030393D01*
X3992778Y5021249D01*
X3988206Y5007787D01*
X3979062Y4998643D01*
X3965346Y4994071D01*
X3951630Y4994071D01*
X3938168Y4998643D01*
X3933596Y5003215D01*
X3929024Y5012359D01*
X4077106Y5075859D02*
G01*
X4072534Y5085003D01*
X4059072Y5089575D01*
X4049928Y5089575D01*
X4036212Y5085003D01*
X4027322Y5071287D01*
X4022750Y5048681D01*
X4022750Y5025821D01*
X4027322Y5007787D01*
X4036212Y4998643D01*
X4049928Y4994071D01*
X4054500Y4994071D01*
X4068216Y4998643D01*
X4077106Y5007787D01*
X4081678Y5021249D01*
X4081678Y5025821D01*
X4077106Y5039537D01*
X4068216Y5048681D01*
X4054500Y5053253D01*
X4049928Y5053253D01*
X4036212Y5048681D01*
X4027322Y5039537D01*
X4022750Y5025821D01*
X3835298Y4835575D02*
G01*
X3835298Y4740071D01*
X3835298Y4835575D02*
G01*
X3867302Y4835575D01*
X3880764Y4831003D01*
X3889908Y4821859D01*
X3894480Y4812715D01*
X3899052Y4799253D01*
X3899052Y4776393D01*
X3894480Y4762931D01*
X3889908Y4753787D01*
X3880764Y4744643D01*
X3867302Y4740071D01*
X3835298Y4740071D01*
X3938168Y4835575D02*
G01*
X3988206Y4835575D01*
X3960774Y4799253D01*
X3974490Y4799253D01*
X3983634Y4794681D01*
X3988206Y4790109D01*
X3992778Y4776393D01*
X3992778Y4767249D01*
X3988206Y4753787D01*
X3979062Y4744643D01*
X3965346Y4740071D01*
X3951630Y4740071D01*
X3938168Y4744643D01*
X3933596Y4749215D01*
X3929024Y4758359D01*
X4081678Y4803825D02*
G01*
X4077106Y4790109D01*
X4068216Y4780965D01*
X4054500Y4776393D01*
X4049928Y4776393D01*
X4036212Y4780965D01*
X4027322Y4790109D01*
X4022750Y4803825D01*
X4022750Y4808143D01*
X4027322Y4821859D01*
X4036212Y4831003D01*
X4049928Y4835575D01*
X4054500Y4835575D01*
X4068216Y4831003D01*
X4077106Y4821859D01*
X4081678Y4803825D01*
X4081678Y4780965D01*
X4077106Y4758359D01*
X4068216Y4744643D01*
X4054500Y4740071D01*
X4045356Y4740071D01*
X4031640Y4744643D01*
X4027322Y4753787D01*
X3835298Y4581575D02*
G01*
X3835298Y4486071D01*
X3835298Y4581575D02*
G01*
X3867302Y4581575D01*
X3880764Y4577003D01*
X3889908Y4567859D01*
X3894480Y4558715D01*
X3899052Y4545253D01*
X3899052Y4522393D01*
X3894480Y4508931D01*
X3889908Y4499787D01*
X3880764Y4490643D01*
X3867302Y4486071D01*
X3835298Y4486071D01*
X3938168Y4581575D02*
G01*
X3988206Y4581575D01*
X3960774Y4545253D01*
X3974490Y4545253D01*
X3983634Y4540681D01*
X3988206Y4536109D01*
X3992778Y4522393D01*
X3992778Y4513249D01*
X3988206Y4499787D01*
X3979062Y4490643D01*
X3965346Y4486071D01*
X3951630Y4486071D01*
X3938168Y4490643D01*
X3933596Y4495215D01*
X3929024Y4504359D01*
X4068216Y4581575D02*
G01*
X4022750Y4517821D01*
X4090822Y4517821D01*
X4068216Y4581575D02*
G01*
X4068216Y4486071D01*
X3835298Y4327575D02*
G01*
X3835298Y4232071D01*
X3835298Y4327575D02*
G01*
X3867302Y4327575D01*
X3880764Y4323003D01*
X3889908Y4313859D01*
X3894480Y4304715D01*
X3899052Y4291253D01*
X3899052Y4268393D01*
X3894480Y4254931D01*
X3889908Y4245787D01*
X3880764Y4236643D01*
X3867302Y4232071D01*
X3835298Y4232071D01*
X3938168Y4327575D02*
G01*
X3988206Y4327575D01*
X3960774Y4291253D01*
X3974490Y4291253D01*
X3983634Y4286681D01*
X3988206Y4282109D01*
X3992778Y4268393D01*
X3992778Y4259249D01*
X3988206Y4245787D01*
X3979062Y4236643D01*
X3965346Y4232071D01*
X3951630Y4232071D01*
X3938168Y4236643D01*
X3933596Y4241215D01*
X3929024Y4250359D01*
X4077106Y4327575D02*
G01*
X4031640Y4327575D01*
X4027322Y4286681D01*
X4031640Y4291253D01*
X4045356Y4295825D01*
X4059072Y4295825D01*
X4072534Y4291253D01*
X4081678Y4282109D01*
X4086250Y4268393D01*
X4086250Y4259249D01*
X4081678Y4245787D01*
X4072534Y4236643D01*
X4059072Y4232071D01*
X4045356Y4232071D01*
X4031640Y4236643D01*
X4027322Y4241215D01*
X4022750Y4250359D01*
X3835298Y4073575D02*
G01*
X3835298Y3978071D01*
X3835298Y4073575D02*
G01*
X3867302Y4073575D01*
X3880764Y4069003D01*
X3889908Y4059859D01*
X3894480Y4050715D01*
X3899052Y4037253D01*
X3899052Y4014393D01*
X3894480Y4000931D01*
X3889908Y3991787D01*
X3880764Y3982643D01*
X3867302Y3978071D01*
X3835298Y3978071D01*
X3938168Y4073575D02*
G01*
X3988206Y4073575D01*
X3960774Y4037253D01*
X3974490Y4037253D01*
X3983634Y4032681D01*
X3988206Y4028109D01*
X3992778Y4014393D01*
X3992778Y4005249D01*
X3988206Y3991787D01*
X3979062Y3982643D01*
X3965346Y3978071D01*
X3951630Y3978071D01*
X3938168Y3982643D01*
X3933596Y3987215D01*
X3929024Y3996359D01*
X4027322Y4050715D02*
G01*
X4027322Y4055287D01*
X4031640Y4064431D01*
X4036212Y4069003D01*
X4045356Y4073575D01*
X4063644Y4073575D01*
X4072534Y4069003D01*
X4077106Y4064431D01*
X4081678Y4055287D01*
X4081678Y4046143D01*
X4077106Y4037253D01*
X4068216Y4023537D01*
X4022750Y3978071D01*
X4086250Y3978071D01*
X3835298Y3819575D02*
G01*
X3835298Y3724071D01*
X3835298Y3819575D02*
G01*
X3867302Y3819575D01*
X3880764Y3815003D01*
X3889908Y3805859D01*
X3894480Y3796715D01*
X3899052Y3783253D01*
X3899052Y3760393D01*
X3894480Y3746931D01*
X3889908Y3737787D01*
X3880764Y3728643D01*
X3867302Y3724071D01*
X3835298Y3724071D01*
X3938168Y3819575D02*
G01*
X3988206Y3819575D01*
X3960774Y3783253D01*
X3974490Y3783253D01*
X3983634Y3778681D01*
X3988206Y3774109D01*
X3992778Y3760393D01*
X3992778Y3751249D01*
X3988206Y3737787D01*
X3979062Y3728643D01*
X3965346Y3724071D01*
X3951630Y3724071D01*
X3938168Y3728643D01*
X3933596Y3733215D01*
X3929024Y3742359D01*
X4031640Y3819575D02*
G01*
X4081678Y3819575D01*
X4054500Y3783253D01*
X4068216Y3783253D01*
X4077106Y3778681D01*
X4081678Y3774109D01*
X4086250Y3760393D01*
X4086250Y3751249D01*
X4081678Y3737787D01*
X4072534Y3728643D01*
X4059072Y3724071D01*
X4045356Y3724071D01*
X4031640Y3728643D01*
X4027322Y3733215D01*
X4022750Y3742359D01*
X3835298Y2320975D02*
G01*
X3835298Y2225471D01*
X3835298Y2320975D02*
G01*
X3867302Y2320975D01*
X3880764Y2316403D01*
X3889908Y2307259D01*
X3894480Y2298115D01*
X3899052Y2284653D01*
X3899052Y2261793D01*
X3894480Y2248331D01*
X3889908Y2239187D01*
X3880764Y2230043D01*
X3867302Y2225471D01*
X3835298Y2225471D01*
X3929024Y2302687D02*
G01*
X3938168Y2307259D01*
X3951630Y2320975D01*
X3951630Y2225471D01*
X3990746Y2320975D02*
G01*
X4040784Y2320975D01*
X4013606Y2284653D01*
X4027322Y2284653D01*
X4036212Y2280081D01*
X4040784Y2275509D01*
X4045356Y2261793D01*
X4045356Y2252649D01*
X4040784Y2239187D01*
X4031640Y2230043D01*
X4018178Y2225471D01*
X4004462Y2225471D01*
X3990746Y2230043D01*
X3986174Y2234615D01*
X3981856Y2243759D01*
X3835298Y2549575D02*
G01*
X3835298Y2454071D01*
X3835298Y2549575D02*
G01*
X3867302Y2549575D01*
X3880764Y2545003D01*
X3889908Y2535859D01*
X3894480Y2526715D01*
X3899052Y2513253D01*
X3899052Y2490393D01*
X3894480Y2476931D01*
X3889908Y2467787D01*
X3880764Y2458643D01*
X3867302Y2454071D01*
X3835298Y2454071D01*
X3929024Y2531287D02*
G01*
X3938168Y2535859D01*
X3951630Y2549575D01*
X3951630Y2454071D01*
X3986174Y2526715D02*
G01*
X3986174Y2531287D01*
X3990746Y2540431D01*
X3995318Y2545003D01*
X4004462Y2549575D01*
X4022750Y2549575D01*
X4031640Y2545003D01*
X4036212Y2540431D01*
X4040784Y2531287D01*
X4040784Y2522143D01*
X4036212Y2513253D01*
X4027322Y2499537D01*
X3981856Y2454071D01*
X4045356Y2454071D01*
X3835298Y2803575D02*
G01*
X3835298Y2708071D01*
X3835298Y2803575D02*
G01*
X3867302Y2803575D01*
X3880764Y2799003D01*
X3889908Y2789859D01*
X3894480Y2780715D01*
X3899052Y2767253D01*
X3899052Y2744393D01*
X3894480Y2730931D01*
X3889908Y2721787D01*
X3880764Y2712643D01*
X3867302Y2708071D01*
X3835298Y2708071D01*
X3929024Y2785287D02*
G01*
X3938168Y2789859D01*
X3951630Y2803575D01*
X3951630Y2708071D01*
X4027322Y2803575D02*
G01*
X3981856Y2739821D01*
X4049928Y2739821D01*
X4027322Y2803575D02*
G01*
X4027322Y2708071D01*
X3835298Y3057575D02*
G01*
X3835298Y2962071D01*
X3835298Y3057575D02*
G01*
X3867302Y3057575D01*
X3880764Y3053003D01*
X3889908Y3043859D01*
X3894480Y3034715D01*
X3899052Y3021253D01*
X3899052Y2998393D01*
X3894480Y2984931D01*
X3889908Y2975787D01*
X3880764Y2966643D01*
X3867302Y2962071D01*
X3835298Y2962071D01*
X3933596Y3034715D02*
G01*
X3933596Y3039287D01*
X3938168Y3048431D01*
X3942740Y3053003D01*
X3951630Y3057575D01*
X3969918Y3057575D01*
X3979062Y3053003D01*
X3983634Y3048431D01*
X3988206Y3039287D01*
X3988206Y3030143D01*
X3983634Y3021253D01*
X3974490Y3007537D01*
X3929024Y2962071D01*
X3992778Y2962071D01*
X4086250Y3057575D02*
G01*
X4040784Y2962071D01*
X4022750Y3057575D02*
G01*
X4086250Y3057575D01*
X3835298Y3311575D02*
G01*
X3835298Y3216071D01*
X3835298Y3311575D02*
G01*
X3867302Y3311575D01*
X3880764Y3307003D01*
X3889908Y3297859D01*
X3894480Y3288715D01*
X3899052Y3275253D01*
X3899052Y3252393D01*
X3894480Y3238931D01*
X3889908Y3229787D01*
X3880764Y3220643D01*
X3867302Y3216071D01*
X3835298Y3216071D01*
X3933596Y3288715D02*
G01*
X3933596Y3293287D01*
X3938168Y3302431D01*
X3942740Y3307003D01*
X3951630Y3311575D01*
X3969918Y3311575D01*
X3979062Y3307003D01*
X3983634Y3302431D01*
X3988206Y3293287D01*
X3988206Y3284143D01*
X3983634Y3275253D01*
X3974490Y3261537D01*
X3929024Y3216071D01*
X3992778Y3216071D01*
X4077106Y3297859D02*
G01*
X4072534Y3307003D01*
X4059072Y3311575D01*
X4049928Y3311575D01*
X4036212Y3307003D01*
X4027322Y3293287D01*
X4022750Y3270681D01*
X4022750Y3247821D01*
X4027322Y3229787D01*
X4036212Y3220643D01*
X4049928Y3216071D01*
X4054500Y3216071D01*
X4068216Y3220643D01*
X4077106Y3229787D01*
X4081678Y3243249D01*
X4081678Y3247821D01*
X4077106Y3261537D01*
X4068216Y3270681D01*
X4054500Y3275253D01*
X4049928Y3275253D01*
X4036212Y3270681D01*
X4027322Y3261537D01*
X4022750Y3247821D01*
X3835298Y3565575D02*
G01*
X3835298Y3470071D01*
X3835298Y3565575D02*
G01*
X3867302Y3565575D01*
X3880764Y3561003D01*
X3889908Y3551859D01*
X3894480Y3542715D01*
X3899052Y3529253D01*
X3899052Y3506393D01*
X3894480Y3492931D01*
X3889908Y3483787D01*
X3880764Y3474643D01*
X3867302Y3470071D01*
X3835298Y3470071D01*
X3933596Y3542715D02*
G01*
X3933596Y3547287D01*
X3938168Y3556431D01*
X3942740Y3561003D01*
X3951630Y3565575D01*
X3969918Y3565575D01*
X3979062Y3561003D01*
X3983634Y3556431D01*
X3988206Y3547287D01*
X3988206Y3538143D01*
X3983634Y3529253D01*
X3974490Y3515537D01*
X3929024Y3470071D01*
X3992778Y3470071D01*
X4077106Y3565575D02*
G01*
X4031640Y3565575D01*
X4027322Y3524681D01*
X4031640Y3529253D01*
X4045356Y3533825D01*
X4059072Y3533825D01*
X4072534Y3529253D01*
X4081678Y3520109D01*
X4086250Y3506393D01*
X4086250Y3497249D01*
X4081678Y3483787D01*
X4072534Y3474643D01*
X4059072Y3470071D01*
X4045356Y3470071D01*
X4031640Y3474643D01*
X4027322Y3479215D01*
X4022750Y3488359D01*
X5867298Y3565575D02*
G01*
X5867298Y3470071D01*
X5867298Y3565575D02*
G01*
X5899302Y3565575D01*
X5912764Y3561003D01*
X5921908Y3551859D01*
X5926480Y3542715D01*
X5931052Y3529253D01*
X5931052Y3506393D01*
X5926480Y3492931D01*
X5921908Y3483787D01*
X5912764Y3474643D01*
X5899302Y3470071D01*
X5867298Y3470071D01*
X5988202Y3565575D02*
G01*
X5974740Y3561003D01*
X5965596Y3547287D01*
X5961024Y3524681D01*
X5961024Y3510965D01*
X5965596Y3488359D01*
X5974740Y3474643D01*
X5988202Y3470071D01*
X5997346Y3470071D01*
X6011062Y3474643D01*
X6020206Y3488359D01*
X6024778Y3510965D01*
X6024778Y3524681D01*
X6020206Y3547287D01*
X6011062Y3561003D01*
X5997346Y3565575D01*
X5988202Y3565575D01*
X6109106Y3565575D02*
G01*
X6063640Y3565575D01*
X6059322Y3524681D01*
X6063640Y3529253D01*
X6077356Y3533825D01*
X6091072Y3533825D01*
X6104534Y3529253D01*
X6113678Y3520109D01*
X6118250Y3506393D01*
X6118250Y3497249D01*
X6113678Y3483787D01*
X6104534Y3474643D01*
X6091072Y3470071D01*
X6077356Y3470071D01*
X6063640Y3474643D01*
X6059322Y3479215D01*
X6054750Y3488359D01*
X5899302Y3311575D02*
G01*
X5899302Y3216071D01*
X5867298Y3311575D02*
G01*
X5931052Y3311575D01*
X5961024Y3311575D02*
G01*
X6024778Y3216071D01*
X6024778Y3311575D02*
G01*
X5961024Y3216071D01*
X6059322Y3288715D02*
G01*
X6059322Y3293287D01*
X6063640Y3302431D01*
X6068212Y3307003D01*
X6077356Y3311575D01*
X6095644Y3311575D01*
X6104534Y3307003D01*
X6109106Y3302431D01*
X6113678Y3293287D01*
X6113678Y3284143D01*
X6109106Y3275253D01*
X6100216Y3261537D01*
X6054750Y3216071D01*
X6118250Y3216071D01*
X5867298Y3057575D02*
G01*
X5867298Y2962071D01*
X5867298Y3057575D02*
G01*
X5908192Y3057575D01*
X5921908Y3053003D01*
X5926480Y3048431D01*
X5931052Y3039287D01*
X5931052Y3030143D01*
X5926480Y3021253D01*
X5921908Y3016681D01*
X5908192Y3012109D01*
X5867298Y3012109D01*
X5899302Y3012109D02*
G01*
X5931052Y2962071D01*
X5961024Y3057575D02*
G01*
X6024778Y2962071D01*
X6024778Y3057575D02*
G01*
X5961024Y2962071D01*
X6059322Y3034715D02*
G01*
X6059322Y3039287D01*
X6063640Y3048431D01*
X6068212Y3053003D01*
X6077356Y3057575D01*
X6095644Y3057575D01*
X6104534Y3053003D01*
X6109106Y3048431D01*
X6113678Y3039287D01*
X6113678Y3030143D01*
X6109106Y3021253D01*
X6100216Y3007537D01*
X6054750Y2962071D01*
X6118250Y2962071D01*
X5867298Y2803575D02*
G01*
X5867298Y2708071D01*
X5867298Y2803575D02*
G01*
X5899302Y2803575D01*
X5912764Y2799003D01*
X5921908Y2789859D01*
X5926480Y2780715D01*
X5931052Y2767253D01*
X5931052Y2744393D01*
X5926480Y2730931D01*
X5921908Y2721787D01*
X5912764Y2712643D01*
X5899302Y2708071D01*
X5867298Y2708071D01*
X5988202Y2803575D02*
G01*
X5974740Y2799003D01*
X5965596Y2785287D01*
X5961024Y2762681D01*
X5961024Y2748965D01*
X5965596Y2726359D01*
X5974740Y2712643D01*
X5988202Y2708071D01*
X5997346Y2708071D01*
X6011062Y2712643D01*
X6020206Y2726359D01*
X6024778Y2748965D01*
X6024778Y2762681D01*
X6020206Y2785287D01*
X6011062Y2799003D01*
X5997346Y2803575D01*
X5988202Y2803575D01*
X6100216Y2803575D02*
G01*
X6054750Y2739821D01*
X6122822Y2739821D01*
X6100216Y2803575D02*
G01*
X6100216Y2708071D01*
X5867298Y2549575D02*
G01*
X5867298Y2454071D01*
X5867298Y2549575D02*
G01*
X5899302Y2549575D01*
X5912764Y2545003D01*
X5921908Y2535859D01*
X5926480Y2526715D01*
X5931052Y2513253D01*
X5931052Y2490393D01*
X5926480Y2476931D01*
X5921908Y2467787D01*
X5912764Y2458643D01*
X5899302Y2454071D01*
X5867298Y2454071D01*
X5988202Y2549575D02*
G01*
X5974740Y2545003D01*
X5965596Y2531287D01*
X5961024Y2508681D01*
X5961024Y2494965D01*
X5965596Y2472359D01*
X5974740Y2458643D01*
X5988202Y2454071D01*
X5997346Y2454071D01*
X6011062Y2458643D01*
X6020206Y2472359D01*
X6024778Y2494965D01*
X6024778Y2508681D01*
X6020206Y2531287D01*
X6011062Y2545003D01*
X5997346Y2549575D01*
X5988202Y2549575D01*
X6059322Y2526715D02*
G01*
X6059322Y2531287D01*
X6063640Y2540431D01*
X6068212Y2545003D01*
X6077356Y2549575D01*
X6095644Y2549575D01*
X6104534Y2545003D01*
X6109106Y2540431D01*
X6113678Y2531287D01*
X6113678Y2522143D01*
X6109106Y2513253D01*
X6100216Y2499537D01*
X6054750Y2454071D01*
X6118250Y2454071D01*
X5867298Y2320975D02*
G01*
X5867298Y2225471D01*
X5867298Y2320975D02*
G01*
X5899302Y2320975D01*
X5912764Y2316403D01*
X5921908Y2307259D01*
X5926480Y2298115D01*
X5931052Y2284653D01*
X5931052Y2261793D01*
X5926480Y2248331D01*
X5921908Y2239187D01*
X5912764Y2230043D01*
X5899302Y2225471D01*
X5867298Y2225471D01*
X5961024Y2302687D02*
G01*
X5970168Y2307259D01*
X5983630Y2320975D01*
X5983630Y2225471D01*
X6068212Y2320975D02*
G01*
X6022746Y2320975D01*
X6018174Y2280081D01*
X6022746Y2284653D01*
X6036462Y2289225D01*
X6050178Y2289225D01*
X6063640Y2284653D01*
X6072784Y2275509D01*
X6077356Y2261793D01*
X6077356Y2252649D01*
X6072784Y2239187D01*
X6063640Y2230043D01*
X6050178Y2225471D01*
X6036462Y2225471D01*
X6022746Y2230043D01*
X6018174Y2234615D01*
X6013856Y2243759D01*
X5867298Y3819575D02*
G01*
X5867298Y3724071D01*
X5867298Y3819575D02*
G01*
X5899302Y3819575D01*
X5912764Y3815003D01*
X5921908Y3805859D01*
X5926480Y3796715D01*
X5931052Y3783253D01*
X5931052Y3760393D01*
X5926480Y3746931D01*
X5921908Y3737787D01*
X5912764Y3728643D01*
X5899302Y3724071D01*
X5867298Y3724071D01*
X5961024Y3801287D02*
G01*
X5970168Y3805859D01*
X5983630Y3819575D01*
X5983630Y3724071D01*
X6036462Y3819575D02*
G01*
X6022746Y3815003D01*
X6018174Y3805859D01*
X6018174Y3796715D01*
X6022746Y3787825D01*
X6031890Y3783253D01*
X6050178Y3778681D01*
X6063640Y3774109D01*
X6072784Y3764965D01*
X6077356Y3755821D01*
X6077356Y3742359D01*
X6072784Y3733215D01*
X6068212Y3728643D01*
X6054750Y3724071D01*
X6036462Y3724071D01*
X6022746Y3728643D01*
X6018174Y3733215D01*
X6013856Y3742359D01*
X6013856Y3755821D01*
X6018174Y3764965D01*
X6027318Y3774109D01*
X6041034Y3778681D01*
X6059322Y3783253D01*
X6068212Y3787825D01*
X6072784Y3796715D01*
X6072784Y3805859D01*
X6068212Y3815003D01*
X6054750Y3819575D01*
X6036462Y3819575D01*
X5867298Y4073575D02*
G01*
X5867298Y3978071D01*
X5867298Y4073575D02*
G01*
X5899302Y4073575D01*
X5912764Y4069003D01*
X5921908Y4059859D01*
X5926480Y4050715D01*
X5931052Y4037253D01*
X5931052Y4014393D01*
X5926480Y4000931D01*
X5921908Y3991787D01*
X5912764Y3982643D01*
X5899302Y3978071D01*
X5867298Y3978071D01*
X5961024Y4055287D02*
G01*
X5970168Y4059859D01*
X5983630Y4073575D01*
X5983630Y3978071D01*
X6072784Y4041825D02*
G01*
X6068212Y4028109D01*
X6059322Y4018965D01*
X6045606Y4014393D01*
X6041034Y4014393D01*
X6027318Y4018965D01*
X6018174Y4028109D01*
X6013856Y4041825D01*
X6013856Y4046143D01*
X6018174Y4059859D01*
X6027318Y4069003D01*
X6041034Y4073575D01*
X6045606Y4073575D01*
X6059322Y4069003D01*
X6068212Y4059859D01*
X6072784Y4041825D01*
X6072784Y4018965D01*
X6068212Y3996359D01*
X6059322Y3982643D01*
X6045606Y3978071D01*
X6036462Y3978071D01*
X6022746Y3982643D01*
X6018174Y3991787D01*
X5867298Y4327575D02*
G01*
X5867298Y4232071D01*
X5867298Y4327575D02*
G01*
X5899302Y4327575D01*
X5912764Y4323003D01*
X5921908Y4313859D01*
X5926480Y4304715D01*
X5931052Y4291253D01*
X5931052Y4268393D01*
X5926480Y4254931D01*
X5921908Y4245787D01*
X5912764Y4236643D01*
X5899302Y4232071D01*
X5867298Y4232071D01*
X5965596Y4304715D02*
G01*
X5965596Y4309287D01*
X5970168Y4318431D01*
X5974740Y4323003D01*
X5983630Y4327575D01*
X6001918Y4327575D01*
X6011062Y4323003D01*
X6015634Y4318431D01*
X6020206Y4309287D01*
X6020206Y4300143D01*
X6015634Y4291253D01*
X6006490Y4277537D01*
X5961024Y4232071D01*
X6024778Y4232071D01*
X6054750Y4309287D02*
G01*
X6063640Y4313859D01*
X6077356Y4327575D01*
X6077356Y4232071D01*
X5867298Y4581575D02*
G01*
X5867298Y4486071D01*
X5867298Y4581575D02*
G01*
X5908192Y4581575D01*
X5921908Y4577003D01*
X5926480Y4572431D01*
X5931052Y4563287D01*
X5931052Y4554143D01*
X5926480Y4545253D01*
X5921908Y4540681D01*
X5908192Y4536109D01*
X5867298Y4536109D01*
X5899302Y4536109D02*
G01*
X5931052Y4486071D01*
X5961024Y4581575D02*
G01*
X6024778Y4486071D01*
X6024778Y4581575D02*
G01*
X5961024Y4486071D01*
X6081928Y4581575D02*
G01*
X6068212Y4577003D01*
X6059322Y4563287D01*
X6054750Y4540681D01*
X6054750Y4526965D01*
X6059322Y4504359D01*
X6068212Y4490643D01*
X6081928Y4486071D01*
X6091072Y4486071D01*
X6104534Y4490643D01*
X6113678Y4504359D01*
X6118250Y4526965D01*
X6118250Y4540681D01*
X6113678Y4563287D01*
X6104534Y4577003D01*
X6091072Y4581575D01*
X6081928Y4581575D01*
X5899302Y4835575D02*
G01*
X5899302Y4740071D01*
X5867298Y4835575D02*
G01*
X5931052Y4835575D01*
X5961024Y4835575D02*
G01*
X6024778Y4740071D01*
X6024778Y4835575D02*
G01*
X5961024Y4740071D01*
X6081928Y4835575D02*
G01*
X6068212Y4831003D01*
X6059322Y4817287D01*
X6054750Y4794681D01*
X6054750Y4780965D01*
X6059322Y4758359D01*
X6068212Y4744643D01*
X6081928Y4740071D01*
X6091072Y4740071D01*
X6104534Y4744643D01*
X6113678Y4758359D01*
X6118250Y4780965D01*
X6118250Y4794681D01*
X6113678Y4817287D01*
X6104534Y4831003D01*
X6091072Y4835575D01*
X6081928Y4835575D01*
X5867298Y5089575D02*
G01*
X5867298Y4994071D01*
X5867298Y5089575D02*
G01*
X5899302Y5089575D01*
X5912764Y5085003D01*
X5921908Y5075859D01*
X5926480Y5066715D01*
X5931052Y5053253D01*
X5931052Y5030393D01*
X5926480Y5016931D01*
X5921908Y5007787D01*
X5912764Y4998643D01*
X5899302Y4994071D01*
X5867298Y4994071D01*
X5965596Y5066715D02*
G01*
X5965596Y5071287D01*
X5970168Y5080431D01*
X5974740Y5085003D01*
X5983630Y5089575D01*
X6001918Y5089575D01*
X6011062Y5085003D01*
X6015634Y5080431D01*
X6020206Y5071287D01*
X6020206Y5062143D01*
X6015634Y5053253D01*
X6006490Y5039537D01*
X5961024Y4994071D01*
X6024778Y4994071D01*
X6059322Y5066715D02*
G01*
X6059322Y5071287D01*
X6063640Y5080431D01*
X6068212Y5085003D01*
X6077356Y5089575D01*
X6095644Y5089575D01*
X6104534Y5085003D01*
X6109106Y5080431D01*
X6113678Y5071287D01*
X6113678Y5062143D01*
X6109106Y5053253D01*
X6100216Y5039537D01*
X6054750Y4994071D01*
X6118250Y4994071D01*
X5867298Y5343575D02*
G01*
X5867298Y5248071D01*
X5867298Y5343575D02*
G01*
X5899302Y5343575D01*
X5912764Y5339003D01*
X5921908Y5329859D01*
X5926480Y5320715D01*
X5931052Y5307253D01*
X5931052Y5284393D01*
X5926480Y5270931D01*
X5921908Y5261787D01*
X5912764Y5252643D01*
X5899302Y5248071D01*
X5867298Y5248071D01*
X5965596Y5320715D02*
G01*
X5965596Y5325287D01*
X5970168Y5334431D01*
X5974740Y5339003D01*
X5983630Y5343575D01*
X6001918Y5343575D01*
X6011062Y5339003D01*
X6015634Y5334431D01*
X6020206Y5325287D01*
X6020206Y5316143D01*
X6015634Y5307253D01*
X6006490Y5293537D01*
X5961024Y5248071D01*
X6024778Y5248071D01*
X6063640Y5343575D02*
G01*
X6113678Y5343575D01*
X6086500Y5307253D01*
X6100216Y5307253D01*
X6109106Y5302681D01*
X6113678Y5298109D01*
X6118250Y5284393D01*
X6118250Y5275249D01*
X6113678Y5261787D01*
X6104534Y5252643D01*
X6091072Y5248071D01*
X6077356Y5248071D01*
X6063640Y5252643D01*
X6059322Y5257215D01*
X6054750Y5266359D01*
X5935624Y2018715D02*
G01*
X5931052Y2027859D01*
X5921908Y2037003D01*
X5912764Y2041575D01*
X5894730Y2041575D01*
X5885586Y2037003D01*
X5876442Y2027859D01*
X5871870Y2018715D01*
X5867298Y2005253D01*
X5867298Y1982393D01*
X5871870Y1968931D01*
X5876442Y1959787D01*
X5885586Y1950643D01*
X5894730Y1946071D01*
X5912764Y1946071D01*
X5921908Y1950643D01*
X5931052Y1959787D01*
X5935624Y1968931D01*
X5935624Y1982393D01*
X5912764Y1982393D02*
G01*
X5935624Y1982393D01*
X5965596Y2041575D02*
G01*
X5965596Y1946071D01*
X5965596Y2041575D02*
G01*
X6029096Y1946071D01*
X6029096Y2041575D02*
G01*
X6029096Y1946071D01*
X6059322Y2041575D02*
G01*
X6059322Y1946071D01*
X6059322Y2041575D02*
G01*
X6091072Y2041575D01*
X6104534Y2037003D01*
X6113678Y2027859D01*
X6118250Y2018715D01*
X6122822Y2005253D01*
X6122822Y1982393D01*
X6118250Y1968931D01*
X6113678Y1959787D01*
X6104534Y1950643D01*
X6091072Y1946071D01*
X6059322Y1946071D01*
X5876442Y1787575D02*
G01*
X5926480Y1787575D01*
X5899302Y1751253D01*
X5912764Y1751253D01*
X5921908Y1746681D01*
X5926480Y1742109D01*
X5931052Y1728393D01*
X5931052Y1719249D01*
X5926480Y1705787D01*
X5917336Y1696643D01*
X5903874Y1692071D01*
X5890158Y1692071D01*
X5876442Y1696643D01*
X5871870Y1701215D01*
X5867298Y1710359D01*
X5961024Y1787575D02*
G01*
X5997346Y1692071D01*
X6033668Y1787575D02*
G01*
X5997346Y1692071D01*
X6072784Y1787575D02*
G01*
X6122822Y1787575D01*
X6095644Y1751253D01*
X6109106Y1751253D01*
X6118250Y1746681D01*
X6122822Y1742109D01*
X6127394Y1728393D01*
X6127394Y1719249D01*
X6122822Y1705787D01*
X6113678Y1696643D01*
X6100216Y1692071D01*
X6086500Y1692071D01*
X6072784Y1696643D01*
X6068212Y1701215D01*
X6063640Y1710359D01*
X3835298Y1787575D02*
G01*
X3871874Y1692071D01*
X3908196Y1787575D02*
G01*
X3871874Y1692071D01*
X3938168Y1787575D02*
G01*
X3938168Y1692071D01*
X3968140Y1787575D02*
G01*
X3968140Y1692071D01*
X3968140Y1787575D02*
G01*
X4031640Y1692071D01*
X4031640Y1787575D02*
G01*
X4031640Y1692071D01*
X3903624Y2018715D02*
G01*
X3899052Y2027859D01*
X3889908Y2037003D01*
X3880764Y2041575D01*
X3862730Y2041575D01*
X3853586Y2037003D01*
X3844442Y2027859D01*
X3839870Y2018715D01*
X3835298Y2005253D01*
X3835298Y1982393D01*
X3839870Y1968931D01*
X3844442Y1959787D01*
X3853586Y1950643D01*
X3862730Y1946071D01*
X3880764Y1946071D01*
X3889908Y1950643D01*
X3899052Y1959787D01*
X3903624Y1968931D01*
X3903624Y1982393D01*
X3880764Y1982393D02*
G01*
X3903624Y1982393D01*
X3933596Y2041575D02*
G01*
X3933596Y1946071D01*
X3933596Y2041575D02*
G01*
X3997096Y1946071D01*
X3997096Y2041575D02*
G01*
X3997096Y1946071D01*
X4027322Y2041575D02*
G01*
X4027322Y1946071D01*
X4027322Y2041575D02*
G01*
X4059072Y2041575D01*
X4072534Y2037003D01*
X4081678Y2027859D01*
X4086250Y2018715D01*
X4090822Y2005253D01*
X4090822Y1982393D01*
X4086250Y1968931D01*
X4081678Y1959787D01*
X4072534Y1950643D01*
X4059072Y1946071D01*
X4027322Y1946071D01*
D10*
X2209800Y445515D02*
G01*
X2209800Y367537D01*
X2214879Y352044D01*
X2225293Y341629D01*
X2241041Y336550D01*
X2251456Y336550D01*
X2266950Y341629D01*
X2277363Y352044D01*
X2282443Y367537D01*
X2282443Y445515D01*
X2322068Y419607D02*
G01*
X2322068Y424687D01*
X2327147Y435102D01*
X2332481Y440436D01*
X2342895Y445515D01*
X2363470Y445515D01*
X2373884Y440436D01*
X2379218Y435102D01*
X2384297Y424687D01*
X2384297Y414273D01*
X2379218Y403860D01*
X2368804Y388365D01*
X2316734Y336550D01*
X2389631Y336550D01*
X6488684Y2755900D02*
G01*
X6597650Y2755900D01*
X6488684Y2755900D02*
G01*
X6488684Y2802636D01*
X6493763Y2818129D01*
X6499097Y2823463D01*
X6509511Y2828544D01*
X6519925Y2828544D01*
X6530340Y2823463D01*
X6535420Y2818129D01*
X6540500Y2802636D01*
X6540500Y2755900D01*
X6540500Y2792221D02*
G01*
X6597650Y2828544D01*
X6488684Y2914904D02*
G01*
X6561327Y2862834D01*
X6561327Y2940812D01*
X6488684Y2914904D02*
G01*
X6597650Y2914904D01*
G36*
X2363825Y7023100D02*
G01*
X2363825Y6692900D01*
X2373376Y6702653D01*
X2382367Y6712915D01*
X2390749Y6723735D01*
X2398471Y6735013D01*
X2405481Y6746748D01*
X2411780Y6758889D01*
X2417318Y6771386D01*
X2422144Y6784187D01*
X2426157Y6797243D01*
X2429408Y6810502D01*
X2431846Y6823964D01*
X2433472Y6837527D01*
X2434285Y6851142D01*
X2434285Y6864858D01*
X2433472Y6878472D01*
X2431846Y6892036D01*
X2429408Y6905498D01*
X2426157Y6918756D01*
X2422144Y6931812D01*
X2417318Y6944614D01*
X2411780Y6957110D01*
X2405481Y6969252D01*
X2398471Y6980986D01*
X2390749Y6992264D01*
X2382367Y7003084D01*
X2373376Y7013346D01*
G37*
G36*
X569874Y3733800D02*
G01*
X560324Y3724046D01*
X551332Y3713784D01*
X542950Y3702964D01*
X535228Y3691686D01*
X528218Y3679951D01*
X521919Y3667810D01*
X516382Y3655314D01*
X511556Y3642512D01*
X507542Y3629456D01*
X504291Y3616198D01*
X501853Y3602736D01*
X500227Y3589172D01*
X499414Y3575558D01*
X499414Y3561842D01*
X500227Y3548227D01*
X501853Y3534664D01*
X504291Y3521201D01*
X507542Y3507943D01*
X511556Y3494887D01*
X516382Y3482086D01*
X521919Y3469589D01*
X528218Y3457448D01*
X535228Y3445713D01*
X542950Y3434435D01*
X551332Y3423615D01*
X560324Y3413353D01*
X569874Y3403600D01*
G37*
G36*
X1957425Y3162300D02*
G01*
X1957425Y2832100D01*
X1966975Y2841853D01*
X1975967Y2852115D01*
X1984349Y2862935D01*
X1992071Y2874213D01*
X1999081Y2885948D01*
X2005380Y2898089D01*
X2010918Y2910586D01*
X2015743Y2923387D01*
X2019757Y2936443D01*
X2023008Y2949702D01*
X2025446Y2963164D01*
X2027072Y2976727D01*
X2027885Y2990342D01*
X2027885Y3004058D01*
X2027072Y3017672D01*
X2025446Y3031236D01*
X2023008Y3044698D01*
X2019757Y3057956D01*
X2015743Y3071012D01*
X2010918Y3083814D01*
X2005380Y3096310D01*
X1999081Y3108452D01*
X1992071Y3120186D01*
X1984349Y3131464D01*
X1975967Y3142284D01*
X1966975Y3152546D01*
G37*
D14*
X2032787Y7007987D02*
G01*
X2134387Y7007987D01*
X2084400Y7057999D02*
G01*
X2084400Y6956399D01*
X900912Y3418712D02*
G01*
X799312Y3418712D01*
X849299Y3368700D02*
G01*
X849299Y3470300D01*
X1626387Y3147187D02*
G01*
X1727987Y3147187D01*
X1678000Y3197199D02*
G01*
X1678000Y3095599D01*
X8953500Y5143500D02*
G01*
X8953500Y5499100D01*
X2235200Y5118100D02*
G01*
X2235200Y5473700D01*
X9607199Y3936700D02*
G01*
X9087200Y3936700D01*
X9087200Y3936700D02*
G01*
X9087200Y4216699D01*
X9607199Y4216699D02*
G01*
X9087200Y4216699D01*
X9607199Y3936700D02*
G01*
X9607199Y4216699D01*
X9511273Y3936700D02*
G01*
X9511273Y4216699D01*
X1841500Y854710D02*
G01*
X1841500Y811529D01*
X1749425Y1440179D02*
G01*
X1831339Y1440179D01*
X1841500Y795020D01*
X1755139Y795020D01*
X871220Y1435100D02*
G01*
X871220Y795020D01*
X871220Y795020D02*
G01*
X1755139Y795020D01*
X871220Y1435100D02*
G01*
X1749425Y1440179D01*
D13*
X8991600Y7416800D02*
G01*
X8991600Y7162800D01*
X7975600Y7162800D01*
X7975600Y7416800D01*
X8166100Y7416800D01*
D15*
X8991600Y7416800D02*
G01*
X8166100Y7416800D01*
D13*
X7937500Y1612900D02*
G01*
X7683500Y1612900D01*
X7683500Y2628900D01*
X7937500Y2628900D01*
X7937500Y2438400D01*
D15*
X7937500Y1612900D02*
G01*
X7937500Y2438400D01*
D14*
X9436100Y2844800D02*
G01*
X9436100Y2692400D01*
X9512300Y2768600D02*
G01*
X9359900Y2768600D01*
X8557386Y4020690D02*
G01*
X8557386Y3624709D01*
X7152640Y5176520D02*
G01*
X7152640Y5415279D01*
X7152640Y5415279D02*
G01*
X7782559Y5415279D01*
X7782559Y5415279D02*
G01*
X7782559Y5176520D01*
X7782559Y5176520D02*
G01*
X7152640Y5176520D01*
X1115060Y6418579D02*
G01*
X1115060Y6179820D01*
X1115060Y6179820D02*
G01*
X485139Y6179820D01*
X485139Y6179820D02*
G01*
X485139Y6418579D01*
X485139Y6418579D02*
G01*
X1115060Y6418579D01*
X485139Y4744720D02*
G01*
X485139Y4983479D01*
X485139Y4983479D02*
G01*
X1115060Y4983479D01*
X1115060Y4983479D02*
G01*
X1115060Y4744720D01*
X1115060Y4744720D02*
G01*
X485139Y4744720D01*
X6797040Y3677920D02*
G01*
X6797040Y3916679D01*
X6797040Y3916679D02*
G01*
X7426959Y3916679D01*
X7426959Y3916679D02*
G01*
X7426959Y3677920D01*
X7426959Y3677920D02*
G01*
X6797040Y3677920D01*
X2024379Y8524239D02*
G01*
X1785620Y8524239D01*
X1785620Y8524239D02*
G01*
X1785620Y9154160D01*
X1785620Y9154160D02*
G01*
X2024379Y9154160D01*
X2024379Y9154160D02*
G01*
X2024379Y8524239D01*
X4577079Y8536939D02*
G01*
X4338320Y8536939D01*
X4338320Y8536939D02*
G01*
X4338320Y9166860D01*
X4338320Y9166860D02*
G01*
X4577079Y9166860D01*
X4577079Y9166860D02*
G01*
X4577079Y8536939D01*
X6863079Y8524239D02*
G01*
X6624320Y8524239D01*
X6624320Y8524239D02*
G01*
X6624320Y9154160D01*
X6624320Y9154160D02*
G01*
X6863079Y9154160D01*
X6863079Y9154160D02*
G01*
X6863079Y8524239D01*
X9149079Y8498839D02*
G01*
X8910320Y8498839D01*
X8910320Y8498839D02*
G01*
X8910320Y9128760D01*
X8910320Y9128760D02*
G01*
X9149079Y9128760D01*
X9149079Y9128760D02*
G01*
X9149079Y8498839D01*
X1408630Y6888073D02*
G01*
X953569Y6888073D01*
X891412Y7081138D02*
G01*
X891412Y7295261D01*
X960760Y7477963D02*
G01*
X1401439Y7477963D01*
X1471269Y7295118D02*
G01*
X1471269Y7081281D01*
X1395930Y8259673D02*
G01*
X940869Y8259673D01*
X878712Y8452738D02*
G01*
X878712Y8666861D01*
X948060Y8849563D02*
G01*
X1388739Y8849563D01*
X1458569Y8666718D02*
G01*
X1458569Y8452881D01*
X3567630Y8285073D02*
G01*
X3112569Y8285073D01*
X3050413Y8478138D02*
G01*
X3050413Y8692261D01*
X3119760Y8874963D02*
G01*
X3560439Y8874963D01*
X3630269Y8692118D02*
G01*
X3630269Y8478281D01*
X6006030Y8285073D02*
G01*
X5550969Y8285073D01*
X5488813Y8478138D02*
G01*
X5488813Y8692261D01*
X5558160Y8874963D02*
G01*
X5998839Y8874963D01*
X6068669Y8692118D02*
G01*
X6068669Y8478281D01*
X8279330Y8285073D02*
G01*
X7824269Y8285073D01*
X7762113Y8478138D02*
G01*
X7762113Y8692261D01*
X7831460Y8874963D02*
G01*
X8272139Y8874963D01*
X8341969Y8692118D02*
G01*
X8341969Y8478281D01*
D16*
X6372176Y965149D02*
G01*
X6375400Y5740400D01*
X4572000Y762000D02*
G01*
X4572000Y1361998D01*
X5371998Y1361998D01*
X5371998Y762000D01*
X4089400Y838200D02*
G01*
X4089400Y1219200D01*
X4343400Y1219200D01*
X4343400Y838200D01*
X4089400Y838200D01*
X5867400Y1219200D02*
G01*
X5867400Y838200D01*
X5613400Y838200D01*
X5613400Y1219200D01*
X5867400Y1219200D01*
X3784600Y762000D02*
G01*
X6172200Y762000D01*
X3580350Y5740547D02*
G01*
X3581400Y965200D01*
X3778389Y5912612D02*
G01*
X6171562Y5910872D01*
X5816600Y5325534D02*
G01*
X4140200Y5334000D01*
X4140200Y5816600D01*
X5816600Y5816600D01*
X5816600Y5816600D02*
G01*
X5816600Y5334000D01*
X5728411Y5253192D02*
G01*
X5728411Y3453193D01*
X4228414Y3453193D01*
X4228414Y5253192D01*
X5728411Y5253192D01*
X5486400Y5749988D02*
G01*
X5486400Y5394388D01*
X4216400Y5394388D02*
G01*
X4216400Y5749988D01*
X4470400Y5749988D01*
X4470400Y5546788D01*
X4724400Y5546788D01*
X4724400Y5749988D01*
X4978400Y5749988D01*
X4978400Y5546788D01*
X5232400Y5546788D01*
X5232400Y5749988D01*
X5740400Y5749988D01*
X5740400Y5394388D01*
D14*
X816086Y2417602D02*
G01*
X1876287Y2417602D01*
X1876287Y1937793D01*
X816086Y1937793D01*
X816086Y2417094D01*
X816086Y2417602D01*
X1876183Y2357686D02*
G01*
X816190Y2357686D01*
X6875779Y2440939D02*
G01*
X6637020Y2440939D01*
X6637020Y2440939D02*
G01*
X6637020Y3070860D01*
X6637020Y3070860D02*
G01*
X6875779Y3070860D01*
X6875779Y3070860D02*
G01*
X6875779Y2440939D01*
G75*
G01*
X8953500Y5499100D02*
G03*
X8953500Y5143500I-228608J-177800D01*
G75*
G01*
X2235200Y5473700D02*
G03*
X2235200Y5118100I-228608J-177800D01*
G75*
G01*
X9436100Y2870200D02*
G03*
X9436100Y2260600I-380988J-304800D01*
G75*
G01*
X9436100Y2870200D02*
G02*
X9436100Y2260600I10412J-304800D01*
G75*
G01*
X8278901Y3581400D02*
G02*
X8278901Y4064000I168461J241300D01*
D17*
G75*
G01*
X5790400Y1023137D02*
G03*
X5790374Y1022579I-49948J1991D01*
G75*
G01*
X4266400Y1023137D02*
G03*
X4266400Y1022579I-49987J-279D01*
D18*
G75*
G01*
X4510392Y3626612D02*
G03*
X4510392Y3626180I-40004J-216D01*
D16*
G75*
G01*
X3778390Y5912612D02*
G03*
X3580351Y5740547I0J-200000D01*
G75*
G01*
X3581413Y964903D02*
G03*
X3784603Y762325I199982J-2604D01*
G75*
G01*
X6172200Y762000D02*
G03*
X6372177Y965149I2J200000D01*
G75*
G01*
X6375400Y5740400D02*
G03*
X6171562Y5910872I-197821J-29437D01*
D19*
G75*
G01*
X1069190Y1875196D02*
G03*
X1069444Y1875196I127J-20000D01*
D20*
G75*
G01
X2434412Y6858000D02*
G03X2434412Y6858000I-250012J0D01*
G75*
G01
X999312Y3568700D02*
G03X999312Y3568700I-250012J0D01*
G75*
G01
X2028012Y2997200D02*
G03X2028012Y2997200I-250012J0D01*
D14*
G75*
G01
X9655099Y2565400D02*
G03X9655099Y2565400I-599999J0D01*
G75*
G01
X9182100Y2565400D02*
G03X9182100Y2565400I-127000J0D01*
G75*
G01
X1360678Y7183374D02*
G03X1360678Y7183374I-175006J0D01*
G75*
G01
X1260602Y7183374D02*
G03X1260602Y7183374I-74930J0D01*
G75*
G01
X1347978Y8554974D02*
G03X1347978Y8554974I-175006J0D01*
G75*
G01
X1247902Y8554974D02*
G03X1247902Y8554974I-74930J0D01*
G75*
G01
X3519678Y8580374D02*
G03X3519678Y8580374I-175006J0D01*
G75*
G01
X3419602Y8580374D02*
G03X3419602Y8580374I-74930J0D01*
G75*
G01
X5958078Y8580374D02*
G03X5958078Y8580374I-175006J0D01*
G75*
G01
X5858002Y8580374D02*
G03X5858002Y8580374I-74930J0D01*
G75*
G01
X8231378Y8580374D02*
G03X8231378Y8580374I-175006J0D01*
G75*
G01
X8131302Y8580374D02*
G03X8131302Y8580374I-74930J0D01*
G75*
G01
X6290513Y5714975D02*
G03X6290513Y5714975I-143688J0D01*
G75*
G01
X3937025Y5714975D02*
G03X3937025Y5714975I-127000J0D01*
G75*
G01
X3953713Y965175D02*
G03X3953713Y965175I-143688J0D01*
G75*
G01
X6273825Y965175D02*
G03X6273825Y965175I-127000J0D01*
M02*
